<svg width="512" height="512" viewBox="0 0 64 64" xmlns="http://www.w3.org/2000/svg" xmlns:xlink="http://www.w3.org/1999/xlink" overflow="hidden"><style>
.MsftOfcThm_Accent1_Fill_v2 {
 fill:#2D0F64; 
}
</style>
<g id="_21-Search"><path d="M10 46C6.68766 45.9967 4.00331 43.3123 4 40L4 38 6 38 6 40C6 42.2091 7.79086 44 10 44 12.2091 44 14 42.2091 14 40L14 38 16 38 16 40C15.9967 43.3123 13.3123 45.9967 10 46Z" class="MsftOfcThm_Accent1_Fill_v2" fill="#2D0F64"/><path d="M15 39C12.354 39 10.875 38.212 10.048 37.336 8.783 38.6 6.528 39 5 39 4.44772 39 4 38.5523 4 38L4 36C4 32.6863 6.68629 30 10 30 13.3137 30 16 32.6863 16 36L16 38C16 38.5523 15.5523 39 15 39ZM10 34C10.5523 34 11 34.4477 11 35 11.009 35.167 11.17 36.665 14 36.952L14 36C14 33.7909 12.2091 32 10 32 7.79086 32 6 33.7909 6 36L6 36.918C7.186 36.762 9 36.309 9 35 9 34.4477 9.44771 34 10 34Z" class="MsftOfcThm_Accent1_Fill_v2" fill="#2D0F64"/><path d="M10 49C8.34315 49 7 47.6569 7 46L7 44.59 9 44.59 9 46C9 46.5523 9.44771 47 10 47 10.2606 47.002 10.5109 46.8985 10.694 46.713 10.8899 46.5277 11.0007 46.2697 11 46L11 44.59 13 44.59 13 46C12.9918 47.6534 11.6534 48.9918 10 49Z" class="MsftOfcThm_Accent1_Fill_v2" fill="#2D0F64"/><path d="M10 62C6.53381 62.0044 3.16171 60.8726 0.4 58.778 0.148194 58.5891 5.96047e-09 58.2928 5.96047e-09 57.978L3.33067e-16 49C4.4172e-05 48.6 0.238396 48.2386 0.606 48.081L7.606 45.081 8.394 46.919 2 49.659 2 57.47C6.7999 60.8434 13.2001 60.8434 18 57.47L18 49.659 11.606 46.919 12.394 45.081 19.394 48.081C19.7616 48.2386 20 48.6 20 49L20 57.979C20 58.2938 19.8518 58.5901 19.6 58.779 16.8382 60.8733 13.4661 62.0047 10 62Z" class="MsftOfcThm_Accent1_Fill_v2" fill="#2D0F64"/><path d="M54 46C50.6877 45.9967 48.0033 43.3123 48 40L48 38 50 38 50 40C50 42.2091 51.7909 44 54 44 56.2091 44 58 42.2091 58 40L58 38 60 38 60 40C59.9967 43.3123 57.3123 45.9967 54 46Z" class="MsftOfcThm_Accent1_Fill_v2" fill="#2D0F64"/><path d="M59 39 49 39C48.4477 39 48 38.5523 48 38L48 36C48 32.6863 50.6863 30 54 30 57.3137 30 60 32.6863 60 36L60 38C60 38.5523 59.5523 39 59 39ZM50 37 58 37 58 36C58 33.7909 56.2091 32 54 32 51.7909 32 50 33.7909 50 36Z" class="MsftOfcThm_Accent1_Fill_v2" fill="#2D0F64"/><path d="M54 49C52.3431 49 51 47.6569 51 46L51 44.59 53 44.59 53 46C53 46.5523 53.4477 47 54 47 54.2606 47.002 54.5109 46.8985 54.694 46.713 54.8899 46.5277 55.0007 46.2697 55 46L55 44.59 57 44.59 57 46C56.9918 47.6534 55.6534 48.9918 54 49Z" class="MsftOfcThm_Accent1_Fill_v2" fill="#2D0F64"/><path d="M54 62C50.5338 62.0044 47.1617 60.8726 44.4 58.778 44.1482 58.5891 44 58.2928 44 57.978L44 49C44 48.6 44.2384 48.2386 44.606 48.081L51.606 45.081 52.394 46.919 46 49.659 46 57.47C50.7999 60.8434 57.2001 60.8434 62 57.47L62 49.659 55.606 46.919 56.394 45.081 63.394 48.081C63.7616 48.2386 64 48.6 64 49L64 57.979C64 58.2938 63.8518 58.5901 63.6 58.779 60.8382 60.8733 57.4661 62.0047 54 62Z" class="MsftOfcThm_Accent1_Fill_v2" fill="#2D0F64"/><path d="M9 51 11 51 11 53 9 53Z" class="MsftOfcThm_Accent1_Fill_v2" fill="#2D0F64"/><path d="M9 56 11 56 11 58 9 58Z" class="MsftOfcThm_Accent1_Fill_v2" fill="#2D0F64"/><path d="M53 48 55 48 55 52 53 52Z" class="MsftOfcThm_Accent1_Fill_v2" fill="#2D0F64"/><path d="M32 25C28.6877 24.9967 26.0033 22.3123 26 19L26 17C26 16.4477 26.4477 16 27 16 28.0384 16.0662 28.9338 15.278 29 14.2396 29.0051 14.1598 29.0051 14.0798 29 14 29 13.4477 29.4477 13 30 13 30.5523 13 31 13.4477 31 14 31 14 31.316 16 37 16 37.5523 16 38 16.4477 38 17L38 19C37.9967 22.3123 35.3123 24.9967 32 25ZM28 17.874 28 19C28 21.2091 29.7909 23 32 23 34.2091 23 36 21.2091 36 19L36 17.979C33.01 17.85 31.3 17.139 30.313 16.351 29.7501 17.1201 28.929 17.6608 28 17.874Z" class="MsftOfcThm_Accent1_Fill_v2" fill="#2D0F64"/><path d="M38 17 36 17 36 15C36 12.7909 34.2091 11 32 11 29.7909 11 28 12.7909 28 15L28 17 26 17 26 15C26 11.6863 28.6863 9 32 9 35.3137 9 38 11.6863 38 15Z" class="MsftOfcThm_Accent1_Fill_v2" fill="#2D0F64"/><path d="M32 28C30.3431 28 29 26.6569 29 25L29 23.59 31 23.59 31 25C31 25.5523 31.4477 26 32 26 32.2606 26.002 32.5109 25.8985 32.694 25.713 32.8899 25.5277 33.0007 25.2697 33 25L33 23.59 35 23.59 35 25C34.9918 26.6534 33.6534 27.9918 32 28Z" class="MsftOfcThm_Accent1_Fill_v2" fill="#2D0F64"/><path d="M42 32 40 32 40 28.659 33.606 25.919 34.394 24.081 41.394 27.081C41.7616 27.2386 42 27.6 42 28Z" class="MsftOfcThm_Accent1_Fill_v2" fill="#2D0F64"/><path d="M24 32 22 32 22 28C22 27.6 22.2384 27.2386 22.606 27.081L29.606 24.081 30.394 25.919 24 28.659Z" class="MsftOfcThm_Accent1_Fill_v2" fill="#2D0F64"/><path d="M31 27 33 27 33 35 31 35Z" class="MsftOfcThm_Accent1_Fill_v2" fill="#2D0F64"/><path d="M32 40C21.5066 40 13 31.4934 13 21 13 10.5066 21.5066 2 32 2 42.4934 2 51 10.5066 51 21 50.9884 31.4886 42.4886 39.9884 32 40ZM32 4C22.6112 4 15 11.6112 15 21 15 30.3888 22.6112 38 32 38 41.3888 38 49 30.3888 49 21 48.9895 11.6155 41.3845 4.01047 32 4Z" class="MsftOfcThm_Accent1_Fill_v2" fill="#2D0F64"/><path d="M32 36C23.7157 36 17 29.2843 17 21 17 12.7157 23.7157 6 32 6 40.2843 6 47 12.7157 47 21 46.9906 29.2804 40.2804 35.9906 32 36ZM32 8C24.8203 8 19 13.8203 19 21 19 28.1797 24.8203 34 32 34 39.1797 34 45 28.1797 45 21 44.9917 13.8237 39.1763 8.00827 32 8Z" class="MsftOfcThm_Accent1_Fill_v2" fill="#2D0F64"/><path d="M36 58 28 58C27.4477 58 27 57.5523 27 57L27 43C27 42.4477 27.4477 42 28 42L36 42C36.5523 42 37 42.4477 37 43L37 57C37 57.5523 36.5523 58 36 58ZM29 56 35 56 35 44 29 44Z" class="MsftOfcThm_Accent1_Fill_v2" fill="#2D0F64"/><path d="M29 39 31 39 31 43 29 43Z" class="MsftOfcThm_Accent1_Fill_v2" fill="#2D0F64"/><path d="M33 39 35 39 35 43 33 43Z" class="MsftOfcThm_Accent1_Fill_v2" fill="#2D0F64"/><path d="M28 46 36 46 36 48 28 48Z" class="MsftOfcThm_Accent1_Fill_v2" fill="#2D0F64"/></g></svg>