<svg width="512" height="512" viewBox="0 0 512 512" xmlns="http://www.w3.org/2000/svg" xmlns:xlink="http://www.w3.org/1999/xlink" id="Layer_1" overflow="hidden"><style>
.MsftOfcThm_Accent4_Fill_v2 {
 fill:#1D23D7; 
}
</style>
<path d="M368.633 273.176 290.727 318.552C287.7 320.314 284.631 321.666 281.468 322.615 282.452 320.664 283.258 318.548 283.866 316.277 286.006 308.288 284.76 299.64 280.446 292.551 276.307 285.749 269.857 281.088 262.284 279.427 239.36 274.4 216.694 266.574 198.481 260.285 192.834 258.334 187.499 256.493 182.936 255.013 162.585 248.411 144.287 256.526 129.072 265.335L72.061 298.343 66.269 288.108C63.714 283.593 59.541 280.34 54.522 278.948 49.5 277.555 44.251 278.198 39.735 280.753L17.877 293.124C13.361 295.679 10.108 299.852 8.717 304.872 7.326 309.892 7.967 315.143 10.523 319.659L74.787 433.209C77.342 437.724 81.515 440.977 86.534 442.369 88.27 442.85 90.034 443.088 91.785 443.088 95.098 443.088 98.367 442.235 101.321 440.564L123.18 428.192C132.523 422.904 135.823 411.001 130.534 401.657L125.307 392.422 137.196 385.558 236.543 412.178C242.144 413.679 247.717 414.425 253.198 414.425 264.286 414.425 274.998 411.372 284.791 405.343L426.173 318.286C439.54 310.056 443.801 289.35 435.113 274.845 430.905 267.823 413.676 246.943 368.633 273.176ZM115.298 414.269 93.439 426.641C92.367 427.247 91.329 427.096 90.807 426.952 90.285 426.807 89.318 426.404 88.709 425.33L24.445 311.78C23.838 310.706 23.99 309.67 24.134 309.148 24.279 308.626 24.682 307.659 25.756 307.051L47.614 294.679C48.211 294.342 48.796 294.239 49.288 294.239 49.681 294.239 50.015 294.305 50.246 294.369 50.768 294.514 51.735 294.917 52.344 295.991L116.609 409.54C117.535 411.177 116.936 413.343 115.298 414.269ZM417.783 304.664 276.402 391.721C265.454 398.46 253.438 400.145 240.683 396.725L138.135 369.247C136.088 368.7 133.903 368.985 132.065 370.046L117.425 378.498 79.942 312.27 137.089 279.183C149.863 271.787 163.659 265.582 177.999 270.234 182.418 271.667 187.684 273.485 193.259 275.41 211.864 281.834 235.021 289.83 258.856 295.057 262.119 295.772 264.932 297.836 266.777 300.869 268.83 304.243 269.425 308.35 268.411 312.138 265.88 321.58 257.944 322.753 251.613 322.033 240.203 319.683 229.34 316.584 217.846 313.301 212.37 311.737 206.707 310.12 200.883 308.559 196.619 307.419 192.229 309.948 191.085 314.216 189.941 318.484 192.475 322.87 196.742 324.014 202.439 325.54 208.038 327.139 213.452 328.685 225.364 332.087 236.614 335.3 248.749 337.781 248.803 337.792 258.759 339.415 258.759 339.415 273.507 341.773 286.597 339.472 298.779 332.379L376.686 287.003C398.53 274.28 415.242 272.81 421.386 283.069 425.586 290.081 423.768 300.979 417.783 304.664ZM54.291 317.198C54.914 321.463 51.962 325.426 47.698 326.049 43.433 326.672 39.47 323.721 38.847 319.456 38.223 315.191 41.175 311.228 45.44 310.605 49.704 309.981 53.667 312.933 54.291 317.198ZM503.958 220.558C500.493 188.173 479.013 161.845 450.081 151.011 460.356 142.497 466.913 129.646 466.913 115.29 466.913 89.717 446.107 68.911 420.534 68.911 394.961 68.911 374.155 89.717 374.155 115.29 374.155 129.642 380.709 142.49 390.979 151.004 371.479 158.307 355.212 172.709 345.651 191.674 337.903 184.68 328.844 179.143 318.91 175.423 329.185 166.909 335.742 154.058 335.742 139.702 335.742 114.129 314.936 93.323 289.363 93.323 263.789 93.323 242.983 114.129 242.983 139.702 242.983 154.057 249.54 166.909 259.815 175.423 249.88 179.143 240.821 184.68 233.073 191.674 223.513 172.709 207.246 158.308 187.747 151.004 198.017 142.49 204.571 129.642 204.571 115.29 204.571 89.717 183.765 68.911 158.192 68.911 132.618 68.911 111.812 89.717 111.812 115.29 111.812 129.645 118.369 142.497 128.644 151.011 99.713 161.845 78.233 188.174 74.768 220.558 74.526 222.815 75.254 225.068 76.772 226.756 78.29 228.444 80.453 229.409 82.722 229.409L209.099 229.409C207.583 234.402 206.513 239.602 205.938 244.97 205.696 247.227 206.424 249.48 207.942 251.168 209.46 252.856 211.623 253.821 213.892 253.821L364.831 253.821C367.101 253.821 369.264 252.857 370.781 251.168 372.299 249.48 373.027 247.227 372.785 244.97 372.21 239.603 371.139 234.402 369.624 229.41L496.002 229.41C498.272 229.41 500.435 228.446 501.952 226.757 503.472 225.068 504.2 222.814 503.958 220.558ZM390.155 115.29C390.155 98.539 403.783 84.911 420.534 84.911 437.285 84.911 450.913 98.539 450.913 115.29 450.913 132.041 437.285 145.669 420.534 145.669 403.783 145.669 390.155 132.042 390.155 115.29ZM258.983 139.702C258.983 122.951 272.611 109.323 289.363 109.323 306.114 109.323 319.742 122.951 319.742 139.702 319.742 156.453 306.114 170.081 289.363 170.081 272.611 170.081 258.983 156.453 258.983 139.702ZM127.812 115.29C127.812 98.539 141.44 84.911 158.192 84.911 174.943 84.911 188.571 98.539 188.571 115.29 188.571 132.041 174.943 145.669 158.192 145.669 141.44 145.669 127.812 132.042 127.812 115.29ZM215.867 213.409 92.213 213.409C99.49 183.363 126.44 161.669 158.192 161.669 186.338 161.669 211.223 178.801 221.385 204.704 219.374 207.479 217.533 210.385 215.867 213.409ZM223.384 237.821C230.661 207.775 257.611 186.081 289.363 186.081 321.115 186.081 348.063 207.774 355.341 237.82ZM362.857 213.409C361.191 210.385 359.351 207.478 357.34 204.704 367.503 178.801 392.387 161.669 420.534 161.669 452.286 161.669 479.235 183.362 486.513 213.408Z" class="MsftOfcThm_Accent4_Fill_v2" fill="#1D23D7"/></svg>