<svg width="370.52" height="371.27" viewBox="0 0 370.52 371.27" xmlns="http://www.w3.org/2000/svg" xmlns:xlink="http://www.w3.org/1999/xlink" xml:space="preserve" overflow="visible"><style>
.MsftOfcThm_Accent1_Fill_v2 {
 fill:#2D0F64; 
}
</style>
<defs></defs><path d="M356.44 0C357.28 0.41 358.1 0.85 358.95 1.21 365.91 4.19 370.21 9.37 370.32 16.99 370.58 33.54 370.58 50.1 370.34 66.65 370.21 75.73 363.62 82.48 354.58 83.66 353.51 83.8 352.38 84.01 351.34 83.86 340.54 82.26 331.6 86.06 322.78 92.11 309.55 101.18 295.65 109.28 282.03 117.79 281.13 118.36 280.18 118.86 278.58 119.78 280.65 107.58 282.61 96 284.66 83.9 280.12 83.9 275.81 83.9 271.5 83.9 257.79 83.89 250.68 76.82 250.68 63.19 250.67 49.66 251.01 36.11 250.58 22.59 250.22 11.43 254.2 3.66 265.06 0 295.52 0 325.98 0 356.44 0ZM298.85 71.82C298.16 76.03 297.56 79.71 296.94 83.39 296.31 87.17 295.66 90.96 294.92 95.31 296.43 94.49 297.49 93.98 298.47 93.37 304.92 89.35 311.7 85.75 317.72 81.16 327.59 73.64 338.23 70.26 350.65 71.7 356.43 72.37 358.55 69.82 358.56 64.08 358.58 49.34 358.58 34.61 358.56 19.87 358.55 14.02 356.59 12.03 350.73 12.02 324.03 12 297.34 12 270.64 12.02 264.64 12.02 262.78 13.87 262.77 19.74 262.75 34.48 262.75 49.21 262.77 63.95 262.78 70.03 264.62 71.81 270.84 71.82 280.01 71.83 289.17 71.82 298.85 71.82Z" class="MsftOfcThm_Accent1_Fill_v2" stroke-width="7.90452" fill="#2D0F64"/><path d="M300.77 323.46C258.03 323.46 215.77 323.46 172.58 323.46 176.15 326.53 179.1 329.07 182.3 331.82 171.21 341.97 161.09 351.28 150.91 360.53 142.76 367.94 133.06 371.46 122.11 371.26 111.83 371.07 102.5 367.78 95.14 360.57 76.15 341.97 57.43 323.08 38.6 304.31 30.22 295.95 21.83 287.58 13.47 279.19-4.44 261.21-4.48 235.82 13.39 217.8 21.89 209.23 30.44 200.72 38.86 192.29 53.68 207.1 68.29 221.7 83.15 236.56 82.47 237.31 81.73 238.19 80.91 239.01 74.25 245.68 67.56 252.33 60.92 259.01 57.16 262.79 57.14 265.87 60.83 269.61 67.09 275.97 73.38 282.29 80.07 289.05 81.16 286.01 81.99 283.53 82.92 281.1 88.68 265.98 99.53 256.83 115.41 253.79 128.44 251.3 141.49 248.98 155.79 246.35 154.5 244.55 153.88 242.93 152.71 242.15 139.33 233.27 130.65 221.11 126.54 205.59 126.22 204.39 124.92 202.97 123.74 202.54 113.04 198.55 107.03 190.22 107 178.79 106.96 164.89 106.89 150.99 107.02 137.09 107.38 97.57 137.7 64.15 176.62 60.27 216.83 56.27 253.37 83.07 261.18 122.51 262.25 127.92 262.67 133.54 262.71 139.07 262.88 161.91 262.79 184.75 262.78 207.6 262.77 220.22 255.34 227.88 242.7 227.5 236.2 227.3 230.96 228.1 226.83 233.94 224.55 237.16 220.55 239.14 217.46 241.82 216.41 242.73 215.74 244.1 214.9 245.26 216.15 245.91 217.32 246.92 218.65 247.17 230.63 249.45 242.65 251.45 254.61 253.82 270.61 256.99 281.57 266.32 287 281.72 291.62 294.8 295.84 308.02 300.23 321.19 300.41 321.75 300.5 322.33 300.77 323.46ZM137.23 288.05C144.23 295.08 151.17 301.94 157.96 308.96 159.71 310.77 161.51 311.42 163.98 311.41 202.64 311.34 241.31 311.36 279.97 311.36 281.24 311.36 282.51 311.36 284.32 311.36 281.24 302.17 278.55 293.55 275.47 285.08 271.52 274.18 263.55 267.71 252.24 265.53 239.33 263.04 226.38 260.72 213.41 258.55 211.97 258.31 209.87 259.11 208.79 260.16 201.49 267.2 194.38 274.45 187.19 281.62 186.45 282.35 185.64 283.01 184.63 283.9 176.63 275.86 168.85 267.93 160.9 260.18 159.82 259.13 157.72 258.3 156.29 258.54 143.32 260.71 130.37 263.05 117.46 265.52 105.98 267.72 98.13 274.4 94.04 285.37 92.74 288.87 91.74 292.49 90.42 295.98 89.72 297.83 90.08 299.05 91.53 300.4 94.8 303.44 97.88 306.69 101.05 309.85 105.58 314.37 108.02 314.44 112.74 310.18 120.81 302.9 128.86 295.61 137.23 288.05ZM249.97 158.48C249.97 148.31 251.16 138.06 249.74 128.19 246.12 103.07 231.83 85.36 208.21 76.33 184.26 67.18 161.8 71.41 142.08 87.81 119.72 106.41 117.06 131.64 119.48 158.55 121.27 157.85 123.05 157.16 125.01 156.39 125.01 155.29 124.98 154.22 125.02 153.14 125.05 152.1 125.16 151.06 125.26 149.61 149.7 151.09 169.16 141.51 184.9 122.94 200.65 141.71 220.31 151.09 244.75 149.64 244.75 152.28 244.75 154.32 244.75 156.39 246.68 157.16 248.44 157.86 249.97 158.48ZM185.54 141.09C177.8 145.82 170.69 151.22 162.74 154.74 154.7 158.31 145.84 160.02 136.88 162.68 136.88 171.5 136.84 181.03 136.89 190.56 137.04 219.94 160.02 241.39 189.29 239.27 199.13 238.56 207.84 234.76 215.22 227.58 205.19 227.58 195.17 227.58 185.13 227.58 185.13 223.29 185.13 219.51 185.13 215.52 197.89 215.52 210.33 215.4 222.76 215.61 225.71 215.66 227.03 214.57 228.15 212.09 231.09 205.61 232.68 198.86 232.71 191.76 232.75 182.7 232.65 173.63 232.79 164.57 232.83 162.03 231.86 161.29 229.49 161.05 217 159.79 205.58 155.43 195.19 148.44 191.62 146.03 188.31 143.21 185.54 141.09ZM23.89 224.42C8.68 237.53 7.9 256.67 22.11 270.92 36.02 284.86 49.95 298.77 63.88 312.69 76.44 325.25 88.92 337.88 101.58 350.33 114.9 363.43 136.31 361.92 146.78 347.59 137.75 338.49 128.77 329.43 119.76 320.35 109.84 327.06 101.39 327 94.1 319.77 79.86 305.65 65.67 291.48 51.56 277.23 46.02 271.64 44.58 264.95 47.51 257.58 48.38 255.38 49.88 253.43 50.92 251.66 41.89 242.56 32.89 233.49 23.89 224.42ZM163.71 332.55C154.41 323.18 145.5 314.21 136.36 305 134.06 307.1 131.61 309.33 129.34 311.4 138.58 320.61 147.61 329.61 156.9 338.86 159.06 336.86 161.5 334.6 163.71 332.55ZM65.83 236.88C56.66 227.69 47.68 218.69 38.83 209.82 37.02 211.55 34.96 213.52 33.09 215.3 42.21 224.42 51.22 233.43 60.26 242.47 62.09 240.63 64.1 238.61 65.83 236.88ZM167.69 249.05C173.92 255.25 179.54 260.85 184.62 265.91 190.04 260.42 195.73 254.67 201.03 249.31 190.63 252.31 179.44 252.32 167.69 249.05ZM240.19 215.25C250.25 216.76 251.91 212.48 250.05 200.46 247.71 201.81 244.62 202.55 243.55 204.45 241.76 207.59 241.28 211.47 240.19 215.25ZM125.02 189.67C125.02 185.98 125.02 182.78 125.02 179.58 125.02 176.4 125.02 173.23 125.02 169.9 118.09 172.48 116.5 184.94 125.02 189.67ZM244.9 189.9C249.05 186.86 250.94 183.4 250.62 178.86 250.34 174.97 248.67 171.92 244.9 169.68 244.9 176.45 244.9 182.77 244.9 189.9Z" class="MsftOfcThm_Accent1_Fill_v2" stroke-width="7.90452" fill="#2D0F64"/><path d="M21.12 169.92C14.05 158.15 7.17 146.69 0.1 134.9 3.52 132.83 6.77 130.86 10.32 128.71 14.03 134.86 17.61 140.81 21.46 147.19 36.46 92 69.19 52.5 121.63 30.51 158.26 15.15 195.94 14.17 234.49 25.35 233.33 29.2 232.24 32.81 231.11 36.57 176.29 21.95 126.68 31.45 83.04 68.01 56.62 90.15 39.22 122.59 34.37 147.96 39.66 144.82 44.7 141.83 50.03 138.66 52.09 142.08 54.06 145.33 56.19 148.85 44.45 155.91 32.99 162.79 21.12 169.92Z" class="MsftOfcThm_Accent1_Fill_v2" stroke-width="7.90452" fill="#2D0F64"/><path d="M332.41 135.13C328.59 141.44 325.3 146.89 321.77 152.71 318.38 150.71 315.11 148.78 311.5 146.65 318.54 134.92 325.46 123.37 332.53 111.57 344.31 118.64 355.84 125.56 367.59 132.61 365.44 136.2 363.47 139.47 361.44 142.86 355.66 139.41 350.19 136.14 344.23 132.59 361.37 190.53 351.74 243.15 315.35 291.39 312.01 288.67 309.06 286.29 306.07 283.86 339.94 238.83 348.89 189.72 332.41 135.13Z" class="MsftOfcThm_Accent1_Fill_v2" stroke-width="7.90452" fill="#2D0F64"/><path d="M346.24 35.73C322.42 35.73 298.73 35.73 274.83 35.73 274.83 31.82 274.83 28.14 274.83 24.2 298.6 24.2 322.29 24.2 346.24 24.2 346.24 27.98 346.24 31.75 346.24 35.73Z" class="MsftOfcThm_Accent1_Fill_v2" stroke-width="7.90452" fill="#2D0F64"/><path d="M322.38 48.11C322.38 52.04 322.38 55.74 322.38 59.67 306.47 59.67 290.72 59.67 274.81 59.67 274.81 55.71 274.81 52.03 274.81 48.11 290.64 48.11 306.29 48.11 322.38 48.11Z" class="MsftOfcThm_Accent1_Fill_v2" stroke-width="7.90452" fill="#2D0F64"/><path d="M346.29 48.07C346.29 52.14 346.29 55.83 346.29 59.73 342.4 59.73 338.73 59.73 334.84 59.73 334.84 55.79 334.84 52.02 334.84 48.07 338.68 48.07 342.35 48.07 346.29 48.07Z" class="MsftOfcThm_Accent1_Fill_v2" stroke-width="7.90452" fill="#2D0F64"/></svg>