<svg width="323.65" height="372.01" viewBox="0 0 323.65 372.01" xmlns="http://www.w3.org/2000/svg" xmlns:xlink="http://www.w3.org/1999/xlink" xml:space="preserve" overflow="visible"><style>
.MsftOfcThm_Accent1_Fill_v2 {
 fill:#2D0F64; 
}
</style>
<defs></defs><path d="M116.88 148.83C122.58 138.15 131.71 132.53 144.51 131.85 137.24 124.74 133.64 116.58 135.17 106.72 136.27 99.63 139.73 93.83 145.44 89.44 156.41 81 172.1 82.3 181.52 92.42 191.86 103.52 191.17 118.1 180.06 130.95 185.14 132.79 190.89 133.93 195.54 136.83 200.13 139.7 203.61 144.36 207.77 148.42 210.49 147.21 214.05 145.64 217.57 144.08 207.31 129.22 207.49 116.75 218.21 107.64 227.7 99.58 241.73 100.05 250.61 108.72 260.38 118.26 260.16 131.24 250 143.95 250.1 144.14 250.16 144.46 250.3 144.5 263.39 148.08 269.81 156.49 269.82 170.13 269.83 182.63 269.83 195.13 269.82 207.62 269.82 214.21 268.03 215.96 261.32 215.96 244.34 215.96 227.35 215.96 209.81 215.96 209.81 217.97 209.88 219.79 209.8 221.6 209.62 225.63 207.45 227.92 203.46 227.93 175.71 227.98 147.97 227.98 120.22 227.93 116.2 227.92 114.03 225.66 113.84 221.65 113.76 219.92 113.83 218.18 113.83 215.96 112.27 215.96 110.94 215.96 109.61 215.96 93.61 215.96 77.61 215.97 61.62 215.96 55.76 215.96 53.83 214 53.83 208.05 53.82 195.43 53.82 182.8 53.83 170.18 53.84 156.42 60.3 148 74.06 144.26 67.92 137.93 64.66 130.64 66.19 121.83 67.24 115.81 70.14 110.82 74.97 107.04 84.49 99.59 97.84 100.27 106.5 108.61 116.3 118.05 116.13 129.92 106.05 144.06 109.51 145.58 112.98 147.11 116.88 148.83ZM197.83 215.89C197.83 214.58 197.83 213.61 197.83 212.64 197.83 196.14 197.86 179.65 197.82 163.15 197.79 151.5 190.26 144.03 178.51 143.98 167.39 143.93 156.27 143.93 145.14 143.98 133.38 144.04 125.86 151.51 125.84 163.17 125.81 179.54 125.83 195.91 125.83 212.28 125.83 213.46 125.83 214.65 125.83 215.9 150.03 215.89 173.64 215.89 197.83 215.89ZM113.83 203.81C113.83 192.39 113.83 181.3 113.83 170.2 113.83 169.08 113.88 167.95 113.76 166.83 113.14 160.75 108.24 156.15 101.87 156.02 93.88 155.86 85.89 155.86 77.9 156.02 70.86 156.16 65.98 161.18 65.85 168.2 65.76 173.32 65.83 178.44 65.83 183.56 65.83 190.26 65.83 196.96 65.83 203.81 81.94 203.81 97.63 203.81 113.83 203.81ZM209.86 203.7C226.07 203.7 241.85 203.7 257.79 203.7 257.79 191.34 257.95 179.24 257.72 167.15 257.6 161.03 252.47 156.21 246.17 156.05 237.93 155.84 229.69 155.84 221.45 156.05 215.12 156.21 210.03 161 209.92 167.14 209.7 179.24 209.86 191.34 209.86 203.7ZM161.55 125.95C169.85 126.07 176.67 119.52 176.81 111.28 176.95 103.06 170.35 96.21 162.1 96 153.95 95.8 146.96 102.55 146.85 110.72 146.74 119.03 153.31 125.83 161.55 125.95ZM89.64 137.96C96.22 138.05 101.66 132.83 101.81 126.28 101.96 119.61 96.52 114.03 89.82 114 83.31 113.97 77.88 119.38 77.85 125.9 77.82 132.49 83.09 137.88 89.64 137.96ZM233.64 137.96C240.22 138.05 245.66 132.84 245.81 126.29 245.97 119.62 240.52 114.04 233.83 114.01 227.32 113.98 221.88 119.38 221.85 125.91 221.82 132.48 227.08 137.87 233.64 137.96Z" class="MsftOfcThm_Accent1_Fill_v2" stroke-width="7.85529" fill="#2D0F64"/><path d="M26.57 264.29C27.42 264.09 27.66 263.99 27.91 263.98 38.95 263.52 38.95 263.52 42.33 273.92 43.36 277.1 44.41 280.27 45.57 283.83 48.55 282.9 51.23 282 53.94 281.22 59.54 279.6 63.54 281.34 66.81 286.07 72 293.54 77.34 300.91 82.85 308.14 86.31 312.69 86.77 317.13 83.54 321.91 82 324.18 80.33 326.37 78.42 329.01 84.56 333.51 90.64 337.98 97.1 342.72 98.82 340.36 100.44 338.07 102.14 335.83 105.78 331.04 110.02 330.03 115.68 331.99 124.14 334.93 132.66 337.73 141.24 340.31 147.19 342.1 150.03 345.28 150.25 351.55 150.34 354.16 150.27 356.79 150.27 359.94 154.19 359.94 157.89 359.94 161.59 359.94 165.32 359.94 169.06 359.94 173.38 359.94 173.38 357.27 173.35 354.83 173.39 352.4 173.49 345.19 176.19 342.2 183.08 340.24 190.98 337.99 198.82 335.46 206.51 332.56 213.92 329.77 217.68 330.55 222.36 336.95 223.68 338.76 224.99 340.58 226.53 342.71 232.79 338.15 238.89 333.71 245.29 329.05 243.59 326.7 241.99 324.53 240.44 322.32 236.84 317.19 237.22 312.88 240.98 307.97 246.36 300.95 251.57 293.79 256.57 286.49 260.19 281.19 264.13 279.47 270.32 281.37 272.8 282.13 275.25 282.96 278.11 283.89 280.02 278.03 281.92 272.51 283.57 266.93 284.25 264.64 285.3 263.69 287.76 263.89 290.71 264.12 293.69 263.95 297.23 263.95 294.16 273.18 291.49 282 288.25 290.61 286.51 295.23 281.33 297.14 276.3 295.9 273.09 295.11 269.39 292.92 266.82 293.86 264.39 294.75 263.26 298.99 261.36 301.6 257.91 306.33 254.3 310.94 250.59 315.82 252.16 318.01 253.86 320.31 255.48 322.66 259.39 328.35 258.64 334 253.17 338.11 246.38 343.22 239.52 348.23 232.56 353.1 227.25 356.82 221.68 355.9 217.66 350.84 215.8 348.5 214.1 346.03 212.56 343.94 203.87 346.57 195.42 349.08 187.02 351.76 186.3 351.99 185.56 353.32 185.49 354.2 185.26 356.81 185.48 359.45 185.3 362.06 184.89 367.71 181.01 371.73 175.41 371.85 166.42 372.04 157.41 372.03 148.42 371.86 142.79 371.75 138.82 367.78 138.45 362.15 138.23 358.82 138.41 355.46 138.41 352.62 129.12 349.59 120.49 346.77 111.35 343.78 109.98 345.62 108.3 347.9 106.59 350.16 102.13 356.02 96.58 356.96 90.62 352.72 84.01 348.01 77.44 343.23 70.93 338.38 65.07 334.02 64.23 328.41 68.41 322.42 69.97 320.18 71.59 317.97 72.91 316.13 67.73 308.69 62.8 301.51 57.7 294.45 57.21 293.78 55.6 293.46 54.66 293.67 52.23 294.19 49.91 295.19 47.5 295.83 42.36 297.19 37.08 295.1 35.32 290.34 32.15 281.84 29.5 273.14 26.57 264.29Z" class="MsftOfcThm_Accent1_Fill_v2" stroke-width="7.85529" fill="#2D0F64"/><path d="M20.37 82.28C18.62 78.56 17.04 75.2 15.31 71.51 23.71 67.55 31.91 63.67 40.12 59.81 64.95 48.11 89.81 36.47 114.6 24.67 118.03 23.04 121.08 22.89 124.62 24.17 149.84 33.28 175.11 42.29 200.4 51.22 201.96 51.77 204.18 51.94 205.59 51.24 226.53 40.93 247.38 30.45 268.24 20 268.79 19.72 269.3 19.36 270.13 18.85 268.45 15.73 266.76 12.71 265.18 9.63 262.48 4.36 265.08-0.17 270.94 3.55271e-15 282.31 0.31 293.67 0.79 305.02 1.38 309.86 1.63 312.4 6 310.03 10.23 304.35 20.35 298.49 30.38 292.47 40.31 289.76 44.79 284.64 44.53 281.87 39.98 279.87 36.69 278.11 33.25 276.07 29.57 274.7 30.22 273.48 30.78 272.29 31.37 251.19 41.92 230.06 52.41 209.02 63.08 205.6 64.81 202.59 64.92 199.04 63.63 174.06 54.58 149.02 45.71 124.04 36.68 121.4 35.73 119.23 35.74 116.63 36.98 85.97 51.52 55.24 65.93 24.53 80.37 23.3 80.96 22.05 81.51 20.37 82.28ZM287.47 25.32C290.07 20.83 292.26 17.06 294.77 12.72 289.6 12.72 285.42 12.72 280.55 12.72 282.91 17.01 285.03 20.87 287.47 25.32Z" class="MsftOfcThm_Accent1_Fill_v2" stroke-width="7.85529" fill="#2D0F64"/><path d="M0 251.68C0 247.74 0 244.04 0 240.14 107.94 240.14 215.7 240.14 323.65 240.14 323.65 244.01 323.65 247.71 323.65 251.68 215.86 251.68 108.1 251.68 0 251.68Z" class="MsftOfcThm_Accent1_Fill_v2" stroke-width="7.85529" fill="#2D0F64"/><path d="M83.91 264.18C84.41 264.07 84.65 264.01 84.89 263.97 92.32 262.89 96.86 264.99 101.35 272.25 115.86 295.66 137.95 307.03 165.44 305.7 192.17 304.41 212.19 291.15 225.24 267.77 226.9 264.8 228.47 263.54 231.77 263.89 234.35 264.17 236.99 263.95 239.63 263.95 235.51 289.45 198.47 316.47 166.08 317.88 123.27 319.73 92.73 290.75 83.91 264.18Z" class="MsftOfcThm_Accent1_Fill_v2" stroke-width="7.85529" fill="#2D0F64"/></svg>