<svg width="567.32" height="568.37" viewBox="0 0 567.32 568.37" xmlns="http://www.w3.org/2000/svg" xmlns:xlink="http://www.w3.org/1999/xlink" xml:space="preserve" overflow="visible"><style>
.MsftOfcThm_Accent1_Fill_v2 {
 fill:#2D0F64; 
}
</style>
<defs></defs><path d="M567.32 506.84C563.89 517.75 559.95 528.35 552.99 537.71 526.42 573.42 472.97 579.22 440.89 548.34 401.88 510.79 364 472.05 325.71 433.75 320.45 428.48 320.69 423.72 325.76 418.22 327.38 416.46 329.14 414.77 330.46 412.8 333.36 408.49 332.74 403.11 329.18 399.65 325.69 396.25 320.15 395.74 315.94 398.56 314.57 399.48 313.37 400.66 312.17 401.81 304.76 408.94 300.83 408.94 293.47 401.54 287.35 395.39 281.36 389.11 275.17 382.75 273.95 383.61 273.14 384.02 272.53 384.63 257.48 399.64 242.34 414.56 227.57 429.85 225.87 431.61 225.49 435.5 225.84 438.23 230.54 474.39 220.51 505.83 195.86 532.56 146.33 586.26 55.7 577.29 17.48 514.99-21.64 451.23 7.55 370.35 78.48 346.48 95.35 340.8 112.79 339.3 130.42 342.46 134.29 343.15 136.87 342.17 139.66 339.37 206.11 272.76 272.64 206.24 339.25 139.79 341.98 137.07 342.94 134.69 342.37 130.68 333.47 67.8 373.48 12.75 436.11 1.4 438.8 0.91 441.49 0.46 444.18 0 450.84 0 457.49 0 464.15 0 468.81 0.92 473.47 1.9 478.15 2.73 482.7 3.53 486.93 4.82 488.44 9.82 490 14.97 487.26 18.55 483.8 21.98 465.97 39.69 448.27 57.52 430.42 75.2 428.2 77.4 427.49 79.22 428.6 82.37 433.15 95.23 437.21 108.26 441.84 121.09 442.62 123.24 445.01 125.54 447.18 126.32 459.68 130.79 472.4 134.66 484.9 139.12 488.65 140.46 490.84 139.66 493.5 136.97 510.9 119.36 528.49 101.94 545.99 84.43 549.34 81.08 552.65 77.9 558.02 79.59 563.29 81.25 564.59 85.48 565.32 90.28 565.7 92.76 566.63 95.16 567.31 97.6 567.31 108.32 567.31 119.04 567.31 129.76 566.95 130.98 566.45 132.19 566.25 133.44 556.5 193.66 497.14 236.07 437.07 225.59 433.57 224.98 431.27 225.74 428.79 228.26 414.54 242.74 400.1 257.04 385.75 271.43 384.76 272.42 383.92 273.56 383.09 274.54 383.48 275.19 383.62 275.56 383.87 275.81 389.47 281.44 395.09 287.06 400.7 292.68 409.06 301.05 409.12 304.5 401.04 312.97 395.6 318.67 395.06 324.47 399.53 329.14 404.11 333.92 410.21 333.45 416.13 327.89 424.54 319.98 427.97 319.99 435.99 328 471.79 363.78 507.6 399.56 543.35 435.39 546.73 438.78 549.86 442.44 552.9 446.14 560.32 455.15 563.81 466.04 567.31 476.91 567.32 486.87 567.32 496.85 567.32 506.84ZM458.81 20.38C441.59 18.27 425.73 21.65 410.96 29.43 372.46 49.71 353.52 89.72 362.04 132.69 363.27 138.88 362.36 143.49 357.71 148.13 287.67 217.92 217.75 287.83 147.92 357.83 143.46 362.3 138.94 362.89 132.94 362.22 122.18 361.03 111.09 359.49 100.49 360.84 45.73 367.81 8.91 419.45 19.44 473.42 32.45 540.15 110.17 572.21 166.23 533.97 198.62 511.88 213.88 474.07 205.9 435.25 204.69 429.37 205.41 424.72 209.95 420.2 280.11 350.27 350.16 280.23 420.15 210.13 424.37 205.9 428.65 204.59 434.58 205.88 484.83 216.83 530.2 186.86 544.33 143.5 547.89 132.57 549.46 121.41 547.73 109.11 545.81 110.13 545.01 112.08 543.64 113.47 529.59 127.65 515.33 141.62 501.4 155.91 496.77 160.66 492.14 161.63 485.96 159.48 469.41 153.7 452.76 148.22 436.08 142.85 430.5 141.05 427.09 137.8 425.28 132.15 419.99 115.64 414.53 99.19 408.78 82.83 406.41 76.08 407.46 71.09 412.77 65.99 428.36 51.03 443.5 35.61 458.81 20.38ZM303.29 383.82C304.57 383.06 306.1 382.08 307.69 381.2 319.31 374.77 333.47 376.83 342.9 386.29 352.14 395.55 354.38 410.43 347.41 421.48 344.88 425.49 345.88 427.3 348.74 430.15 382.16 463.39 415.46 496.76 448.81 530.07 450.62 531.88 452.56 533.56 453.49 534.42 480.63 507.26 507.46 480.4 534.2 453.64 498.39 417.99 461.99 381.75 425.49 345.4 409.55 354.24 396.75 353.46 386.04 342.69 375.61 332.2 374.9 319.28 383.61 303.67 378.65 298.6 373.79 293.64 369.25 289 342.55 315.81 315.74 342.74 288.91 369.69 293.36 374.06 298.2 378.82 303.29 383.82ZM472.94 545.42C491.21 553.53 518 547.26 532.5 532.09 550.04 513.75 552.53 486.15 545.3 473.1 521.2 497.18 497 521.37 472.94 545.42Z" class="MsftOfcThm_Accent1_Fill_v2" stroke-width="12.0805" fill="#2D0F64"/><path d="M50.39 0C70.79 11.79 91.03 23.89 111.69 35.21 119.19 39.32 123.78 44.46 124.74 52.9 126.95 72.27 136.68 86.79 150.88 100.25 183.99 131.64 215.7 164.51 247.99 196.76 249.42 198.19 251.1 199.37 252.41 200.45 247.54 205.1 243.2 209.24 238.42 213.79 237.99 213.39 236.54 212.08 235.17 210.71 196.61 172.18 158 133.7 119.61 95 116.54 91.9 114.24 87.53 112.91 83.33 110.18 74.73 108.42 65.83 106.09 57.1 105.65 55.47 104.76 53.41 103.44 52.64 85.43 42.15 67.3 31.85 49.76 21.83 40.28 31.22 31.15 40.28 21.64 49.71 31.69 67.29 41.96 85.41 52.45 103.39 53.3 104.85 55.57 105.83 57.37 106.34 64.3 108.28 71.22 110.38 78.3 111.58 86.55 112.98 92.68 117.06 98.51 122.94 135.57 160.36 172.9 197.5 210.18 234.71 211.61 236.14 213.34 237.26 215.29 238.81 210.05 243.5 205.54 247.53 199.62 252.82 199.09 251.95 198.25 249.71 196.72 248.17 159.28 210.61 121.81 173.08 84.18 135.71 81.73 133.27 78.22 131.45 74.87 130.46 65.85 127.8 56.52 126.16 47.6 123.23 43.94 122.03 39.89 119.23 37.96 116 25.78 95.53 14.11 74.77 2.34 54.08-1.14 47.96-0.79 44.4 3.93 39.62 15.74 27.65 27.65 15.78 39.59 3.94 41.13 2.41 43.08 1.3 44.84 0 46.69 0 48.54 0 50.39 0Z" class="MsftOfcThm_Accent1_Fill_v2" stroke-width="12.0805" fill="#2D0F64"/><path d="M113.23 511.26C104.54 511.26 95.85 511.14 87.17 511.31 82.24 511.4 78.7 509.55 76.17 505.31 67.29 490.4 58.37 475.51 49.37 460.67 46.8 456.42 46.8 452.47 49.38 448.21 58.38 433.37 67.3 418.48 76.16 403.56 78.58 399.49 81.97 397.65 86.65 397.66 104.58 397.71 122.51 397.71 140.44 397.66 145.13 397.65 148.48 399.52 150.9 403.6 159.76 418.52 168.71 433.39 177.7 448.24 180.27 452.48 180.22 456.51 177.66 460.73 168.67 475.57 159.72 490.45 150.84 505.35 148.31 509.6 144.76 511.41 139.83 511.32 130.97 511.13 122.1 511.26 113.23 511.26ZM113.85 416.63C107.38 416.63 100.89 416.35 94.45 416.79 92.34 416.94 89.57 418.46 88.45 420.22 82.01 430.34 75.83 440.64 69.94 451.1 68.96 452.84 69 456.09 69.99 457.85 75.89 468.3 82.07 478.6 88.5 488.73 89.61 490.48 92.36 492.16 94.39 492.21 107.14 492.53 119.9 492.52 132.65 492.21 134.69 492.16 137.45 490.52 138.55 488.77 144.98 478.64 150.92 468.2 157.23 457.99 158.78 455.49 159 453.67 157.35 451.04 151 440.86 144.84 430.55 138.84 420.15 137.21 417.31 135.21 416.48 132.14 416.57 126.06 416.76 119.95 416.63 113.85 416.63Z" class="MsftOfcThm_Accent1_Fill_v2" stroke-width="12.0805" fill="#2D0F64"/><path d="M186.08 393.69C182.23 389.78 178.1 385.6 174.32 381.76 243.38 312.74 312.62 243.55 382.06 174.15 385.58 178.01 389.63 182.46 393.31 186.49 324.52 255.29 255.29 324.5 186.08 393.69Z" class="MsftOfcThm_Accent1_Fill_v2" stroke-width="12.0805" fill="#2D0F64"/><path d="M382.68 394.18C386.41 390.56 390.74 386.35 394.85 382.36 425.97 413.46 457.29 444.77 488.74 476.21 484.57 480.09 480.19 484.16 476.3 487.78 445.51 456.99 414.13 425.62 382.68 394.18Z" class="MsftOfcThm_Accent1_Fill_v2" stroke-width="12.0805" fill="#2D0F64"/></svg>