<svg viewBox="0 0 392.362 392.362" xmlns="http://www.w3.org/2000/svg" xmlns:xlink="http://www.w3.org/1999/xlink" id="Capa_1" overflow="hidden"><style>
.MsftOfcThm_Accent1_Fill_v2 {
 fill:#2D0F64; 
}
</style>
<g><g><path d="M74.832 334.417C74.707 334.305 74.578 334.198 74.444 334.096 70.444 330.776 66.444 327.216 62.764 323.536 60.426 321.223 56.662 321.223 54.324 323.536 51.984 325.879 51.984 329.673 54.324 332.016 58.324 336.016 62.324 339.736 66.804 343.336 69.267 345.553 73.061 345.353 75.278 342.89 77.494 340.427 77.295 336.634 74.832 334.417Z" class="MsftOfcThm_Accent1_Fill_v2" fill="#2D0F64"/></g></g><g><g><path d="M12.038 156.534C8.91 155.441 5.488 157.092 4.395 160.22 4.233 160.684 4.128 161.167 4.084 161.656 2.884 167.136 1.964 172.696 1.284 178.256 0.856 181.508 3.118 184.501 6.364 184.976L7.124 184.976C10.161 184.978 12.72 182.711 13.084 179.696 13.724 174.496 14.604 169.256 15.724 164.176 16.817 161.048 15.166 157.626 12.038 156.534Z" class="MsftOfcThm_Accent1_Fill_v2" fill="#2D0F64"/></g></g><g><g><path d="M45.004 302.616C41.924 298.376 39.004 293.976 36.324 289.496 34.63 286.648 30.948 285.712 28.1 287.406 28.095 287.409 28.089 287.412 28.084 287.416 25.236 289.11 24.3 292.792 25.994 295.64 25.997 295.645 26 295.651 26.004 295.656 28.884 300.456 32.004 305.176 35.324 309.696 37.371 312.302 41.143 312.754 43.749 310.707 46.228 308.759 46.777 305.224 45.004 302.616Z" class="MsftOfcThm_Accent1_Fill_v2" fill="#2D0F64"/></g></g><g><g><path d="M24.084 264.776C22.164 259.936 20.404 254.936 18.924 249.896 18.001 246.714 14.672 244.882 11.49 245.805 11.434 245.821 11.379 245.838 11.324 245.856 8.175 246.818 6.39 250.139 7.324 253.296 8.924 258.656 10.764 264.016 12.844 269.296 14.092 272.4 17.62 273.904 20.724 272.656 23.828 271.408 25.332 267.88 24.084 264.776Z" class="MsftOfcThm_Accent1_Fill_v2" fill="#2D0F64"/></g></g><g><g><path d="M27.664 115.396C24.704 113.905 21.095 115.096 19.604 118.056 17.084 123.056 14.764 128.216 12.724 133.456 11.521 136.526 13.022 139.992 16.084 141.216 19.165 142.436 22.652 140.928 23.872 137.847 23.876 137.837 23.88 137.826 23.884 137.816 25.804 132.936 27.884 128.096 30.324 123.456 31.815 120.496 30.624 116.888 27.664 115.396Z" class="MsftOfcThm_Accent1_Fill_v2" fill="#2D0F64"/></g></g><g><g><path d="M13.286 223.033C13.285 223.028 13.285 223.022 13.284 223.017 12.644 217.817 12.204 212.537 12.004 207.337 11.883 204.023 9.098 201.436 5.784 201.557 2.47 201.678-0.117 204.463 0.004 207.777 0.004 213.377 0.644 219.017 1.364 224.577 1.774 227.485 4.229 229.668 7.164 229.737L8.084 229.737C11.372 229.322 13.701 226.32 13.286 223.033Z" class="MsftOfcThm_Accent1_Fill_v2" fill="#2D0F64"/></g></g><g><g><path d="M172.464 22.876C172.144 19.562 169.198 17.136 165.884 17.456 160.324 18.016 154.724 18.816 149.204 19.896 145.89 20.205 143.455 23.142 143.764 26.456 144.073 29.77 147.01 32.205 150.324 31.896L150.284 31.736 151.444 31.736C156.604 30.736 161.844 29.976 167.044 29.456 170.358 29.136 172.784 26.19 172.464 22.876Z" class="MsftOfcThm_Accent1_Fill_v2" fill="#2D0F64"/></g></g><g><g><path d="M53.724 79.096C51.228 76.887 47.413 77.12 45.204 79.616 41.524 83.816 38.004 88.256 34.724 92.816 32.78 95.499 33.379 99.251 36.063 101.195 37.082 101.933 38.306 102.332 39.564 102.336L39.564 102.416C41.495 102.423 43.311 101.5 44.444 99.936 47.524 95.696 50.804 91.536 54.244 87.616 56.453 85.12 56.22 81.306 53.724 79.096Z" class="MsftOfcThm_Accent1_Fill_v2" fill="#2D0F64"/></g></g><g><g><path d="M212.004 18.456C206.484 17.616 200.844 17.016 195.244 16.696 191.93 16.497 189.083 19.022 188.884 22.336 188.685 25.65 191.21 28.497 194.524 28.696 199.804 29.096 205.044 29.656 210.204 30.456L211.124 30.456C214.438 30.699 217.321 28.21 217.564 24.896 217.807 21.583 215.318 18.699 212.004 18.456Z" class="MsftOfcThm_Accent1_Fill_v2" fill="#2D0F64"/></g></g><g><g><path d="M87.799 50.507C85.922 47.958 82.388 47.305 79.724 49.016 75.124 52.176 70.604 55.616 66.284 59.176 63.732 61.297 63.383 65.084 65.504 67.636 67.625 70.188 71.412 70.537 73.964 68.416 77.964 65.056 82.204 61.856 86.524 58.896 89.193 56.932 89.763 53.176 87.799 50.507Z" class="MsftOfcThm_Accent1_Fill_v2" fill="#2D0F64"/></g></g><g><g><g><path d="M107.924 45.656C107.904 45.656 107.885 45.652 107.865 45.652 107.844 45.652 107.824 45.656 107.804 45.656L107.924 45.656Z" class="MsftOfcThm_Accent1_Fill_v2" fill="#2D0F64"/><path d="M129.081 31.602C128.204 28.407 124.902 26.527 121.706 27.405 121.425 27.482 121.15 27.58 120.883 27.697 115.643 29.617 110.403 31.697 105.363 34.217 102.358 35.615 101.056 39.184 102.454 42.188 103.434 44.295 105.544 45.641 107.864 45.653 108.73 45.636 109.583 45.435 110.363 45.057 115.083 42.817 119.963 40.777 124.883 38.977 128.08 38.099 129.959 34.797 129.081 31.602Z" class="MsftOfcThm_Accent1_Fill_v2" fill="#2D0F64"/></g></g></g><g><g><path d="M201.624 378.676C201.414 375.362 198.558 372.846 195.244 373.056 190.004 373.456 184.724 373.576 179.484 373.416 176.17 373.328 173.412 375.942 173.324 379.256 173.236 382.57 175.85 385.328 179.164 385.416L184.244 385.416C188.244 385.416 192.244 385.416 196.004 385.056 199.318 384.847 201.834 381.99 201.624 378.676Z" class="MsftOfcThm_Accent1_Fill_v2" fill="#2D0F64"/></g></g><g><g><path d="M358.664 239.676C355.45 238.859 352.181 240.802 351.364 244.016 350.084 249.096 348.524 254.136 346.764 259.056 345.721 262.146 347.337 265.504 350.404 266.616 353.523 267.735 356.959 266.113 358.078 262.994 358.08 262.988 358.082 262.982 358.084 262.976 359.964 257.696 361.604 252.296 363.004 246.976 363.822 243.762 361.878 240.494 358.664 239.676Z" class="MsftOfcThm_Accent1_Fill_v2" fill="#2D0F64"/></g></g><g><g><path d="M366.324 170.976C365.404 165.456 364.244 159.896 362.844 154.496 361.886 151.324 358.537 149.529 355.365 150.488 352.358 151.396 350.561 154.47 351.244 157.536 352.564 162.576 353.644 167.776 354.524 172.936 355.041 175.763 357.49 177.826 360.364 177.856L361.364 177.856C364.633 177.325 366.853 174.246 366.324 170.976Z" class="MsftOfcThm_Accent1_Fill_v2" fill="#2D0F64"/></g></g><g><g><path d="M391.825 102.109C391.543 101.496 391.157 100.937 390.684 100.457L380.084 89.417C378.566 87.901 376.335 87.347 374.284 87.977L355.164 93.777 332.764 70.017 383.044 42.017C385.974 40.668 387.255 37.199 385.905 34.27 385.623 33.657 385.237 33.098 384.764 32.618L370.644 18.498C369.105 17.019 366.881 16.497 364.844 17.138L301.124 36.418 279.684 13.658C274.22 7.34 265.325 5.229 257.604 8.418L257.244 8.418C251.423 10.814 246.8 15.437 244.404 21.258 243.8 22.778 243.371 24.361 243.124 25.978L240.684 25.138C237.525 24.122 234.14 25.859 233.124 29.018 232.108 32.177 233.845 35.562 237.004 36.578 240.084 37.578 243.164 38.698 246.244 39.858 247.171 41.308 248.258 42.65 249.484 43.858L272.084 65.298 265.604 86.698C202.226 41.489 114.199 56.218 68.99 119.596 23.781 182.974 38.51 271 101.888 316.209 165.266 361.418 253.293 346.689 298.502 283.311 334.554 232.77 333.296 164.593 295.404 115.417L305.644 96.937 329.404 119.337 323.684 138.257C322.995 140.336 323.537 142.626 325.084 144.177 325.084 144.177 336.804 155.777 337.084 156.177 339.855 157.783 343.404 156.839 345.011 154.068 345.036 154.025 345.061 153.981 345.084 153.937L360.724 125.257 388.964 109.857C391.894 108.507 393.175 105.038 391.825 102.109ZM93.164 110.016C117.279 85.912 149.988 72.385 184.084 72.416 186.751 72.416 189.417 72.496 192.084 72.656 214.764 93.576 208.084 112.656 192.884 129.856 183.914 139.369 174.291 148.244 164.084 156.416 149.324 168.976 135.564 180.696 130.364 192.416 124.204 206.336 128.724 218.936 153.604 229.936 166.044 235.456 172.804 239.736 175.444 242.976 175.483 243.023 175.521 243.056 175.56 243.085 175.478 243.11 175.395 243.137 175.284 243.176 169.26 245.47 162.848 246.57 156.404 246.416 126.244 247.696 104.764 228.416 88.084 213.496 76.084 202.816 66.124 193.936 55.764 193.856 57.476 162.257 70.795 132.401 93.164 110.016ZM313.124 201.136 313.164 201.136C313.146 256.886 277.307 306.312 224.324 323.656 222.836 314.281 224.57 304.678 229.244 296.416 235.582 286.237 243.714 277.293 253.244 270.016 290.164 239.216 292.244 222.016 293.844 208.776 294.844 200.416 295.604 194.176 312.124 185.096 312.787 190.417 313.121 195.774 313.124 201.136ZM305.684 157.856C307.472 162.892 308.941 168.036 310.084 173.256 284.924 186.056 283.804 195.176 282.284 207.616 280.924 218.816 279.164 233.456 245.804 261.296 235.119 269.471 226.034 279.546 219.004 291.016 212.875 301.85 210.751 314.494 213.004 326.736 143.615 342.598 74.506 299.206 58.644 229.818 56.83 221.882 55.772 213.792 55.484 205.656 61.844 205.656 70.084 213.216 80.204 222.216 98.524 238.576 121.964 259.456 156.884 258.216 165.112 258.358 173.281 256.806 180.884 253.656 184.089 252.239 186.515 249.492 187.524 246.136 188.376 242.393 187.295 238.472 184.644 235.696 180.884 231.096 172.644 225.656 158.484 219.336 141.564 211.856 137.884 204.576 141.204 197.136 145.204 187.776 158.084 177.136 171.764 165.136 182.424 156.521 192.462 147.165 201.804 137.136 218.524 118.096 227.124 97.336 210.124 74.616 229.017 78.478 246.793 86.56 262.124 98.256L252.924 128.616C252.245 130.696 252.785 132.981 254.324 134.536 254.324 134.536 269.244 149.336 269.724 149.616 272.495 151.222 276.044 150.278 277.651 147.507 277.676 147.464 277.7 147.42 277.724 147.376L289.364 126.336C296.235 136.038 301.727 146.646 305.684 157.856ZM359.324 113.176 354.164 115.736C353.009 116.309 352.079 117.252 351.524 118.416L348.964 123.616 339.004 141.616 336.084 138.416 341.884 119.256C342.56 117.011 341.818 114.581 340.004 113.096L308.444 83.376C306.159 81.131 302.487 81.164 300.242 83.449 300.188 83.504 300.136 83.559 300.084 83.616 299.684 84.056 271.284 135.216 271.284 135.216L265.084 129.016 284.444 65.216C285.138 62.959 284.394 60.507 282.564 59.016L257.444 35.376C254.664 33.021 253.74 29.13 255.164 25.776 256.44 22.87 258.77 20.555 261.684 19.296L261.884 19.296C265.197 18.017 268.956 18.981 271.244 21.696L295.244 47.056C296.751 48.674 299.047 49.295 301.164 48.656L365.164 29.336 371.364 35.536 320.564 63.456C317.752 64.99 316.716 68.514 318.251 71.325 318.275 71.369 318.299 71.412 318.324 71.456 318.564 71.896 349.164 104.456 349.164 104.456 350.68 106.06 352.975 106.665 355.084 106.016L374.324 100.216 377.324 103.216 359.324 113.176Z" class="MsftOfcThm_Accent1_Fill_v2" fill="#2D0F64"/></g></g><g><g><path d="M343.87 281.844C343.783 281.793 343.694 281.743 343.604 281.697 340.737 280.198 337.198 281.242 335.604 284.057 333.084 288.657 330.324 293.177 327.364 297.497 325.453 300.214 326.107 303.966 328.824 305.877 331.541 307.788 335.293 307.134 337.204 304.417 340.324 299.777 343.284 294.937 346.004 290.057 347.683 287.199 346.727 283.522 343.87 281.844Z" class="MsftOfcThm_Accent1_Fill_v2" fill="#2D0F64"/></g></g><g><g><path d="M362.844 194.256C359.531 194.211 356.808 196.86 356.762 200.173 356.761 200.254 356.761 200.335 356.764 200.416L356.764 201.096C356.764 206.336 356.524 211.616 356.044 216.856 355.744 220.156 358.175 223.075 361.475 223.375 361.478 223.375 361.481 223.376 361.484 223.376L362.044 223.376C365.209 223.406 367.852 220.972 368.084 217.816 368.604 212.256 368.844 206.616 368.844 201.016L368.844 200.216C368.822 196.918 366.142 194.256 362.844 194.256Z" class="MsftOfcThm_Accent1_Fill_v2" fill="#2D0F64"/></g></g><g><g><path d="M152.164 370.416C146.964 369.536 141.804 368.416 136.804 366.896 133.678 365.797 130.253 367.44 129.153 370.566 128.053 373.692 129.697 377.117 132.823 378.217 133.052 378.298 133.287 378.364 133.524 378.417 138.884 379.937 144.404 381.257 149.924 382.417L151.044 382.417C154.358 382.726 157.295 380.291 157.604 376.977 157.913 373.663 155.478 370.726 152.164 370.416Z" class="MsftOfcThm_Accent1_Fill_v2" fill="#2D0F64"/></g></g><g><g><path d="M245.001 368.593C243.916 365.647 240.743 364.035 237.724 364.897L237.724 365.057C232.764 366.697 227.644 368.097 222.564 369.057 219.328 369.786 217.295 373.001 218.024 376.237 218.753 379.473 221.968 381.506 225.204 380.777 230.644 379.537 236.124 378.017 241.444 376.297 244.554 375.151 246.146 371.702 245.001 368.593Z" class="MsftOfcThm_Accent1_Fill_v2" fill="#2D0F64"/></g></g><g><g><path d="M111.004 357.336C106.244 354.976 101.564 352.416 97.044 349.856 94.183 348.177 90.503 349.135 88.824 351.996 87.145 354.857 88.103 358.537 90.964 360.216 95.804 363.056 100.804 365.696 105.884 368.216 108.888 369.63 112.47 368.34 113.884 365.336 115.298 362.332 114.009 358.75 111.004 357.336Z" class="MsftOfcThm_Accent1_Fill_v2" fill="#2D0F64"/></g></g><g><g><path d="M318.379 318.74C315.975 316.545 312.258 316.667 310.004 319.017L310.044 319.017C306.444 323.017 302.644 326.537 298.764 330.017 296.29 332.226 296.075 336.023 298.284 338.497 300.493 340.971 304.29 341.186 306.764 338.977 310.764 335.257 315.004 331.297 318.764 327.217 320.999 324.769 320.826 320.974 318.379 318.74Z" class="MsftOfcThm_Accent1_Fill_v2" fill="#2D0F64"/></g></g><g><g><path d="M285.275 348.668C283.575 345.824 279.891 344.897 277.046 346.597 276.95 346.654 276.856 346.714 276.764 346.777L276.764 346.617C272.364 349.417 267.764 352.057 263.124 354.617 260.175 356.13 259.011 359.748 260.524 362.697 262.037 365.646 265.655 366.81 268.604 365.297 273.564 362.737 278.484 359.897 283.204 356.897 286.048 355.196 286.976 351.512 285.275 348.668Z" class="MsftOfcThm_Accent1_Fill_v2" fill="#2D0F64"/></g></g><g></g><g></g><g></g><g></g><g></g><g></g><g></g><g></g><g></g><g></g><g></g><g></g><g></g><g></g><g></g></svg>