<svg width="512" height="512" viewBox="0 0 512 512" xmlns="http://www.w3.org/2000/svg" xmlns:xlink="http://www.w3.org/1999/xlink" overflow="hidden"><style>
.MsftOfcThm_Accent1_Fill_v2 {
 fill:#2D0F64; 
}
</style>
<g><path d="M476 48 36 48C20.5431 48.0171 8.01709 60.5431 8 76L8 372C8.01709 387.457 20.5431 399.983 36 400L198.24 400 193.44 424 160 424C155.582 424 152 427.582 152 432L152 456C152 460.418 155.582 464 160 464L352 464C356.418 464 360 460.418 360 456L360 432C360 427.582 356.418 424 352 424L318.56 424 313.76 400 476 400C491.457 399.983 503.983 387.457 504 372L504 76C503.983 60.5431 491.457 48.0171 476 48ZM344 440 344 448 168 448 168 440ZM209.76 424 214.56 400 297.44 400 302.24 424ZM488 372C487.994 378.625 482.625 383.994 476 384L36 384C29.3749 383.994 24.0055 378.625 24 372L24 352 488 352ZM488 336 24 336 24 76C24.0055 69.3749 29.3749 64.0055 36 64L476 64C482.625 64.0055 487.994 69.3749 488 76Z" class="MsftOfcThm_Accent1_Fill_v2" fill="#2D0F64"/><path d="M264 360 248 360C243.582 360 240 363.582 240 368 240 372.418 243.582 376 248 376L264 376C268.418 376 272 372.418 272 368 272 363.582 268.418 360 264 360Z" class="MsftOfcThm_Accent1_Fill_v2" fill="#2D0F64"/></g></svg>