<svg width="609.9" height="194.8" viewBox="0 0 609.9 194.8" xmlns="http://www.w3.org/2000/svg" xmlns:xlink="http://www.w3.org/1999/xlink" overflow="visible"><defs></defs><path d="M117 3.9C115.8 0.6 114.1 0 111 0 99.7 0.2 88.3 0.3 76.9 0 73.4-0.1 71.7 1 70.5 4.3 65.9 16.9 61 29.3 56.2 41.8 37.8 89.8 19.3 137.9 0.8 185.9-0.6 189.5-0.8 191 3.9 190.8 14.1 190.5 24.2 190.6 34.4 190.8 37.3 190.8 39 190.2 40.1 187.2 44.1 175.4 48.7 163.7 52.7 151.8 53.9 148.2 55.7 147.2 59.4 147.3 70.4 147.5 81.5 147.4 92.5 147.4 104.2 147.4 115.9 147.5 127.7 147.3 130.8 147.2 132.2 148.3 133.2 151.2 137.3 163 141.8 174.7 145.8 186.6 146.9 189.9 148.5 191 152.1 190.9 162.3 190.6 172.4 190.8 182.6 190.8 188.2 190.8 188.2 190.8 186.1 185.4 163.1 124.8 140 64.4 117 3.9ZM67.1 112.9C75.6 89.6 84.1 66.5 93.1 42 102 66.4 110.5 89.5 119.1 112.9 101.5 112.9 84.6 112.9 67.1 112.9Z" fill="#2E2767"/><path d="M479 176.4C478.9 152.3 478.9 128.2 478.8 104.1 478.7 81.2 467 64.3 446.3 57.9 432.1 53.4 417.4 52.7 403 56.6 383.3 61.9 369.7 73.8 364.8 94.4 364.1 97.3 364.7 98.4 367.6 98.9 375.9 100.5 384.2 102.1 392.3 104.1 395.5 104.9 396.3 104 397 101.1 398.8 93.1 403.7 87.6 411.5 85 420.4 82 429.3 82.4 437.2 87.9 442.1 91.3 444.3 96.3 443.2 102.3 442.1 108 437.4 108.9 432.7 109.7 431.3 109.9 430 110.1 428.6 110.3 416.4 112.5 403.9 113.1 392 116.5 372.7 122 361.7 135.8 361.4 154.4 361.2 171.5 372.8 186.8 391.2 192 412 197.9 430.7 194.1 445.6 176.4 446 180.6 446.5 184.2 446.8 187.8 446.9 189.9 447.6 190.9 449.9 190.8 459 190.7 468.2 190.7 477.3 190.8 479.6 190.8 480.3 190.1 480.1 187.8 479.6 184 479 180.2 479 176.4ZM443.6 137.3C443.4 157.8 431 169.6 411.8 167.3 403.8 166.4 398.8 161.5 397.8 153.9 396.9 146.7 400.8 140.1 408.3 137.5 416.3 134.8 424.9 134.7 433.1 133 434.6 132.7 436.2 132.5 437.7 132.3 443.6 131.2 443.6 131.2 443.6 137.3Z" fill="#2E2767"/><path d="M574.6 111.4C566.4 109.3 558.1 107.9 549.9 106 543.7 104.5 540.2 100.7 539.8 95.7 539.4 90.3 542.4 85.9 548.2 83.4 559.9 78.3 573.2 84 577.1 96 578.1 99 579.4 99.3 581.9 98.7 589.6 96.9 597.3 95.2 605 93.5 607.5 93 608.3 92.1 607.6 89.3 606 82.8 603.4 77 599.1 71.9 588.2 58.8 573.5 54.7 557.2 54.4 544.7 54.1 533.3 57.3 523.3 64.8 505 78.5 500.8 104.1 514.3 121 521.5 130 531.6 134.3 542.5 137 550.8 139.1 559.4 140.1 567.4 143.3 572 145.1 575.1 148.5 575.1 153.8 575.1 159.2 572.3 162.8 567.5 165 556.5 169.9 537.5 165.8 534.5 150 534 147.2 532.6 146.8 530.2 147.4 522.1 149.2 514.1 151 506 152.7 503.4 153.2 502.9 154.4 503.5 157 505.4 166.1 509.8 173.7 516.5 180 535 197.7 572.3 199.8 592.8 184.4 609.4 172 614.7 149.2 604.7 131.9 598.2 120.5 587.2 114.6 574.6 111.4Z" fill="#2E2767"/><path d="M328.2 0C319.3 0.3 310.3 0.3 301.3 0 297.2-0.2 296.5 1.3 296.6 5 296.7 35.3 296.7 65.5 296.7 95.8 296.7 125.9 296.8 156 296.6 186.1 296.6 189.6 297.3 190.9 301.1 190.8 310.2 190.5 319.4 190.5 328.5 190.8 332.1 190.9 332.8 189.6 332.8 186.4 332.7 125.9 332.7 65.3 332.8 4.8 332.7 1.2 331.9-0.1 328.2 0Z" fill="#2E2767"/><path d="M206.5 123.5C209.7 127 217.2 124.1 221.8 124.6 227.7 124.6 232.5 124.4 237.3 124.7 240.3 124.9 241 123.7 241 120.9 240.8 112.1 241.1 103.3 240.9 94.6 240.8 90.8 241.6 89.3 245.8 89.4 254.7 89.8 263.7 89.4 272.7 89.6 275.4 89.6 276.2 88.8 276.2 86.1 276.1 76.6 276 67.2 276.2 57.7 276.2 55 275.4 54.2 272.7 54.3 264.1 54.5 255.5 54.1 246.8 54.5 242.3 54.7 240.5 53.8 240.8 48.8 241.3 40.2 240.8 31.6 241 23 241.1 20.1 240.3 19.2 237.3 19.2 228 19.4 218.7 19.4 209.4 19.2 206 19.1 205.5 20.4 205.5 23.3 205.7 32.2 205.4 41.2 205.6 50.1 205.7 53.6 204.6 54.5 201.2 54.4 192.1 54.2 182.9 54.4 173.8 54.3 171.2 54.3 170.2 54.9 170.3 57.7 170.5 67 170.5 76.3 170.3 85.6 170.2 88.8 171.2 89.7 174.4 89.6 183.5 89.4 192.7 89.6 201.8 89.5 204.7 89.5 205.8 90.2 205.6 93.2 205.4 98 205.5 102.8 205.6 107.7 205.7 113 203.8 120.4 206.5 123.5Z" fill="#2E2767"/><path d="M272.6 155.5C267.4 155.7 262.3 155.7 257.1 155.5 246.7 155.1 242 151 241.1 141.2 240.8 138.3 239.8 137.9 237.4 138 232.7 138.1 228.1 138 223.4 138 218.6 138 213.7 138.1 208.9 138 206.7 137.9 205.6 138.3 205.4 141 203.9 164.4 219.9 185.5 243 190 253.2 192 263.6 190.5 273.9 190.9 276.5 191 276 189.2 276 187.8 276 178.2 275.9 168.5 276.1 158.9 276.3 155.9 275.2 155.4 272.6 155.5Z" fill="#2E2767"/></svg>