<svg width="512" height="512" viewBox="0 0 64 64" xmlns="http://www.w3.org/2000/svg" xmlns:xlink="http://www.w3.org/1999/xlink" id="Layer_1" overflow="hidden"><style>
.MsftOfcThm_Accent1_Fill_v2 {
 fill:#2D0F64; 
}
</style>
<rect x="29" y="9" width="2" height="2" class="MsftOfcThm_Accent1_Fill_v2" fill="#2D0F64"/><rect x="33" y="9" width="2" height="2" class="MsftOfcThm_Accent1_Fill_v2" fill="#2D0F64"/><path d="M10 49C8.34315 49 7 50.3431 7 52 7 53.6569 8.34315 55 10 55 11.6569 55 13 53.6569 13 52 13 50.3431 11.6569 49 10 49ZM10 53C9.44771 53 9 52.5523 9 52 9 51.4477 9.44771 51 10 51 10.5523 51 11 51.4477 11 52 11 52.5523 10.5523 53 10 53Z" class="MsftOfcThm_Accent1_Fill_v2" fill="#2D0F64"/><path d="M32 49C30.3431 49 29 50.3431 29 52 29 53.6569 30.3431 55 32 55 33.6569 55 35 53.6569 35 52 35 50.3431 33.6569 49 32 49ZM32 53C31.4477 53 31 52.5523 31 52 31 51.4477 31.4477 51 32 51 32.5523 51 33 51.4477 33 52 33 52.5523 32.5523 53 32 53Z" class="MsftOfcThm_Accent1_Fill_v2" fill="#2D0F64"/><path d="M54 45C50.4709 45.002 47.2687 47.0665 45.81 50.28L44.35 45.89C49.262 45.1293 52.6273 40.5306 51.8666 35.6186 51.2027 31.3321 47.5757 28.1289 43.24 28L36.62 25 47 25 47 23 43 23 43 13.85C43.001 13.4594 42.7745 13.104 42.42 12.94L39 11.36 39 6C39 5.44772 38.5523 5 38 5L36 5 36 2C36 1.44772 35.5523 1 35 1L29 1C28.4477 1 28 1.44772 28 2L28 5 26 5C25.4477 5 25 5.44772 25 6L25 11.36 21.58 12.94C21.2255 13.104 20.999 13.4594 21 13.85L21 23 17 23 17 25 27.38 25 20.76 28C15.7926 28.1767 11.9089 32.3468 12.0856 37.3142 12.2383 41.6094 15.4067 45.1972 19.65 45.88L18.19 50.27C16.1387 45.7424 10.8055 43.735 6.27798 45.7863 1.75042 47.8376-0.257008 53.1707 1.79426 57.6983 3.84553 62.2259 9.17873 64.2333 13.7063 62.182 16.8602 60.7531 18.9147 57.6416 18.99 54.18L20.99 48.18 22.99 54.18C22.99 59.1506 27.0194 63.18 31.99 63.18 36.9606 63.18 40.99 59.1506 40.99 54.18L42.99 48.18 44.99 54.18C45.0894 59.1496 49.1986 63.0976 54.1682 62.9982 59.1378 62.8988 63.0858 58.7896 62.9864 53.82 62.8885 48.9251 58.8958 45.0064 54 45ZM39 13.56 41 14.49 41 23 39 23ZM25 23 23 23 23 14.49 25 13.56ZM10 61C8.77444 60.9976 7.57099 60.6734 6.51 60.06 7.57949 58.127 10.0135 57.427 11.9465 58.4965 12.6042 58.8604 13.1461 59.4023 13.51 60.06 12.4431 60.6768 11.2323 61.0011 10 61ZM15.07 58.82C13.2979 56.0199 9.59149 55.1865 6.7914 56.9586 6.0408 57.4336 5.40503 58.0694 4.93 58.82 2.2644 56.0199 2.37342 51.5891 5.1735 48.9235 7.97358 46.2579 12.4044 46.3669 15.07 49.167 17.6433 51.8702 17.6433 56.1168 15.07 58.82ZM50 37C49.9983 38.7947 49.3074 40.5201 48.07 41.82 46.2979 39.0199 42.5915 38.1865 39.7914 39.9586 39.0408 40.4336 38.405 41.0694 37.93 41.82 35.2644 39.0199 35.3734 34.5891 38.1735 31.9235 40.9736 29.2579 45.4044 29.3669 48.07 32.167 49.3105 33.4701 50.0017 35.2008 50 37ZM30 3 34 3 34 5 30 5ZM27 23 27 7 37 7 37 23 35 23 35 16C35 15.4477 34.5523 15 34 15L30 15C29.4477 15 29 15.4477 29 16L29 23ZM33 17 33 23 31 23 31 17ZM15.93 41.82C13.2644 39.0199 13.3734 34.5891 16.1735 31.9235 18.9736 29.2579 23.4044 29.3669 26.07 32.167 28.6433 34.8702 28.6433 39.1168 26.07 41.82 24.2979 39.0199 20.5915 38.1865 17.7914 39.9586 17.0408 40.4336 16.405 41.0694 15.93 41.82ZM17.51 43.06C18.5795 41.127 21.0135 40.427 22.9465 41.4965 23.6042 41.8604 24.1461 42.4023 24.51 43.06 22.347 44.3208 19.673 44.3208 17.51 43.06ZM32 61C30.7744 60.9976 29.571 60.6734 28.51 60.06 29.5795 58.127 32.0135 57.427 33.9465 58.4965 34.6042 58.8604 35.1461 59.4023 35.51 60.06 34.4431 60.6768 33.2323 61.0011 32 61ZM37.07 58.82C35.2979 56.0199 31.5915 55.1865 28.7914 56.9586 28.0408 57.4336 27.405 58.0694 26.93 58.82 24.2644 56.0199 24.3734 51.5891 27.1735 48.9235 29.9736 46.2579 34.4044 46.3669 37.07 49.167 39.6433 51.8702 39.6433 56.1168 37.07 58.82ZM40.19 50.28C38.1292 45.7568 32.7917 43.7606 28.2685 45.8215 26.2933 46.7214 24.7099 48.3048 23.81 50.28L22.35 45.89C27.2617 45.1272 30.625 40.5271 29.8621 35.6154 29.3711 32.4535 27.2381 29.7901 24.26 28.62L32 25.1 39.74 28.62C35.1137 30.4377 32.8369 35.6616 34.6546 40.2879 35.8247 43.266 38.4881 45.3989 41.65 45.89ZM39.51 43.06C40.5795 41.127 43.0135 40.427 44.9465 41.4965 45.6042 41.8604 46.1461 42.4023 46.51 43.06 44.347 44.3208 41.673 44.3208 39.51 43.06ZM54 61C52.7744 60.9976 51.571 60.6734 50.51 60.06 51.5795 58.127 54.0135 57.427 55.9465 58.4965 56.6042 58.8604 57.1461 59.4023 57.51 60.06 56.4431 60.6768 55.2323 61.0011 54 61ZM59.07 58.82C57.2979 56.0199 53.5915 55.1865 50.7914 56.9586 50.0408 57.4336 49.405 58.0694 48.93 58.82 46.2644 56.0199 46.3734 51.5891 49.1735 48.9235 51.9736 46.2579 56.4044 46.3669 59.07 49.167 61.6433 51.8702 61.6433 56.1168 59.07 58.82Z" class="MsftOfcThm_Accent1_Fill_v2" fill="#2D0F64"/><path d="M54 49C52.3431 49 51 50.3431 51 52 51 53.6569 52.3431 55 54 55 55.6569 55 57 53.6569 57 52 57 50.3431 55.6569 49 54 49ZM54 53C53.4477 53 53 52.5523 53 52 53 51.4477 53.4477 51 54 51 54.5523 51 55 51.4477 55 52 55 52.5523 54.5523 53 54 53Z" class="MsftOfcThm_Accent1_Fill_v2" fill="#2D0F64"/><path d="M43 38C44.6569 38 46 36.6569 46 35 46 33.3431 44.6569 32 43 32 41.3431 32 40 33.3431 40 35 40 36.6569 41.3431 38 43 38ZM43 34C43.5523 34 44 34.4477 44 35 44 35.5523 43.5523 36 43 36 42.4477 36 42 35.5523 42 35 42 34.4477 42.4477 34 43 34Z" class="MsftOfcThm_Accent1_Fill_v2" fill="#2D0F64"/><path d="M24 35C24 33.3431 22.6569 32 21 32 19.3431 32 18 33.3431 18 35 18 36.6569 19.3431 38 21 38 22.6569 38 24 36.6569 24 35ZM20 35C20 34.4477 20.4477 34 21 34 21.5523 34 22 34.4477 22 35 22 35.5523 21.5523 36 21 36 20.4477 36 20 35.5523 20 35Z" class="MsftOfcThm_Accent1_Fill_v2" fill="#2D0F64"/></svg>