<svg width="512" height="512" viewBox="0 0 16.9333 16.9333" xmlns="http://www.w3.org/2000/svg" xmlns:xlink="http://www.w3.org/1999/xlink" id="svg8" overflow="hidden"><style>
.MsftOfcThm_Accent1_Fill_v2 {
 fill:#2D0F64; 
}
</style>
<g id="layer2"><path d="M8.46873 6.43e-06C8.42304-0.00030662 8.37794 0.0108087 8.338 0.0330832L1.19367 4.02022C1.00527 4.12537 1.01582 4.39964 1.21127 4.49109L2.91029 5.28604 2.91029 6.08512 2.64676 6.08512C2.50065 6.08512 2.38116 6.20257 2.38116 6.34873L2.38116 8.73046C2.38116 8.87742 2.49984 8.99613 2.64676 8.99613L3.70554 8.99613C3.85165 8.99613 3.96907 8.87661 3.96907 8.73046L3.96907 6.34873C3.96907 6.20338 3.85084 6.08512 3.70554 6.08512L3.43994 6.08512 3.43994 5.53413 5.41488 6.4583C5.48948 6.64419 5.60304 6.83941 5.76213 7.01807L5.76213 7.09149C5.25821 7.1447 4.87334 7.59241 4.87334 8.12678 4.87334 8.68798 5.2947 9.16191 5.85979 9.16775 5.88259 9.16775 5.89959 9.16674 5.92229 9.16475 6.10816 9.67441 6.44698 10.1161 6.87877 10.4295L6.87877 11.0043 6.80077 10.9263C6.75077 10.876 6.68261 10.8479 6.61165 10.8483 6.54246 10.8492 6.47646 10.8773 6.42769 10.9263L5.69445 11.6587C4.39538 11.7701 3.05095 12.6215 2.43389 14.1168 2.39119 14.2362 2.11764 14.8285 2.11764 15.7321L2.11764 16.6677C2.11764 16.8138 2.23506 16.9333 2.38117 16.9333L14.5523 16.9333C14.6984 16.9333 14.8158 16.8138 14.8158 16.6677L14.8158 15.7321C14.8158 15.0016 14.6363 14.4435 14.4871 14.0916 13.9022 12.6807 12.5899 11.7771 11.2395 11.6576L10.5057 10.9263C10.4552 10.8754 10.3862 10.8472 10.3145 10.8482 10.2453 10.8492 10.1794 10.8772 10.1306 10.9263L10.0546 11.0023 10.0546 10.4291C10.4864 10.1157 10.8247 9.67447 11.0105 9.1648 11.0332 9.16681 11.0513 9.1678 11.0741 9.1678 11.6261 9.1678 12.0606 8.6901 12.0606 8.12683 12.0606 7.59969 11.685 7.1478 11.1718 7.09257L11.1728 7.01395C11.3216 6.85144 11.4435 6.64448 11.518 6.45936L15.7221 4.49111C15.9175 4.39963 15.9281 4.12539 15.7397 4.02024L8.59589 0.0331132C8.55709 0.0114388 8.51329 0.0003365 8.46877 3.644e-05ZM8.46673 0.568563 15.0308 4.22956 11.6648 5.80601C11.68 5.56401 11.6531 5.40427 11.6426 5.346L11.6426 3.80727C11.6426 3.68348 11.5839 3.57546 11.5155 3.4987 11.447 3.42195 11.3664 3.36669 11.2752 3.31728 11.0927 3.21846 10.8632 3.14387 10.5859 3.08055 10.0313 2.95393 9.28909 2.87949 8.46675 2.87949 7.64442 2.87949 6.90225 2.95393 6.34764 3.08055 6.07034 3.14387 5.84079 3.21846 5.65832 3.31728 5.56713 3.36669 5.4865 3.42194 5.41804 3.4987 5.34964 3.57546 5.29153 3.68348 5.29145 3.80727L5.29044 5.34186C5.27984 5.40011 5.25494 5.56399 5.26974 5.80601L3.44001 4.94956 3.44001 3.37207ZM10.4665 3.59639C10.7152 3.65317 10.9122 3.72168 11.0235 3.78195 11.0746 3.80961 11.1017 3.83274 11.1134 3.84449L11.1134 4.79191C10.9718 4.73101 10.798 4.67807 10.5858 4.62962 10.0312 4.50299 9.28905 4.42855 8.46671 4.42855 7.64438 4.42855 6.90221 4.50299 6.3476 4.62962 6.13539 4.67807 5.94903 4.73458 5.82053 4.78985L5.82053 3.84449C5.83233 3.83274 5.85933 3.80961 5.91043 3.78195 6.0217 3.72168 6.21616 3.65318 6.46488 3.59639 6.96232 3.48282 7.67676 3.40877 8.46671 3.40877 9.25666 3.40877 9.96905 3.48282 10.4665 3.59639ZM2.91033 3.66772 2.91033 4.70146 1.9027 4.22956ZM10.4665 5.14545C10.7152 5.20223 10.9122 5.27281 11.0235 5.33308 11.0583 5.35212 11.1029 5.38121 11.1139 5.39252 11.1159 5.41019 11.1179 5.41848 11.1209 5.4287 11.1269 5.45889 11.244 6.13161 10.7902 6.64593L9.3537 6.64593C8.70997 6.64593 8.16658 6.16687 8.07065 5.54034 8.05107 5.41244 7.94215 5.31715 7.81281 5.3155 7.6665 5.31363 7.54662 5.4312 7.54513 5.57755 7.53918 6.16407 7.06193 6.64593 6.4693 6.64593L6.14118 6.64593C5.67275 6.09544 5.81462 5.43339 5.81668 5.39768 5.82717 5.38667 5.85757 5.36184 5.91067 5.33308 6.02194 5.27282 6.21227 5.20431 6.46098 5.14752 6.95842 5.03396 7.67701 4.95783 8.46683 4.95783 9.25666 4.95783 9.96905 5.03188 10.4665 5.14545ZM7.85079 6.38232C8.12783 6.79912 8.66345 7.17521 9.35345 7.17521L10.6427 7.17521 10.6427 8.23788C10.6427 9.43793 9.67728 10.4103 8.46673 10.4103 7.25619 10.4103 6.29129 9.43697 6.29129 8.23788L6.29129 7.17521 6.46905 7.17521C7.12639 7.17521 7.61925 6.78617 7.85079 6.38232ZM2.91033 6.6144 3.43998 6.6144 3.43998 8.46634 2.91033 8.46634ZM5.76217 7.62901 5.76217 8.23788C5.76217 8.37181 5.77117 8.50358 5.78957 8.63226 5.58677 8.59915 5.40253 8.39465 5.40253 8.12676 5.40253 7.88025 5.56245 7.67436 5.76218 7.62901ZM11.1718 7.62901C11.3655 7.67572 11.5309 7.87198 11.5309 8.12676 11.5309 8.39465 11.3517 8.59723 11.1434 8.63122 11.1623 8.50254 11.1718 8.37181 11.1718 8.23788ZM7.40847 10.7251C7.73362 10.8631 8.09104 10.938 8.46673 10.938 8.84244 10.938 9.20037 10.8642 9.52552 10.7261L9.52552 11.5314 8.46673 12.5905 7.40847 11.5324ZM6.61322 11.4869 8.09366 12.9636 7.67408 13.3838 6.1957 11.9046ZM10.3182 11.4869 10.7383 11.9066 9.26198 13.3854 8.83982 12.9636ZM11.2049 12.1873C12.3297 12.2964 13.3791 13.0015 13.925 14.1276 14.2444 14.793 14.2867 15.3935 14.2867 15.732L14.2867 16.4039 12.4352 16.4039 12.4352 15.6105C12.4352 15.4607 12.3158 15.3427 12.166 15.3454 12.0199 15.3484 11.9061 15.4643 11.9061 15.6105L11.9061 16.4039 5.0279 16.4039 5.0279 15.6105C5.0279 15.4605 4.90812 15.3426 4.75815 15.3454 4.61204 15.3484 4.49824 15.4643 4.49824 15.6105L4.49824 16.4039 2.6468 16.4039 2.6468 15.732C2.6468 15.2363 2.74119 14.7698 2.91412 14.343 3.37983 13.1831 4.44882 12.3114 5.72909 12.1883L7.4865 13.9441C7.5897 14.0468 7.75637 14.0468 7.85957 13.9441L8.46673 13.3384 9.07442 13.9441C9.17762 14.0468 9.34429 14.0468 9.44749 13.9441Z" id="path2610" class="MsftOfcThm_Accent1_Fill_v2" stroke-width="0.229734" fill="#2D0F64"/></g></svg>