<svg width="384" height="382.61" viewBox="0 0 384 382.61" xmlns="http://www.w3.org/2000/svg" xmlns:xlink="http://www.w3.org/1999/xlink" xml:space="preserve" overflow="visible"><style>
.MsftOfcThm_Accent1_Fill_v2 {
 fill:#2D0F64; 
}
</style>
<defs></defs><path d="M0 354.87C1.5 346.53 3.03 338.2 4.48 329.85 5.97 321.24 7.21 312.58 8.86 304.01 12.16 286.87 22.22 275.31 38.55 269.36 70.9 257.58 103.28 245.89 135.7 234.3 138.36 233.35 139.18 232.18 139.42 229.34 140.01 222.44 138.02 217.56 132.63 212.59 119.47 200.44 113.37 184.2 110.42 166.93 108.87 157.87 108.77 148.56 108.14 139.35 107.74 133.57 105.95 128.27 102.4 123.77 95.74 115.33 93.04 105.77 93.25 95.15 93.49 83.03 92.97 70.88 93.73 58.8 95.74 26.88 123.46 0.6 155.51 0.24 184.88-0.09 214.25-0.07 243.62 0.27 254.89 0.4 268.41 8.28 267.32 24.23 267.25 25.23 268.16 26.78 269.05 27.28 283.8 35.54 291.11 48.04 290.99 64.97 290.9 78.22 291.3 91.48 290.8 104.71 290.61 109.66 289.5 115.08 287.11 119.34 280.08 131.88 276.26 145.19 274.44 159.36 272.17 176.94 266.71 193.43 255.32 207.44 253.2 210.05 250.97 212.72 248.29 214.67 245.25 216.88 244.57 219.45 244.63 222.95 244.82 232.97 244.7 232.95 253.95 236.28 283.99 247.11 313.99 258.04 344.07 268.76 364.08 275.89 373.84 290.5 376.51 311.02 378.35 325.12 381.02 339.12 383.34 353.16 383.44 353.76 383.77 354.31 383.99 354.89 383.99 357.64 383.99 360.39 383.99 363.14 377.24 379.24 372.06 382.61 354.1 382.61 245.15 382.61 136.2 382.61 27.25 382.61 25.88 382.61 24.5 382.67 23.13 382.59 13.12 381.96 5.98 377.1 1.82 367.95 1.11 366.39 0.59 364.75-0.02 363.14 0 360.37 0 357.62 0 354.87ZM121.5 125.68C121.49 125.68 121.48 125.68 121.48 125.68 121.48 132.68 121.08 139.7 121.58 146.67 122.17 154.85 122.85 163.14 124.7 171.1 127.88 184.81 133.62 197.49 145 206.5 152.72 212.6 160.9 218.15 169.13 223.57 186.56 235.06 203.46 232.32 218.88 221.2 224.24 217.33 229.09 212.75 234.52 208.99 240.5 204.85 245.39 199.81 249.2 193.71 257.81 179.92 261.92 164.67 262.41 148.6 262.91 132.12 262.53 115.61 262.5 99.12 262.5 97.65 262.34 96.13 261.95 94.71 259.38 85.33 253.27 79.18 244.26 75.89 234.56 72.35 224.82 68.92 215.06 65.56 210.32 63.93 205.59 64.04 200.79 65.75 192.95 68.53 185.19 72.2 177.08 73.39 167.16 74.84 156.9 74.62 146.82 74.21 135 73.73 121.34 86.63 121.49 99.82 121.58 108.43 121.5 117.05 121.5 125.68ZM115.61 296.17C109.94 296.17 104.96 296.34 99.99 296.13 93.96 295.86 91.31 291.38 93.91 285.96 97.04 279.44 100.35 273 103.58 266.53 104.82 264.04 106.05 261.55 107.44 258.74 106.46 258.81 106.08 258.76 105.75 258.88 83.94 266.77 62.03 274.4 40.38 282.68 30 286.64 23.7 294.85 21.73 305.85 18.8 322.18 16.53 338.64 13.36 354.93 11.8 362.93 16.45 369.83 26.16 369.79 74.51 369.58 122.86 369.7 171.2 369.69 172.25 369.69 173.31 369.55 174.36 369.47 174.53 369.18 174.69 368.9 174.86 368.61 173.88 367.88 172.82 367.23 171.92 366.4 152.65 348.78 133.39 331.16 114.14 313.52 110 309.73 109.69 307.72 112.29 302.68 113.26 300.8 114.21 298.92 115.61 296.17ZM268.46 296.23C269.56 298.41 270.31 299.95 271.1 301.47 274.52 308.02 274.31 309.45 268.92 314.39 250.04 331.69 231.13 348.97 212.24 366.27 211.29 367.14 210.35 368.03 208.59 369.68 210.95 369.68 212.15 369.68 213.35 369.68 261.33 369.68 309.31 369.68 357.29 369.68 358.41 369.68 359.55 369.72 360.66 369.61 367.68 368.92 371.85 363.59 370.73 356.6 368.13 340.46 365.47 324.33 362.82 308.19 360.62 294.8 353.21 285.83 340.33 281.26 322.59 274.95 304.92 268.43 287.21 262.01 283.86 260.8 280.49 259.66 276.32 258.21 280.82 267.27 284.51 275.74 289.12 283.67 292.89 290.16 291.14 296.85 281.23 296.27 277.18 296.03 273.1 296.23 268.46 296.23ZM275.86 111.58C276.24 111.62 276.61 111.66 276.99 111.69 277.34 108.94 277.96 106.19 277.98 103.44 278.08 89.7 278.07 75.95 277.98 62.21 277.96 60 277.58 57.72 276.91 55.62 273.93 46.32 267.92 40 258.38 37.17 253.39 35.69 251.64 32.72 253.27 28.16 256.99 17.7 250.5 13.27 242.21 13.18 213.73 12.89 185.23 12.74 156.76 13.21 130.86 13.64 110.02 31.68 107.06 57.37 105.34 72.29 106.65 87.55 106.65 102.66 106.65 103.71 107.15 104.76 107.42 105.81 107.77 105.75 108.11 105.68 108.46 105.62 108.46 102.02 108 98.35 108.54 94.83 111.48 75.35 128.49 60.48 148.15 61.05 165.3 61.55 181.9 60.46 197.7 52.89 203.44 50.14 210.02 50.12 216.05 52.09 228.34 56.1 240.8 59.88 252.54 65.19 267.79 72.09 275.86 84.54 275.87 101.67 275.87 104.97 275.86 108.27 275.86 111.58ZM253.78 250.03C249.5 248.47 245.71 246.88 241.77 245.77 240.35 245.37 238.29 245.64 237.06 246.43 228.98 251.61 221.04 257.01 213.06 262.35 209.26 264.9 205.47 267.47 201.48 270.16 209.39 280.92 217.09 291.39 225.07 302.24 234.79 284.56 244.16 267.53 253.78 250.03ZM182.48 270.03C170.22 261.84 158.3 253.86 146.35 245.95 145.61 245.46 144.41 245.05 143.65 245.3 139.21 246.75 134.83 248.4 130.22 250.06 139.87 267.6 149.28 284.69 158.97 302.28 166.99 291.27 174.6 280.83 182.48 270.03ZM274.39 283.56C270.32 275.4 266.73 268.18 262.87 260.45 247.53 288.35 232.54 315.62 217.55 342.89 217.74 343.03 217.93 343.16 218.11 343.3 231.69 330.87 245.27 318.44 258.82 306.04 256.72 302.04 254.78 298.4 252.9 294.74 249.48 288.11 252.09 283.67 259.48 283.57 264.17 283.51 268.86 283.56 274.39 283.56ZM165.87 343.25C166.03 343.06 166.19 342.88 166.35 342.69 151.36 315.43 136.37 288.18 121.11 260.43 117.22 268.27 113.62 275.53 109.64 283.56 115.52 283.56 120.38 283.49 125.24 283.58 131.65 283.7 134.32 288.23 131.44 294.02 129.45 298.01 127.34 301.94 125.21 306.05 138.86 318.54 152.37 330.89 165.87 343.25ZM192 362.3C194.87 357.1 197.46 352.6 199.83 347.98 200.34 346.99 200.2 345.54 200.02 344.36 197.95 331.19 195.7 318.05 193.79 304.85 193.44 302.44 193.99 299.68 194.89 297.38 195.94 294.69 199.12 292.25 199 289.82 198.87 287.3 195.9 284.93 194.15 282.5 193.58 281.71 192.94 280.98 192.05 279.86 189.41 283.43 186.93 286.77 184.46 290.11 185.16 291.16 185.6 292.09 186.27 292.8 190.49 297.28 191.15 302.28 189.97 308.31 187.62 320.29 186 332.4 184.18 344.48 183.97 345.86 184.01 347.54 184.61 348.74 186.77 353.09 189.23 357.29 192 362.3ZM152.74 228.43C151.62 232.17 152.4 234.21 155.33 236.1 166.74 243.46 178 251.07 189.22 258.71 191.25 260.09 192.63 260.23 194.76 258.78 206.07 251.03 217.5 243.47 228.9 235.85 232.29 233.58 232.49 232.92 231.1 228.65 205.04 249.4 178.88 249.25 152.74 228.43ZM177.1 301.88C176.68 301.81 176.26 301.74 175.84 301.68 172.97 305.57 170.06 309.43 167.28 313.38 166.78 314.09 166.32 315.39 166.64 316.02 168.61 319.92 170.8 323.7 172.92 327.53 174.62 318.8 177.16 310.49 177.1 301.88ZM208.14 301.66C207.67 301.78 207.21 301.89 206.74 302.01 207.45 310.49 209.15 318.84 210.68 328.31 213.22 323.74 215.26 320.21 217.11 316.59 217.48 315.86 217.52 314.51 217.09 313.89 214.2 309.75 211.14 305.72 208.14 301.66Z" class="MsftOfcThm_Accent1_Fill_v2" stroke-width="8.18149" fill="#2D0F64"/></svg>