<svg width="512" height="512" viewBox="0 0 64 64" xmlns="http://www.w3.org/2000/svg" xmlns:xlink="http://www.w3.org/1999/xlink" overflow="hidden"><style>
.MsftOfcThm_Accent1_Fill_v2 {
 fill:#2D0F64; 
}
</style>
<path d="M9.593 38.923 11.593 38.923 11.593 42.923 9.593 42.923Z" class="MsftOfcThm_Accent1_Fill_v2" fill="#2D0F64" transform="matrix(0.139 -0.99 0.99 0.139 -31.406 45.712)"/><path d="M16.835 53.059 18.835 53.059 18.835 55.059 16.835 55.059Z" class="MsftOfcThm_Accent1_Fill_v2" fill="#2D0F64" transform="matrix(0.139 -0.99 0.99 0.139 -38.18 64.197)"/><path d="M62.087 29.481 61.913 27.489 41.852 29.245C40.4888 29.363 39.3781 30.3885 39.152 31.738L38.242 37.2C38.1205 38.2979 38.912 39.2864 40.0099 39.4079 40.0823 39.4159 40.1551 39.4199 40.228 39.42 40.2868 39.4203 40.3455 39.4176 40.404 39.412L57.12 37.947 58.341 51.894 52.285 52.424C51.4103 48.6634 47.6525 46.3239 43.8919 47.1986 40.8626 47.9033 38.6631 50.5244 38.495 53.63L35.428 53.898C35.1641 53.9224 34.9016 53.8391 34.7 53.667 34.4959 53.4974 34.3681 53.2533 34.345 52.989L34.258 51.989 37.246 51.727 37.071 49.735 34.083 50 33.993 48.972 37.515 46.856C37.9883 46.5714 38.1414 45.957 37.8568 45.4837 37.8148 45.4139 37.7645 45.3496 37.707 45.292L36.414 44 37.707 42.707C38.0969 42.3159 38.096 41.6827 37.7049 41.2928 37.6294 41.2175 37.5423 41.1548 37.447 41.107L34 39.383C34.09 39.03 34.178 38.676 34.293 38.331L38.055 29.2C38.4796 28.1615 39.4501 27.4482 40.568 27.353L61.181 25.553C61.4073 25.5344 61.635 25.5405 61.86 25.571L62.14 23.591C61.7646 23.5389 61.3846 23.5289 61.007 23.561L40.393 25.361C38.5299 25.5202 36.9127 26.7092 36.205 28.44L32.424 37.64C31.9335 39.1112 31.6478 40.6429 31.575 42.192 31.3578 41.6939 31.084 41.2225 30.759 40.787 29.645 39.3008 27.9829 38.3218 26.143 38.068L24.55 37.844 29.873 34.296 31.293 35.716 32.707 34.302 30.707 32.302C30.3699 31.9648 29.8417 31.9125 29.445 32.177L22.265 36.963 15.647 26.282C14.8656 25.0205 13.5636 24.1718 12.094 23.966L2.139 22.566 1.861 24.547 11.815 25.947C12.6972 26.0697 13.479 26.5788 13.948 27.336L14.58 28.355 2.139 26.607 1.861 28.587 6.182 29.195 5.347 35.136 2.139 34.686 1.861 36.666 5.069 37.117 3.12 50.981 2.139 50.843 1.861 52.823 10.842 54.085C10.8563 57.9408 13.9861 61.059 17.842 61.059 20.9504 61.0501 23.6819 58.9959 24.553 56.012L27.602 56.44C27.7421 56.4599 27.8835 56.4699 28.025 56.47 29.5185 56.4671 30.7824 55.366 30.99 53.887L31.87 47.62 32.356 53.163C32.4948 54.7081 33.7867 55.8938 35.338 55.9 35.426 55.9 35.514 55.9 35.602 55.889L38.67 55.62C39.4141 58.7766 42.2269 61.0103 45.47 61.02 45.674 61.02 45.879 61.011 46.085 60.993 49.5512 60.6924 52.2678 57.887 52.457 54.413L62.085 53.57 61.911 51.578 60.331 51.716 59.111 37.769 62.085 37.509 61.911 35.517 58.937 35.785 58.415 29.8ZM30.12 45.687 29.98 46.677 26.02 46.12 26.298 44.14 30.159 44.682C30.1794 45.0175 30.1663 45.3541 30.12 45.687ZM8.163 29.473 15.946 30.567 15.946 30.561 20.067 37.205 7.327 35.415ZM22.787 54.754C22.4029 57.4886 19.8747 59.394 17.1401 59.0099 15.8265 58.8254 14.6401 58.1265 13.842 57.067 12.1802 54.8616 12.6208 51.7266 14.8262 50.0648 15.6905 49.4135 16.7428 49.0602 17.825 49.058 18.0612 49.058 18.2971 49.0743 18.531 49.107 21.2636 49.4947 23.1671 52.0204 22.787 54.754ZM27.877 54.46 24.827 54.031C24.8143 50.1689 21.6732 47.0483 17.8111 47.061 16.3011 47.0659 14.8332 47.5596 13.627 48.468 12.4198 49.3757 11.542 50.6527 11.127 52.105L5.1 51.259 7.049 37.4 21.9 39.483 25.861 40.04C27.4268 40.2213 28.7991 41.1713 29.52 42.573L26.573 42.159C25.4799 42.0051 24.4688 42.766 24.314 43.859L24.036 45.839C23.8815 46.9325 24.6426 47.9442 25.736 48.099L29.697 48.655 29.419 50.636 26.448 50.219 26.17 52.199 29.141 52.617 29.001 53.607C28.925 54.1523 28.4226 54.5335 27.877 54.46ZM35.312 42.274 34.293 43.293C33.9026 43.6835 33.9026 44.3165 34.293 44.707L35.388 45.8 33.799 46.755 33.59 44.367C33.5065 43.3888 33.5182 42.4049 33.625 41.429ZM50.458 53.587C50.6988 56.3379 48.664 58.7632 45.9131 59.004 43.1622 59.2448 40.7369 57.21 40.4961 54.4591 40.2553 51.7082 42.2901 49.2829 45.041 49.0421 45.0413 49.0421 45.0417 49.042 45.042 49.042 45.19 49.029 45.342 49.022 45.486 49.022 48.0754 49.0267 50.2327 51.0075 50.458 53.587ZM56.947 35.967 40.222 37.472 41.127 32.072C41.2024 31.6222 41.5726 31.2803 42.027 31.241L56.427 29.981Z" class="MsftOfcThm_Accent1_Fill_v2" fill="#2D0F64"/><path d="M41.435 41.156 45.435 41.156 45.435 43.156 41.435 43.156Z" class="MsftOfcThm_Accent1_Fill_v2" fill="#2D0F64" transform="matrix(0.996 -0.087 0.087 0.996 -3.509 3.946)"/><path d="M44.477 53.023 46.477 53.023 46.477 55.023 44.477 55.023Z" class="MsftOfcThm_Accent1_Fill_v2" fill="#2D0F64" transform="matrix(0.996 -0.087 0.087 0.996 -4.548 4.182)"/><path d="M18.293 26.707 19.707 25.293 18.414 24 21 24C21.5523 24 22 23.5523 22 23L22 20.414 25.293 23.707C25.6835 24.0974 26.3165 24.0974 26.707 23.707L30 20.414 30 23C30 23.5523 30.4477 24 31 24L34.586 24 32.293 26.293 33.707 27.707 37.707 23.707C38.0975 23.3164 38.0974 22.6833 37.7068 22.2928 37.5193 22.1054 37.2651 22.0001 37 22L32 22 32 18C31.9999 17.4477 31.5521 17.0001 30.9998 17.0002 30.7347 17.0003 30.4805 17.1056 30.293 17.293L26 21.586 21.707 17.293C21.3164 16.9025 20.6833 16.9026 20.2928 17.2932 20.1054 17.4807 20.0001 17.7349 20 18L20 22 16 22C15.4477 22.0001 15.0001 22.4479 15.0002 23.0002 15.0003 23.2653 15.1056 23.5195 15.293 23.707Z" class="MsftOfcThm_Accent1_Fill_v2" fill="#2D0F64"/><path d="M24.3 16 26.3 16C26.3009 15.6086 26.4703 15.2366 26.765 14.979 28.0112 13.6911 28.0112 11.6469 26.765 10.359 26.1995 9.86639 26.1403 9.00858 26.633 8.44304 26.6739 8.39605 26.718 8.35193 26.765 8.311 27.3678 7.69315 27.7036 6.86316 27.7 6L25.7 6C25.6995 6.39254 25.5296 6.76577 25.234 7.024 23.9886 8.313 23.9886 10.357 25.234 11.646 25.7987 12.1379 25.8577 12.9944 25.3659 13.5591 25.325 13.6061 25.2809 13.6501 25.234 13.691 24.6312 14.3079 24.2956 15.1375 24.3 16Z" class="MsftOfcThm_Accent1_Fill_v2" fill="#2D0F64"/><path d="M30.3 14 32.3 14C32.3009 13.6086 32.4703 13.2366 32.765 12.979 34.0112 11.6911 34.0112 9.6469 32.765 8.359 32.1995 7.86639 32.1403 7.00858 32.633 6.44304 32.6739 6.39605 32.718 6.35193 32.765 6.311 33.3678 5.69315 33.7036 4.86316 33.7 4L31.7 4C31.6995 4.39254 31.5296 4.76577 31.234 5.024 29.9886 6.313 29.9886 8.357 31.234 9.646 31.7987 10.1379 31.8577 10.9944 31.3659 11.5591 31.325 11.6061 31.2809 11.6501 31.234 11.691 30.6312 12.3079 30.2956 13.1375 30.3 14Z" class="MsftOfcThm_Accent1_Fill_v2" fill="#2D0F64"/></svg>