<svg viewBox="0 0 512 512" xmlns="http://www.w3.org/2000/svg" xmlns:xlink="http://www.w3.org/1999/xlink" id="Capa_1" xml:space="preserve" overflow="hidden"><style>
.MsftOfcThm_Accent1_Fill_v2 {
 fill:#2D0F64; 
}
</style>
<g><g><path d="M446.793 364.072 311.814 324.83 311.814 313.261 346.509 313.261C375.622 313.261 399.306 289.577 399.306 260.464L399.306 143.306C399.306 64.286 335.019 0 256 0 176.981 0 112.694 64.286 112.694 143.306L112.694 260.465C112.694 289.578 136.378 313.262 165.491 313.262L200.186 313.262 200.186 324.831 65.12 364.098C44.853 370.255 31.236 388.623 31.236 409.804L31.236 511.375 46.321 511.375 46.321 409.804C46.321 395.312 55.638 382.744 69.418 378.557L151.915 354.573 151.915 444.499 194.347 444.499 256 512 317.654 444.499 360.086 444.499 360.086 354.572 442.495 378.531C456.362 382.744 465.679 395.311 465.679 409.804L465.679 511.375 480.764 511.375 480.764 409.804C480.764 388.623 467.146 370.255 446.793 364.072ZM280.842 287.179C280.688 287.227 280.533 287.275 280.379 287.322 279.257 287.668 278.124 287.99 276.982 288.288 276.856 288.321 276.731 288.357 276.604 288.39 275.398 288.699 274.181 288.978 272.956 289.234 272.686 289.29 272.415 289.34 272.144 289.393 271.178 289.584 270.205 289.758 269.228 289.915 268.899 289.967 268.571 290.024 268.241 290.072 267.04 290.25 265.833 290.408 264.617 290.534 264.404 290.556 264.189 290.57 263.974 290.59 262.928 290.691 261.876 290.77 260.82 290.83 260.474 290.85 260.127 290.869 259.78 290.884 258.525 290.94 257.266 290.98 255.998 290.98 254.73 290.98 253.471 290.941 252.216 290.884 251.869 290.868 251.522 290.849 251.176 290.83 250.119 290.769 249.068 290.689 248.022 290.59 247.808 290.569 247.594 290.556 247.379 290.534 246.162 290.408 244.955 290.25 243.755 290.072 243.425 290.023 243.097 289.967 242.768 289.915 241.791 289.758 240.818 289.584 239.852 289.393 239.581 289.34 239.31 289.29 239.04 289.234 237.814 288.979 236.597 288.699 235.392 288.39 235.265 288.358 235.141 288.322 235.014 288.288 233.872 287.989 232.739 287.666 231.617 287.322 231.462 287.275 231.308 287.228 231.154 287.179 197.505 276.596 173.03 245.112 173.03 208.016L173.03 156.728C173.03 128.954 193.793 105.94 220.614 102.393 224.71 153.835 267.882 194.44 320.359 194.44L338.964 194.44 338.964 208.016C338.967 245.112 314.491 276.596 280.842 287.179ZM165.491 298.177C144.696 298.177 127.779 281.26 127.779 260.465L127.779 143.306C127.779 72.604 185.298 15.085 256 15.085 326.702 15.085 384.221 72.604 384.221 143.306L384.221 260.465C384.221 281.26 367.304 298.177 346.509 298.177L311.814 298.177 311.814 288.584C337.318 270.861 354.051 241.358 354.051 208.016L354.051 179.355 320.362 179.355C273.505 179.355 235.384 141.234 235.384 94.377L235.384 86.835 227.842 86.835C189.303 86.835 157.949 118.189 157.949 156.728L157.949 208.016C157.949 241.358 174.682 270.86 200.186 288.584L200.186 298.177 165.491 298.177ZM200.998 429.415 167 429.415 167 350.188 202.827 339.772 240.123 472.249 200.998 429.415ZM255.998 472.986 215.269 328.314 215.269 297.225 215.271 297.225C219.015 298.937 222.861 300.4 226.783 301.622 226.825 301.635 226.867 301.649 226.91 301.662 227.527 301.853 228.147 302.036 228.767 302.216 228.982 302.278 229.197 302.342 229.414 302.403 229.927 302.547 230.441 302.686 230.956 302.821 231.285 302.908 231.614 302.994 231.945 303.078 232.382 303.189 232.82 303.295 233.258 303.399 233.671 303.498 234.087 303.594 234.502 303.688 234.881 303.773 235.26 303.856 235.64 303.936 236.116 304.037 236.593 304.133 237.072 304.228 237.409 304.294 237.745 304.36 238.083 304.422 238.606 304.519 239.131 304.61 239.656 304.699 239.961 304.75 240.265 304.803 240.571 304.851 241.129 304.94 241.689 305.021 242.25 305.1 242.531 305.139 242.811 305.181 243.092 305.219 243.676 305.296 244.263 305.365 244.849 305.432 245.115 305.462 245.379 305.495 245.644 305.524 246.241 305.587 246.842 305.641 247.442 305.693 247.7 305.715 247.959 305.741 248.218 305.762 248.826 305.81 249.438 305.848 250.049 305.885 250.301 305.9 250.553 305.92 250.805 305.933 251.443 305.966 252.082 305.989 252.723 306.01 252.949 306.018 253.175 306.03 253.401 306.036 254.264 306.058 255.13 306.071 255.999 306.071 256.868 306.071 257.733 306.059 258.597 306.036 258.823 306.03 259.049 306.018 259.275 306.01 259.916 305.989 260.556 305.967 261.193 305.933 261.445 305.92 261.697 305.9 261.949 305.885 262.56 305.849 263.172 305.811 263.78 305.762 264.039 305.742 264.298 305.716 264.556 305.693 265.156 305.641 265.757 305.587 266.354 305.524 266.62 305.496 266.885 305.463 267.15 305.432 267.736 305.366 268.323 305.296 268.906 305.22 269.187 305.183 269.467 305.142 269.748 305.101 270.309 305.022 270.869 304.941 271.428 304.852 271.734 304.804 272.038 304.751 272.343 304.7 272.869 304.611 273.393 304.52 273.916 304.423 274.253 304.361 274.59 304.295 274.927 304.229 275.406 304.135 275.883 304.039 276.359 303.937 276.739 303.857 277.118 303.774 277.497 303.689 277.912 303.595 278.328 303.5 278.741 303.4 279.179 303.295 279.617 303.189 280.054 303.079 280.384 302.996 280.714 302.909 281.043 302.822 281.558 302.686 282.072 302.549 282.585 302.404 282.8 302.343 283.015 302.28 283.231 302.218 283.853 302.038 284.475 301.855 285.093 301.663 285.131 301.651 285.169 301.639 285.208 301.627 289.132 300.404 292.981 298.94 296.728 297.227L296.728 328.314 255.998 472.986ZM345.001 429.415 345.001 429.415 311.002 429.415 271.878 472.249 309.174 339.772 345.001 350.188 345.001 429.415Z" class="MsftOfcThm_Accent1_Fill_v2" stroke-width="6.91906" fill="#2D0F64"/></g></g><g><g><rect x="101.631" y="452.042" width="15.085" height="59.334" class="MsftOfcThm_Accent1_Fill_v2" stroke-width="6.91906" fill="#2D0F64"/></g></g><g><g><rect x="395.282" y="452.042" width="15.085" height="59.334" class="MsftOfcThm_Accent1_Fill_v2" stroke-width="6.91906" fill="#2D0F64"/></g></g><g></g><g></g><g></g><g></g><g></g><g></g><g></g><g></g><g></g><g></g><g></g><g></g><g></g><g></g><g></g></svg>