<svg width="307.55" height="288.1" viewBox="0 0 307.55 288.1" xmlns="http://www.w3.org/2000/svg" xmlns:xlink="http://www.w3.org/1999/xlink" xml:space="preserve" overflow="visible"><style>
.MsftOfcThm_Accent1_Fill_v2 {
 fill:#2D0F64; 
}
</style>
<defs></defs><path d="M210.98 96.57C219.12 89.81 228.64 89.35 238.39 89.54 247.89 89.72 257.39 89.54 266.89 89.59 287.58 89.68 300.86 102.94 300.95 123.58 300.96 125.96 300.73 127.93 303.92 129.07 305.55 129.65 307.13 132.66 307.29 134.68 307.74 140.52 307.49 146.42 307.44 152.29 307.41 155.88 305.41 157.95 302.09 159.11 292.55 162.45 283.01 165.79 273.57 169.38 271.96 169.99 270.28 171.6 269.56 173.17 266.82 179.18 262.4 185.41 262.52 191.47 262.65 197.52 267.45 203.47 270.24 209.45 272.19 213.63 274.16 217.81 276.22 221.95 277.89 225.32 277.31 228.17 274.69 230.78 266.55 238.9 258.42 247.03 250.34 255.21 247.49 258.1 244.54 258.51 240.87 256.71 231.8 252.24 222.67 247.91 213.47 243.72 212.11 243.1 210.07 243.05 208.66 243.58 203.05 245.67 197.52 247.98 192.08 250.49 190.71 251.12 189.32 252.61 188.79 254.02 185.24 263.48 181.86 273 178.56 282.55 177.24 286.38 174.86 288.14 170.75 288.1 159.38 287.99 148 287.99 136.63 288.1 132.68 288.14 130.31 286.4 129.04 282.76 125.75 273.34 122.32 263.96 119.13 254.51 118.33 252.14 117.02 250.81 114.73 249.94 108.67 247.62 102.64 243.12 96.69 243.25 90.75 243.38 84.91 248.07 79.05 250.8 74.75 252.8 70.46 254.81 66.21 256.92 62.83 258.6 60.02 257.99 57.4 255.35 49.3 247.19 41.19 239.04 32.99 230.97 30.07 228.09 29.69 225.11 31.45 221.49 35.88 212.4 40.25 203.29 44.45 194.1 45.07 192.73 45.16 190.7 44.63 189.3 42.54 183.69 40.23 178.16 37.72 172.72 37.09 171.35 35.6 169.95 34.18 169.42 25.19 166.05 16.11 162.9 7.05 159.71 0.91 157.54 0 156.28 0 149.57 0 144.82 0.01 140.07 0 135.32-0.01 132.32 0.99 129.54 3.91 128.72 6.67 127.94 6.63 126.33 6.53 124.27 6.1 115.28 8.48 107.21 14.55 100.42 21.1 93.1 29.39 89.63 39.14 89.6 51.51 89.56 63.89 89.58 76.26 89.59 83.61 89.6 90.27 91.77 96.35 96.35 96.78 95.57 97.19 95 97.43 94.36 101.5 83.46 109.96 76.97 121.55 76.84 142.92 76.6 164.3 76.61 185.67 76.83 197.44 76.95 205.84 83.36 210.03 94.53 210.25 95.1 210.54 95.63 210.98 96.57ZM64 243.65C73.4 239.16 82.66 234.82 91.84 230.3 94.77 228.86 97.38 228.76 100.4 230.07 108.18 233.46 116.03 236.68 123.91 239.82 126.82 240.98 128.59 242.87 129.6 245.8 132.64 254.65 135.85 263.44 138.87 272.29 139.57 274.36 140.52 275.26 142.85 275.21 150.1 275.05 157.35 275.06 164.6 275.21 166.89 275.26 167.89 274.42 168.6 272.32 171.61 263.46 174.82 254.67 177.87 245.83 178.87 242.92 180.6 241.02 183.55 239.85 191.33 236.78 199.06 233.59 206.7 230.2 209.96 228.75 212.81 228.84 215.97 230.41 225.02 234.89 234.17 239.18 243.56 243.68 249.31 237.92 254.94 232.08 260.81 226.49 262.75 224.65 262.74 223.24 261.64 221.03 257.48 212.65 253.33 204.25 249.6 195.67 248.67 193.54 248.57 190.44 249.37 188.27 252.4 180.09 255.76 172 259.46 164.1 260.49 161.89 262.82 159.68 265.08 158.76 273.06 155.54 281.26 152.88 289.38 150.02 295.31 147.93 295.55 147.49 294.1 141.17 200.43 141.17 106.76 141.17 13.12 141.17 12.35 147.95 12.35 147.95 18.41 150.1 26.41 152.94 34.49 155.56 42.35 158.74 44.62 159.66 46.98 161.84 48.01 164.05 51.71 171.95 55.09 180.03 58.08 188.22 58.91 190.49 58.72 193.72 57.74 195.97 54.02 204.55 49.74 212.89 45.83 221.39 45.32 222.5 45.1 224.59 45.75 225.28 51.68 231.5 57.85 237.51 64 243.65ZM198.52 127.89C198.52 118.85 198.79 110.24 198.43 101.65 198.14 94.71 192.98 89.75 185.92 89.69 164.44 89.5 142.95 89.49 121.47 89.69 113.99 89.76 109.08 95.21 108.85 102.77 108.74 106.26 108.83 109.76 108.83 113.26 108.83 118.08 108.83 122.9 108.83 127.88 138.93 127.89 168.48 127.89 198.52 127.89ZM18.91 127.8C45.18 127.8 70.48 127.8 95.74 127.8 97.43 112.6 90.03 102.74 76.6 102.49 63.98 102.26 51.36 102.33 38.74 102.48 29.91 102.59 22.76 107.49 20.45 115.35 19.32 119.21 19.41 123.42 18.91 127.8ZM210.97 127.8C237.24 127.8 262.54 127.8 287.8 127.8 289.5 112.61 282.09 102.74 268.66 102.49 256.04 102.26 243.42 102.33 230.8 102.48 221.97 102.59 214.81 107.48 212.51 115.35 211.38 119.2 211.47 123.41 210.97 127.8Z" class="MsftOfcThm_Accent1_Fill_v2" stroke-width="6.56224" fill="#2D0F64"/><path d="M57.77 19.28C75.43 19.34 89.72 33.62 89.71 51.21 89.7 68.88 75.08 83.35 57.39 83.21 39.9 83.07 25.47 68.44 25.63 51.01 25.8 33.37 40.13 19.22 57.77 19.28ZM57.7 32.08C47.17 32.07 38.62 40.48 38.46 50.99 38.3 61.49 47.11 70.41 57.65 70.42 68.18 70.44 77 61.55 76.88 51.04 76.77 40.54 68.22 32.09 57.7 32.08Z" class="MsftOfcThm_Accent1_Fill_v2" stroke-width="6.56224" fill="#2D0F64"/><path d="M249.78 19.28C267.44 19.31 281.74 33.55 281.78 51.15 281.82 68.8 267.2 83.32 249.51 83.21 232.02 83.1 217.58 68.51 217.7 51.07 217.81 33.45 232.14 19.25 249.78 19.28ZM268.95 51.21C268.97 40.76 260.42 32.17 249.93 32.08 239.25 32 230.51 40.61 230.52 51.19 230.53 61.6 239.14 70.3 249.54 70.42 260.06 70.54 268.93 61.76 268.95 51.21Z" class="MsftOfcThm_Accent1_Fill_v2" stroke-width="6.56224" fill="#2D0F64"/><path d="M153.73 63.91C136.09 63.92 121.77 49.7 121.67 32.1 121.57 14.47 136.17-0.07 153.88 0.01 171.42 0.08 185.82 14.56 185.75 32.06 185.68 49.65 171.36 63.89 153.73 63.91ZM153.82 51.11C164.31 51.06 172.87 42.53 172.92 32.05 172.97 21.5 164.15 12.72 153.59 12.78 143.16 12.84 134.56 21.46 134.49 31.91 134.42 42.47 143.17 51.15 153.82 51.11Z" class="MsftOfcThm_Accent1_Fill_v2" stroke-width="6.56224" fill="#2D0F64"/></svg>