<svg viewBox="0 0 96 96" xmlns="http://www.w3.org/2000/svg" xmlns:xlink="http://www.w3.org/1999/xlink" id="Icons_Contract_LTR_M" overflow="hidden"><g id="Icons"><path d="M18 88 78 88 78 8 18 8ZM20 10 76 10 76 86 20 86Z" fill="#3A1A79"/><rect x="28" y="23" width="40" height="2" fill="#3A1A79"/><rect x="28" y="31" width="40" height="2" fill="#3A1A79"/><rect x="28" y="39" width="40" height="2" fill="#3A1A79"/><rect x="28" y="47" width="20" height="2" fill="#3A1A79"/><rect x="48" y="67" width="20" height="2" fill="#3A1A79"/><path d="M39.793 61.293 34.75 66.336 29.707 61.293 28.293 62.707 33.336 67.75 28.293 72.793 29.707 74.207 34.75 69.164 39.793 74.207 41.207 72.793 36.164 67.75 41.207 62.707 39.793 61.293Z" fill="#3A1A79"/></g></svg>