<svg width="320.11" height="384" viewBox="0 0 320.11 384" xmlns="http://www.w3.org/2000/svg" xmlns:xlink="http://www.w3.org/1999/xlink" xml:space="preserve" overflow="visible"><style>
.MsftOfcThm_Accent1_Fill_v2 {
 fill:#2D0F64; 
}
</style>
<defs></defs><path d="M277.02 384C186.26 384 95.5 384 4.74 384 0.42 382.13 0 378.5 0 374.37 0.05 261.3 0.04 148.23 0.04 35.16 0.04 34.54 0.03 33.91 0.05 33.29 0.21 27.93 2.49 25.62 7.95 25.58 16.7 25.52 25.44 25.56 34.19 25.56 35.51 25.56 36.84 25.56 38.44 25.56 38.44 19.71 38.61 14.35 38.38 9.01 38.21 5 39.33 1.92 42.99 0.01 104 0 165 0 226.01 0 227.24 1.03 228.57 1.97 229.7 3.1 258.79 32.16 287.9 61.2 316.84 90.4 318.56 92.14 319.4 95.11 319.84 97.65 320.35 100.56 319.96 103.63 319.96 106.63 319.96 182.86 319.96 259.09 319.96 335.32 319.96 344.15 318.41 345.67 309.42 345.68 301.42 345.68 293.42 345.67 285.42 345.69 284.22 345.69 283.02 345.82 281.56 345.9 281.56 355.81 281.43 365.42 281.62 375.01 281.71 379 280.68 382.09 277.02 384ZM306.83 332.66C306.83 255.68 306.83 179.16 306.83 102.42 305.01 102.42 303.51 102.42 302.02 102.42 277.02 102.42 252.02 102.43 227.03 102.41 219.51 102.41 217.68 100.58 217.68 93.16 217.67 67.92 217.68 42.67 217.68 17.43 217.68 15.98 217.68 14.53 217.68 12.95 162 12.95 106.81 12.95 51.53 12.95 51.53 119.62 51.53 226.12 51.53 332.66 136.78 332.66 221.72 332.66 306.83 332.66ZM13.16 38.54C13.16 149.51 13.16 260.27 13.16 370.92 98.53 370.92 183.58 370.92 268.58 370.92 268.58 362.42 268.58 354.21 268.58 345.66 266.79 345.66 265.19 345.66 263.6 345.66 191.97 345.66 120.34 345.66 48.71 345.66 40.04 345.66 38.44 344.05 38.44 335.4 38.44 238.03 38.44 140.66 38.44 43.28 38.44 41.71 38.44 40.15 38.44 38.54 29.66 38.54 21.46 38.54 13.16 38.54ZM296.02 89.42C274.21 67.63 252.15 45.59 230.7 24.17 230.7 45.13 230.7 67.2 230.7 89.42 252.92 89.42 274.88 89.42 296.02 89.42Z" class="MsftOfcThm_Accent1_Fill_v2" stroke-width="5.92082" fill="#2D0F64"/><path d="M198.33 288C173.71 288 149.09 288.01 124.47 287.99 122.98 287.99 121.44 288.01 120.01 287.65 116.96 286.89 115.32 284.61 115.33 281.62 115.34 278.46 117.11 276.17 120.34 275.46 121.66 275.17 123.07 275.24 124.44 275.24 173.81 275.23 223.18 275.23 272.54 275.24 273.79 275.24 275.07 275.16 276.27 275.42 279.43 276.12 281.36 278.13 281.47 281.41 281.58 284.7 279.76 286.86 276.65 287.7 275.24 288.08 273.68 288 272.19 288 247.57 288 222.95 288 198.33 288Z" class="MsftOfcThm_Accent1_Fill_v2" stroke-width="5.92082" fill="#2D0F64"/><path d="M198.2 211.25C173.83 211.25 149.46 211.26 125.09 211.23 123.48 211.23 121.83 211.15 120.26 210.84 116.94 210.2 115.31 207.83 115.36 204.69 115.41 201.54 117.15 199.26 120.48 198.7 121.83 198.47 123.21 198.43 124.58 198.43 173.82 198.42 223.06 198.42 272.3 198.42 273.17 198.42 274.05 198.4 274.92 198.47 278.99 198.83 281.49 201.21 281.52 204.73 281.55 208.2 279.07 210.72 275.06 211.16 273.82 211.3 272.56 211.24 271.32 211.24 246.94 211.25 222.57 211.25 198.2 211.25Z" class="MsftOfcThm_Accent1_Fill_v2" stroke-width="5.92082" fill="#2D0F64"/><path d="M198.54 236.85C223.04 236.85 247.53 236.85 272.03 236.86 273.4 236.86 274.8 236.8 276.14 237.03 279.38 237.58 281.26 239.61 281.46 242.87 281.65 245.97 280.1 248.18 277.12 249.1 275.72 249.53 274.17 249.64 272.7 249.65 223.21 249.68 173.71 249.68 124.22 249.65 122.62 249.65 120.93 249.54 119.43 249.03 116.46 248.03 115.09 245.66 115.38 242.62 115.67 239.58 117.45 237.55 120.56 237.05 122.03 236.81 123.55 236.87 125.05 236.87 149.55 236.85 174.05 236.85 198.54 236.85Z" class="MsftOfcThm_Accent1_Fill_v2" stroke-width="5.92082" fill="#2D0F64"/><path d="M198.25 134.34C173.88 134.34 149.51 134.34 125.14 134.34 123.77 134.34 122.38 134.39 121.02 134.24 117.77 133.87 115.34 131.43 115.32 128.31 115.3 125.11 116.82 122.79 120.06 121.98 121.37 121.65 122.77 121.58 124.13 121.57 173.62 121.55 223.11 121.55 272.61 121.56 273.85 121.56 275.13 121.58 276.33 121.85 279.78 122.62 281.89 125.38 281.45 128.62 280.99 132.03 278.91 133.94 275.48 134.27 274.24 134.39 272.98 134.34 271.73 134.34 247.25 134.34 222.75 134.34 198.25 134.34Z" class="MsftOfcThm_Accent1_Fill_v2" stroke-width="5.92082" fill="#2D0F64"/><path d="M198.35 172.76C173.85 172.76 149.36 172.76 124.86 172.76 118.37 172.76 115.29 170.72 115.26 166.44 115.23 162.15 118.43 159.95 124.78 159.95 173.9 159.95 223.01 159.95 272.13 159.95 272.5 159.95 272.88 159.94 273.25 159.95 278.57 160.06 281.6 162.48 281.5 166.55 281.4 170.53 278.59 172.74 273.33 172.75 248.35 172.77 223.35 172.76 198.35 172.76Z" class="MsftOfcThm_Accent1_Fill_v2" stroke-width="5.92082" fill="#2D0F64"/><path d="M102.35 57.67C108.47 57.67 114.58 57.61 120.7 57.69 125.51 57.75 127.87 60.01 127.91 64.81 128 77.04 128 89.27 127.91 101.5 127.87 106.46 125.46 108.73 120.42 108.75 108.44 108.81 96.46 108.8 84.47 108.75 79.29 108.73 76.83 106.35 76.79 101.21 76.71 89.23 76.72 77.25 76.79 65.27 76.82 60.06 79.2 57.73 84.37 57.67 90.37 57.61 96.36 57.67 102.35 57.67ZM114.98 70.65C106.34 70.65 98.14 70.65 89.79 70.65 89.79 79.13 89.79 87.42 89.79 95.75 98.32 95.75 106.62 95.75 114.98 95.75 114.98 87.29 114.98 79.1 114.98 70.65Z" class="MsftOfcThm_Accent1_Fill_v2" stroke-width="5.92082" fill="#2D0F64"/><path d="M89.6 134.3C87.48 134.3 85.35 134.4 83.23 134.28 79.69 134.08 77.22 131.78 76.88 128.56 76.55 125.46 78.73 122.18 82.13 121.91 87.08 121.51 92.11 121.5 97.06 121.91 100.56 122.2 102.53 125.25 102.26 128.56 101.99 131.81 99.58 134.08 95.97 134.29 93.85 134.4 91.72 134.3 89.6 134.3Z" class="MsftOfcThm_Accent1_Fill_v2" stroke-width="5.92082" fill="#2D0F64"/><path d="M89.8 236.91C91.92 236.91 94.06 236.78 96.17 236.94 99.77 237.2 102.16 239.54 102.25 242.85 102.34 246.32 100.61 248.94 97.22 249.23 92.16 249.66 87.01 249.64 81.94 249.22 78.7 248.95 76.64 245.79 76.87 242.81 77.11 239.56 79.52 237.18 83.07 236.94 85.3 236.79 87.55 236.91 89.8 236.91Z" class="MsftOfcThm_Accent1_Fill_v2" stroke-width="5.92082" fill="#2D0F64"/><path d="M89.94 275.28C92.06 275.28 94.2 275.13 96.31 275.31 99.81 275.61 102.17 278.11 102.28 281.38 102.39 284.78 100.01 287.67 96.38 287.87 91.9 288.12 87.38 288.11 82.9 287.88 79.34 287.7 76.76 284.69 76.85 281.44 76.95 278.12 79.55 275.51 83.2 275.28 85.44 275.13 87.69 275.25 89.94 275.25 89.94 275.26 89.94 275.27 89.94 275.28Z" class="MsftOfcThm_Accent1_Fill_v2" stroke-width="5.92082" fill="#2D0F64"/><path d="M89.74 172.57C87.25 172.57 84.73 172.77 82.26 172.52 78.91 172.19 77.1 169.87 76.92 166.73 76.74 163.58 78.32 160.75 81.61 160.49 86.92 160.07 92.31 160.05 97.61 160.51 100.84 160.79 102.42 163.54 102.2 166.8 101.99 170.05 100.12 172.17 96.83 172.53 94.49 172.78 92.1 172.58 89.73 172.58 89.75 172.57 89.74 172.57 89.74 172.57Z" class="MsftOfcThm_Accent1_Fill_v2" stroke-width="5.92082" fill="#2D0F64"/><path d="M89.83 198.32C92.2 198.43 94.58 198.38 96.92 198.69 100.21 199.11 101.98 201.23 102.25 204.48 102.51 207.65 100.49 210.57 97.2 210.81 92.13 211.18 86.99 211.15 81.92 210.8 78.58 210.57 77.07 207.92 76.89 204.76 76.72 201.73 79.11 199.04 82.35 198.69 84.81 198.42 87.33 198.64 89.82 198.64 89.82 198.53 89.82 198.42 89.83 198.32Z" class="MsftOfcThm_Accent1_Fill_v2" stroke-width="5.92082" fill="#2D0F64"/></svg>