<svg width="512" height="512" viewBox="0 0 520 520" xmlns="http://www.w3.org/2000/svg" xmlns:xlink="http://www.w3.org/1999/xlink" overflow="hidden"><style>
.MsftOfcThm_Background1_Fill_v2 {
 fill:#FFFFFF; 
}
</style>
<g id="_x31_207_x2C__Earth_x2C__Globe_x2C__Internet_x2C__Web_x2C_"><path d="M260 10C121.804 10 10 122.179 10 260 10 397.502 121.4 510 260 510 398.149 510 510 397.855 510 260 510 122.268 398.262 10 260 10ZM436.537 407.411C416.969 397.354 394.793 389.497 373.242 383.903 383.341 349.446 389.08 310.567 389.891 270L489.782 270C487.599 320.45 468.936 368.651 436.537 407.411ZM83.462 407.411C51.064 368.65 32.401 320.45 30.217 270L130.108 270C130.92 310.567 136.659 349.446 146.757 383.903 125.186 389.509 103.382 397.213 83.462 407.411ZM83.462 112.588C103.35 122.777 125.218 130.49 146.757 136.097 136.659 170.554 130.92 209.432 130.108 250L30.217 250C32.401 199.549 51.064 151.349 83.462 112.588ZM367.062 117.07C356.936 88.842 341.867 59.362 320.783 38.211 358.944 48.693 394.096 68.923 422.482 97.238 405.131 105.612 385.229 112.528 367.062 117.07ZM270 129.884 270 30.987C294.42 35.772 317.521 57.989 335.908 94.767 340.114 103.179 343.955 112.133 347.423 121.545 321.934 126.66 295.786 129.338 270 129.884ZM250 129.884C223.995 129.334 197.776 126.612 172.577 121.545 176.044 112.132 179.886 103.178 184.091 94.767 202.48 57.989 225.58 35.771 250 30.987ZM250 149.888 250 250 150.111 250C150.922 210.869 156.485 173.517 166.247 140.64 192.15 146.001 220.493 149.288 250 149.888ZM250 270 250 370.112C222.131 370.679 193.431 373.711 166.248 379.36 156.485 346.483 150.922 309.131 150.111 270ZM250 390.116 250 489.013C225.58 484.228 202.48 462.01 184.091 425.233 179.885 416.821 176.044 407.867 172.577 398.455 196.805 393.564 223.17 390.684 250 390.116ZM270 390.116C296.768 390.682 323.026 393.54 347.423 398.455 343.955 407.867 340.114 416.821 335.908 425.233 317.52 462.01 294.42 484.228 270 489.013ZM270 370.112 270 270 369.89 270C369.078 309.131 363.516 346.483 353.752 379.36 328.002 374.012 299.468 370.712 270 370.112ZM270 250 270 149.888C299.839 149.281 328.073 145.947 353.753 140.64 363.516 173.516 369.078 210.869 369.89 250ZM152.938 117.07C134.188 112.335 114.877 105.629 97.517 97.238 125.904 68.923 161.056 48.693 199.218 38.211 178.102 59.393 163.039 88.911 152.938 117.07ZM152.938 402.93C163.035 431.082 178.1 460.606 199.218 481.789 161.056 471.307 125.904 451.076 97.517 422.762 114.903 414.354 134.223 407.679 152.938 402.93ZM367.061 402.93C384.981 407.409 405.139 414.369 422.483 422.762 394.096 451.076 358.944 471.307 320.783 481.789 341.899 460.605 356.966 431.08 367.061 402.93ZM389.892 250C389.08 209.432 383.341 170.554 373.243 136.097 395.154 130.407 417.097 122.558 436.538 112.589 468.936 151.349 487.6 199.55 489.783 250.001L389.892 250.001Z" class="MsftOfcThm_Background1_Fill_v2" fill="#FFFFFF"/></g></svg>