<svg width="512" height="512" viewBox="0 0 512 512" xmlns="http://www.w3.org/2000/svg" xmlns:xlink="http://www.w3.org/1999/xlink" id="Layer_1" overflow="hidden"><style>
.MsftOfcThm_Accent1_Fill_v2 {
 fill:#2D0F64; 
}
</style>
<path d="M300.15 107.486C250.53 46.434 160.505 37.132 99.452 86.752 69.881 110.787 51.435 144.899 47.521 182.806 43.602 220.71 54.683 257.874 78.718 287.447 102.753 317.018 136.865 335.464 174.77 339.378 179.765 339.896 184.747 340.153 189.698 340.153 222.337 340.153 253.737 329.05 279.416 308.181 340.459 258.566 349.761 168.534 300.15 107.486ZM176.193 325.618C169.834 324.961 163.594 323.847 157.509 322.304L157.509 252.23C157.509 248.408 154.41 245.311 150.59 245.311 146.77 245.311 143.671 248.408 143.671 252.23L143.671 317.924C135.889 314.981 128.435 311.297 121.392 306.91L121.392 234.25C121.392 220.349 135.838 213.717 147.954 210.602 174.98 203.652 202.908 203.654 230.961 210.618 240.862 213.073 257.469 219.408 257.469 234.25L257.469 306.842C250.37 311.275 242.918 314.974 235.195 317.915L235.195 252.23C235.195 248.408 232.096 245.311 228.276 245.311 224.456 245.311 221.357 248.408 221.357 252.23L221.357 322.314C206.807 326.026 191.569 327.195 176.193 325.618ZM189.432 186.757C174.644 186.757 162.617 169.971 162.617 149.341 162.617 124.821 179.418 121.159 189.432 121.159 199.446 121.159 216.247 124.821 216.247 149.341 216.246 169.971 204.22 186.757 189.432 186.757ZM271.308 296.911 271.308 234.251C271.308 216.533 257.817 203.022 234.295 197.187 226.442 195.239 218.595 193.82 210.771 192.882 222.338 183.837 230.084 167.728 230.084 149.341 230.084 123.423 214.508 107.322 189.432 107.322 164.356 107.322 148.78 123.423 148.78 149.341 148.78 167.695 156.498 183.779 168.031 192.834 160.137 193.772 152.292 195.202 144.515 197.202 120.682 203.328 107.556 216.485 107.556 234.251L107.556 296.977C101.004 291.563 94.939 285.464 89.457 278.718 67.75 252.014 57.746 218.456 61.282 184.227 64.818 149.998 81.475 119.195 108.182 97.49 132.024 78.112 160.753 68.689 189.315 68.689 226.796 68.689 263.984 84.927 289.412 116.21 334.038 171.128 325.861 252.001 271.308 296.911ZM504.883 426.228 426.525 350.189C422.034 345.829 416.007 343.568 409.796 343.572 404.855 343.646 400.204 345.267 396.313 348.115L347.971 301.204C364.362 276.214 374.683 247.515 377.842 216.931 383.045 166.603 368.333 117.265 336.424 78.002 270.556-3.038 151.023-15.391 69.966 50.477 30.706 82.386 6.22 127.675 1.022 178-4.176 228.325 10.535 277.664 42.444 316.929 79.83 362.928 134.496 386.797 189.607 386.797 231.085 386.797 272.799 373.251 307.597 345.466L354.619 391.097C348.267 400.365 349.258 413.14 357.589 421.225L435.952 497.264C440.51 501.687 446.42 503.885 452.321 503.885 458.46 503.885 464.595 501.502 469.194 496.764L505.378 459.472C509.738 454.977 512.09 449.035 511.995 442.747 511.901 436.449 509.374 430.584 504.883 426.228ZM386.397 357.775 363.97 380.887 318.122 336.397C326.093 329.035 333.356 321.085 339.862 312.618ZM53.183 308.2C23.603 271.805 9.968 226.071 14.783 179.422 19.603 132.772 42.3 90.794 78.696 61.216 153.825 0.16 264.623 11.608 325.685 86.73 355.265 123.125 368.9 168.859 364.08 215.508 359.26 262.16 336.563 304.141 300.167 333.717 225.034 394.787 114.235 383.324 53.183 308.2ZM495.451 449.831 459.267 487.123C455.542 490.956 449.407 491.037 445.587 487.33L367.229 411.296C363.4 407.58 363.306 401.44 367.017 397.616L403.205 360.324C404.993 358.482 407.403 357.446 410.002 357.41L410.155 357.41C412.695 357.41 415.083 358.365 416.885 360.117L495.248 436.16C497.086 437.944 498.122 440.354 498.162 442.948 498.198 445.547 497.235 447.993 495.451 449.831Z" class="MsftOfcThm_Accent1_Fill_v2" fill="#2D0F64"/></svg>