<svg width="396" height="395.98" viewBox="0 0 396 395.98" xmlns="http://www.w3.org/2000/svg" xmlns:xlink="http://www.w3.org/1999/xlink" xml:space="preserve" overflow="visible"><style>
.MsftOfcThm_Accent1_Fill_v2 {
 fill:#2D0F64; 
}
</style>
<defs></defs><path d="M184.09 0C191.86 1.91 199.44 4.15 205.88 9.28 214.13 15.85 219.83 24.01 222.06 34.37 222.72 37.42 223.86 39 227.29 39.75 248.38 44.4 262.81 64.22 261.83 85.77 260.98 104.34 255.61 121.34 244.58 136.15 238.33 144.55 235.87 153.13 236.18 163.57 236.84 186.01 228.86 205.38 212.66 221.17 212.2 221.62 211.83 222.25 211.28 222.51 202.36 226.76 204.27 234.83 204.47 242.19 204.49 243 206.14 244.22 207.21 244.47 221.63 247.81 236.04 251.21 250.53 254.19 267.65 257.71 282.58 265.17 294.98 277.56 295.24 277.82 295.6 277.98 296.2 278.37 299.57 270.49 302.93 262.71 306.21 254.9 306.54 254.11 306.51 253.13 306.51 252.23 306.52 224.26 306.52 196.29 306.51 168.33 306.51 167.82 306.42 167.31 306.32 166.25 302.33 166.25 298.3 166.25 294.07 166.25 294.07 161.76 294.07 157.81 294.07 153.53 319.35 153.53 344.64 153.53 370.21 153.53 370.21 157.55 370.21 161.59 370.21 166.01 366.21 166.01 362.26 166.01 357.85 166.01 357.77 167.84 357.65 169.31 357.65 170.79 357.64 197.21 357.6 223.63 357.71 250.05 357.72 252.66 358.31 255.44 359.33 257.84 370.53 284.26 381.88 310.61 393.15 336.99 400.86 355.02 390.71 370.41 371.13 370.43 355.4 370.45 339.68 370.43 323.95 370.43 322.56 370.43 321.18 370.43 319.49 370.43 319.49 378.98 319.49 387.18 319.49 395.96 212.78 395.96 106.38 395.96-0.03 395.96-0.03 373.27-0.03 350.59-0.03 327.9 0.21 327.2 0.59 326.51 0.68 325.79 4.91 291.91 28.66 264.44 61.6 256.03 77.42 251.99 93.46 248.81 109.38 245.14 115.88 243.64 114.9 245.11 115 238.42 115.04 236.1 115.31 233.73 114.91 231.48 114.59 229.66 113.88 227.43 112.55 226.35 93.08 210.59 82.81 190.09 83.24 165.24 83.45 153.2 80.21 143.61 73.37 133.99 61.44 117.21 56 98.09 57.87 77.45 61.03 42.49 79.29 18.39 111.78 5.37 118.5 2.68 125.91 1.72 133-0.03 150.06 0 167.07 0 184.09 0ZM211.03 50.62C210.82 47.4 210.65 44.19 210.4 40.99 209.32 26.9 196.44 13.73 182.26 13.25 166.95 12.73 151.6 12.9 136.28 13.13 125.39 13.29 115.2 16.54 105.85 22.05 74.09 40.76 61.73 78.49 76.15 112.56 77.85 116.57 80 120.39 81.94 124.29 82.35 124.17 82.77 124.04 83.18 123.92 83.18 118.86 83.18 113.8 83.18 108.52 86.53 108.52 89.36 108.69 92.17 108.47 94.65 108.28 96.31 108.78 96.24 110.86 101.23 110.06 106 108.65 110.78 108.62 143.38 108.42 175.99 108.41 208.59 108.64 213.09 108.67 217.57 110.41 222.06 111.36 222.43 111.44 222.8 111.54 223.27 111.65 223.47 110.64 223.66 109.67 223.85 108.74 227.96 108.74 231.91 108.74 236.46 108.74 236.46 113.95 236.46 118.95 236.46 123.96 237.72 123.34 238.24 122.65 238.67 121.9 245.46 110.04 249.06 97.27 249.05 83.59 249.04 68.35 239.49 55.86 224.8 52.2 220.48 51.12 215.89 51.14 211.03 50.62ZM153.24 382.96C153.24 378.77 153.01 374.91 153.31 371.09 153.56 367.91 152.31 365.92 150 363.88 132.58 348.57 115.28 333.14 97.94 317.73 96.62 316.56 95.33 315.34 93.87 314 97.49 308.54 100.93 303.35 104.58 297.84 96.78 295.84 89.47 293.97 82.03 292.07 83.93 282.37 85.77 272.99 87.7 263.14 80.43 264.75 73.88 266.08 67.38 267.65 35.46 275.37 14.22 300.97 13.04 333.8 12.48 349.5 12.87 365.23 12.85 380.95 12.85 381.56 13.03 382.16 13.16 382.95 30.04 382.95 46.73 382.95 64 382.95 64 374.49 64 366.21 64 357.87 68.51 357.87 72.44 357.87 76.71 357.87 76.71 366.33 76.71 374.54 76.71 382.95 102.26 382.96 127.47 382.96 153.24 382.96ZM166.16 382.93C191.96 382.93 217.16 382.93 242.73 382.93 242.73 374.5 242.73 366.3 242.73 357.95 247.13 357.95 251.14 357.95 255.58 357.95 255.58 366.46 255.58 374.64 255.58 382.95 272.7 382.95 289.39 382.95 306.22 382.95 306.22 378.7 306.22 374.7 306.22 370.46 301.67 370.46 297.43 370.47 293.2 370.46 273.69 370.43 263.4 354.92 271.05 337.05 277.12 322.86 283.18 308.67 289.34 294.52 290.22 292.49 290.14 291.15 288.62 289.39 273.75 272.09 253.43 266.92 231.71 263.47 233.63 273.17 235.47 282.47 237.36 292.07 229.87 294 222.51 295.89 214.82 297.86 218.6 303.58 222.04 308.78 225.52 314.04 223.8 315.58 222.46 316.79 221.12 317.98 203.69 333.47 186.25 348.94 168.87 364.49 167.72 365.52 166.37 367.04 166.28 368.41 165.96 373.13 166.16 377.88 166.16 382.93ZM332.24 357.61C345.37 357.61 358.51 357.64 371.64 357.6 381.37 357.57 385.46 351.39 381.66 342.5 373.37 323.12 365.01 303.77 356.79 284.35 355.75 281.89 354.58 280.84 351.75 280.88 338.75 281.05 325.74 281.02 312.74 280.9 310.08 280.87 308.67 281.57 307.57 284.18 299.33 303.72 290.89 323.18 282.55 342.68 278.87 351.28 283.04 357.56 292.46 357.6 305.71 357.65 318.98 357.61 332.24 357.61ZM223.09 169.89C221.79 170.66 220.92 171.16 220.08 171.68 203.01 182.22 181.91 180.96 166.29 168.47 162.08 165.1 157.33 165.18 153.11 168.42 138.62 179.56 122.82 181.75 105.86 175 102.59 173.7 99.55 171.85 96.29 170.19 97.1 202.47 125.79 229.52 159.24 229.82 192.86 230.12 221.67 203.39 223.09 169.89ZM159.69 121.39C142.82 121.39 125.95 121.34 109.08 121.41 102.18 121.44 96.62 125.82 96.09 132.17 95.59 138.18 95.86 144.26 95.93 150.31 95.94 151.22 96.59 152.22 97.17 153.02 107.72 167.34 130.34 170.6 143.95 159 149.3 154.44 154.5 152.29 161.24 153.2 162.38 153.35 163.57 153.33 164.71 153.2 167.33 152.89 169.23 153.82 171.19 155.66 186.21 169.67 207.09 169.34 220.5 155.11 222.65 152.83 223.84 150.47 223.61 147.22 223.34 143.38 223.57 139.5 223.54 135.64 223.48 126.39 218.47 121.41 209.13 121.4 192.65 121.37 176.17 121.39 159.69 121.39ZM159.72 339.9C158.81 338.14 158.2 337.02 157.63 335.88 146.4 313.45 135.18 291 123.92 268.59 121.91 264.6 120.57 258.68 117.36 257.32 113.85 255.83 108.53 258.59 104 259.5 103.5 259.6 102.93 259.63 102.52 259.89 102.03 260.19 101.4 260.65 101.3 261.14 99.8 268.26 98.38 275.4 96.92 282.66 106.52 285.09 115.57 287.37 125.23 289.81 120.22 297.4 115.5 304.53 110.63 311.9 127 326.45 143.24 340.88 159.69 355.5 176.11 340.9 192.35 326.48 208.76 311.89 203.86 304.5 199.12 297.37 194.11 289.83 203.82 287.37 212.97 285.05 222.38 282.66 221.67 278.9 221.08 275.49 220.39 272.1 219.59 268.2 219.91 263.1 217.54 260.76 215.04 258.28 209.93 258.44 205.96 257.44 205.59 257.35 205.19 257.3 204.84 257.15 202.22 256.03 200.99 257.22 199.85 259.58 195.2 269.19 190.36 278.72 185.59 288.27 177.06 305.27 168.54 322.29 159.72 339.9ZM314.94 268.03C326.59 268.03 337.96 268.03 349.61 268.03 348.97 266.4 348.59 265.03 347.92 263.81 345.44 259.28 344.84 254.48 344.87 249.33 345.03 223.06 344.94 196.79 344.94 170.52 344.94 169.15 344.94 167.78 344.94 166.45 336.15 166.45 327.87 166.45 319.4 166.45 319.4 168.17 319.4 169.58 319.4 170.98 319.4 195.06 319.3 219.14 319.45 243.23 319.5 251.39 319.62 259.44 315.13 266.71 314.96 267 315.02 267.43 314.94 268.03ZM191.22 235.81C170.1 245.03 148.99 244.78 127.7 235.72 127.7 239.06 127.49 241.78 127.74 244.46 128.34 250.82 130.8 256.65 135.94 260.37 148.53 269.49 162.34 270.77 176.5 264.42 180.35 262.69 184.31 260.04 186.83 256.75 191.31 250.89 193.05 243.85 191.22 235.81ZM159.68 311.41C165.25 300.27 170.55 289.68 176.3 278.19 164.92 281.91 154.37 281.58 143.16 278.41 148.85 289.78 154.12 300.31 159.68 311.41Z" class="MsftOfcThm_Accent1_Fill_v2" stroke-width="8.43717" fill="#2D0F64"/><path d="M287.57 95.78C287.58 81.67 299.02 70.28 313.12 70.34 326.98 70.4 338.33 81.69 338.55 95.64 338.77 109.39 326.98 121.29 313.07 121.35 299.09 121.41 287.55 109.84 287.57 95.78ZM313.17 108.45C320.29 108.37 325.81 102.67 325.68 95.52 325.56 88.67 319.84 83.03 313.01 83.02 306.09 83.01 300.16 88.97 300.22 95.88 300.27 102.92 306.05 108.53 313.17 108.45Z" class="MsftOfcThm_Accent1_Fill_v2" stroke-width="8.43717" fill="#2D0F64"/><path d="M396 127.78C395.97 138.23 387.14 146.98 376.72 146.88 366.39 146.78 357.87 138.23 357.75 127.87 357.64 117.39 366.3 108.63 376.81 108.58 387.25 108.55 396.02 117.33 396 127.78ZM376.98 121.43C373.57 121.36 370.56 124.29 370.55 127.7 370.53 131.05 373.16 133.79 376.54 133.94 380.14 134.1 382.98 131.5 383.08 127.96 383.18 124.41 380.47 121.51 376.98 121.43Z" class="MsftOfcThm_Accent1_Fill_v2" stroke-width="8.43717" fill="#2D0F64"/><path d="M185.45 370.21C185.45 366.23 185.45 362.29 185.45 357.97 200.15 357.97 214.85 357.97 229.71 357.97 229.71 362.07 229.71 366.02 229.71 370.21 214.95 370.21 200.32 370.21 185.45 370.21Z" class="MsftOfcThm_Accent1_Fill_v2" stroke-width="8.43717" fill="#2D0F64"/></svg>