<svg width="367.55" height="330.25" viewBox="0 0 367.55 330.25" xmlns="http://www.w3.org/2000/svg" xmlns:xlink="http://www.w3.org/1999/xlink" xml:space="preserve" overflow="visible"><style>
.MsftOfcThm_Accent1_Fill_v2 {
 fill:#2D0F64; 
}
</style>
<defs></defs><path d="M82.63 305.32C82.63 301.27 82.63 297.69 82.63 293.11 90.52 293.74 98.63 293.12 105.96 295.22 127.41 301.4 148.62 308.45 169.79 315.57 184.42 320.49 198.13 319.25 211.7 311.99 252.21 290.32 292.83 268.86 333.41 247.32 339.79 243.93 346.17 240.54 352.53 237.16 347.32 226.21 332.75 221.04 320.44 226.05 304.03 232.73 287.78 239.8 271.46 246.71 259.63 251.72 247.83 256.85 235.94 261.7 233.34 262.76 230.38 263.37 227.58 263.4 207.95 263.55 188.33 263.49 168.7 263.49 168.1 263.49 167.5 263.38 166.71 263.31 166.71 259.6 166.71 256.04 166.71 251.95 168.27 251.95 169.72 251.95 171.17 251.95 189.42 251.95 207.67 251.99 225.93 251.93 233.71 251.91 238.86 247.14 238.75 240.32 238.64 233.76 233.63 229.18 226.28 229.15 212.15 229.09 198.03 229.01 183.9 229.18 177.76 229.25 172.1 228.04 166.54 225.42 155.25 220.09 143.79 215.15 132.46 209.92 126.1 206.98 119.53 205.55 112.51 205.65 102.66 205.8 92.81 205.69 82.73 205.69 82.73 201.81 82.73 198.23 82.73 194.64 82.91 194.51 83.1 194.22 83.29 194.23 97.13 194.51 111.11 193.75 124.77 195.51 133.15 196.59 141.09 201.38 149.11 204.78 157.38 208.29 165.44 212.28 173.72 215.79 176.29 216.88 179.24 217.52 182.02 217.56 195.64 217.74 209.3 218.19 222.89 217.49 238.51 216.69 250.24 225.7 250.7 242.75 253.33 241.69 255.84 240.71 258.32 239.67 276.83 231.86 295.32 223.99 313.85 216.23 337.46 206.34 360.4 217.39 367.57 242.39 362.96 244.86 358.27 247.4 353.55 249.9 307.77 274.15 261.96 298.35 216.22 322.68 200.46 331.06 184.26 332.48 167.32 326.96 145.85 319.96 124.33 313.08 102.82 306.22 101.07 305.66 99.17 305.41 97.32 305.37 92.56 305.24 87.82 305.32 82.63 305.32Z" class="MsftOfcThm_Accent1_Fill_v2" stroke-width="7.8406" fill="#2D0F64"/><path d="M189.18 0.23C192.3-0.67 193.54 1.16 194.61 3.75 199.92 16.54 205.41 29.26 210.7 42.07 211.74 44.59 212.89 45.95 215.92 46.27 229.46 47.72 242.96 49.55 256.47 51.19 261.53 51.8 262.64 52.61 263.17 57.75 263.29 58.96 262.1 60.64 261.04 61.58 250.44 70.92 239.79 80.2 229.03 89.35 226.94 91.12 226.46 92.71 227.02 95.42 229.88 109.23 232.39 123.12 235.21 136.94 235.75 139.59 235.04 141.07 232.89 142.5 230.83 143.87 229.3 144.92 226.64 143.27 214.44 135.69 202.05 128.43 189.82 120.9 187.71 119.6 186.22 119.63 184.1 120.83 171.7 127.83 159.12 134.5 146.83 141.67 143.5 143.62 141.96 141.73 139.65 140.38 137.14 138.91 137.69 137.02 138.18 134.92 141.41 121.06 144.53 107.18 147.92 93.36 148.54 90.85 147.91 89.51 146.16 87.9 135.76 78.34 125.61 68.5 115.05 59.13 112.06 56.47 113.39 54.29 113.97 51.6 114.56 48.86 116.54 49.03 118.54 48.86 132.99 47.65 147.44 46.47 161.86 45.06 163.18 44.93 164.9 43.49 165.5 42.22 171.64 29.39 177.68 16.5 183.53 3.53 184.76 0.8 186.22-0.47 189.18 0.23ZM243.49 61.48C242.11 61.18 241.66 61.04 241.19 60.98 230.28 59.66 219.39 58.25 208.46 57.11 205.35 56.78 203.64 55.57 202.52 52.61 200.17 46.44 197.45 40.4 194.87 34.32 192.93 29.76 190.96 25.21 188.73 20.01 183.54 31.16 178.55 41.59 173.86 52.16 172.56 55.1 170.74 56.18 167.7 56.37 160.85 56.79 154 57.44 147.16 58.04 142.54 58.44 137.93 58.92 132.57 59.44 140.18 66.53 146.76 73.44 154.17 79.3 160.24 84.1 162 88.77 159.48 96.34 156.46 105.38 154.98 114.93 152.69 124.86 154.35 124.01 155.44 123.48 156.5 122.9 165.34 118 174.29 113.28 182.96 108.1 186.24 106.14 188.66 106.35 191.69 108.32 197.44 112.06 203.41 115.47 209.29 119.02 213.1 121.31 216.91 123.6 221.3 126.24 218.96 114.28 216.9 103.01 214.48 91.82 213.75 88.45 214.51 86.44 217.15 84.25 225.87 76.98 234.34 69.42 243.49 61.48Z" class="MsftOfcThm_Accent1_Fill_v2" stroke-width="7.8406" fill="#2D0F64"/><path d="M281.96 59.72C277.89 68.47 274.19 76.2 270.69 84.02 269.22 87.3 267.21 89.26 263.39 89.27 260.17 89.28 256.95 89.74 253.24 90.04 252.89 86.24 252.55 82.59 252.21 78.88 252.93 78.64 253.42 78.29 253.85 78.36 259.76 79.3 262 75.73 264.02 70.95 267.76 62.1 272 53.47 276.16 44.81 277.22 42.6 277.78 40.01 281.48 40.02 285.41 40.03 286.87 41.99 288.17 45.13 292.41 55.39 296.91 65.55 301.15 75.81 302.04 77.96 303.19 78.75 305.5 79 316.8 80.25 328.07 81.71 339.34 83.14 341.2 83.38 343.3 82.94 344.02 85.75 344.78 88.7 345.25 91.4 342.8 93.73 341.26 95.19 339.64 96.57 338.03 97.96 331.14 103.94 324.33 110.03 317.29 115.82 314.99 117.71 314.58 119.54 315.14 122.25 317.46 133.62 319.46 145.07 321.94 156.4 322.82 160.44 319.55 160.89 317.65 162.36 316.81 163.01 314.66 162.77 313.57 162.13 303.43 156.21 293.35 150.19 283.37 144.01 281.13 142.62 279.52 142.68 277.29 143.95 267.09 149.75 256.77 155.35 246.53 161.08 244.87 162.01 243.39 162.69 241.96 160.86 240.46 158.94 237.15 158.63 238.24 154.55 241.34 142.98 243.9 131.27 246.46 119.57 246.74 118.31 246.05 116.41 245.14 115.41 242.54 112.57 239.59 110.05 236.48 107.12 239.14 104.29 241.66 101.62 244.42 98.69 249.28 103.23 254.07 107.42 258.43 112 259.4 113.02 259.33 115.55 258.98 117.22 257.4 124.79 255.54 132.31 253.8 139.84 253.52 141.03 253.32 142.23 252.93 144.17 261.16 139.62 268.83 135.53 276.33 131.14 279.25 129.43 281.66 129.33 284.54 131.12 291.95 135.72 299.49 140.12 307.78 145.08 306.79 139.62 305.96 134.93 305.08 130.24 304.3 126.07 303.62 121.87 302.61 117.75 301.92 114.93 302.75 113.01 304.88 111.21 310.8 106.21 316.62 101.09 322.47 96.01 323.38 95.22 324.24 94.35 325.69 92.98 314.36 91.63 303.74 90.37 293.07 89.1 291.34 79 285.68 70.26 281.96 59.72Z" class="MsftOfcThm_Accent1_Fill_v2" stroke-width="7.8406" fill="#2D0F64"/><path d="M127.26 79.98C126.76 83.85 126.3 87.41 125.81 91.29 120.31 90.73 115 90.34 109.75 89.52 108.67 89.35 107.51 87.72 106.96 86.5 103.67 79.09 100.55 71.6 97.37 64.14 96.88 63 96.35 61.87 95.55 60.08 92.78 66 89.71 71.24 87.83 76.88 84.89 85.67 80.14 90.96 70.07 89.86 67.03 89.53 63.86 90.38 60.75 90.66 57.65 90.94 54.55 91.17 50.81 91.48 51.8 92.61 52.33 93.34 52.99 93.95 58.56 99.15 64 104.52 69.81 109.45 72.87 112.04 73.39 114.78 72.52 118.36 70.6 126.24 68.82 134.15 66.99 142.06 66.88 142.53 66.84 143.02 66.66 144.21 74.88 139.64 82.68 135.38 90.39 130.97 93.18 129.37 95.59 129.46 98.31 131.16 105.82 135.84 113.43 140.34 121.56 145.24 119.84 136.04 118.38 127.44 116.56 118.92 115.82 115.45 116.38 112.95 119.26 110.74 122.52 108.24 125.54 105.43 129.06 102.4 131.58 105.28 134 108.04 137.07 111.56 136.27 111.96 135.59 112.28 134.92 112.64 128.52 116.04 128.14 121.07 129.86 127.6 132.3 136.88 133.52 146.47 135.67 155.83 136.58 159.82 133.61 160.55 131.65 162.41 129.67 164.29 128.32 162.89 126.76 161.95 116.7 155.89 106.61 149.89 96.61 143.75 94.75 142.61 93.37 142.64 91.51 143.69 81.18 149.52 70.67 155.04 60.45 161.05 56.91 163.13 55.59 160.24 53.38 159.13 51.17 158.01 51.6 156.36 52.08 154.37 54.9 142.73 57.64 131.06 60.22 119.36 60.47 118.21 59.9 116.36 59.04 115.56 50.1 107.2 41 99.01 32.02 90.69 31.36 90.08 30.8 88.82 30.93 87.99 31.93 81.77 32.19 81.52 38.44 80.96 49.39 79.97 60.34 78.99 71.31 78.15 73.6 77.98 74.82 77.17 75.77 75.04 80.65 64.1 85.75 53.26 90.65 42.33 92.01 39.29 94.7 40.41 96.8 40.19 97.95 40.07 99.92 41.16 100.39 42.21 105.03 52.57 109.6 62.97 113.83 73.5 115.29 77.13 116.94 79.46 121.24 79.14 123.05 79.01 124.92 79.63 127.26 79.98Z" class="MsftOfcThm_Accent1_Fill_v2" stroke-width="7.8406" fill="#2D0F64"/><path d="M58.05 190.89C38.71 190.89 19.52 190.89 0.03 190.89 0.03 187.03 0.03 183.48 0.03 179.42 1.06 179.37 2.25 179.26 3.43 179.26 21.05 179.25 38.67 179.23 56.29 179.26 65.48 179.27 69.84 183.62 69.84 192.76 69.86 232.61 69.85 272.47 69.84 312.32 69.84 321.68 65.47 326.02 56.08 326.03 38.71 326.05 21.34 326.04 3.97 326.04 2.74 326.04 1.51 326.04-8.43769e-15 326.04-8.43769e-15 322.19-8.43769e-15 318.62-8.43769e-15 314.64 19.18 314.64 38.48 314.64 58.05 314.64 58.05 273.23 58.05 232.22 58.05 190.89Z" class="MsftOfcThm_Accent1_Fill_v2" stroke-width="7.8406" fill="#2D0F64"/><path d="M42.85 296.26C42.85 300.74 39.31 304.37 34.88 304.42 30.3 304.47 26.63 300.72 26.72 296.07 26.8 291.58 30.37 288.12 34.88 288.16 39.38 288.2 42.85 291.72 42.85 296.26Z" class="MsftOfcThm_Accent1_Fill_v2" stroke-width="7.8406" fill="#2D0F64"/></svg>