<svg width="372.18" height="376.71" viewBox="0 0 372.18 376.71" xmlns="http://www.w3.org/2000/svg" xmlns:xlink="http://www.w3.org/1999/xlink" xml:space="preserve" overflow="visible"><style>
.MsftOfcThm_Accent1_Fill_v2 {
 fill:#2D0F64; 
}
</style>
<defs></defs><path d="M318.17 376.71C306.34 358.96 294.87 341.76 282.99 323.94 293.04 323.94 302.43 323.94 311.98 323.94 311.98 299.8 311.98 276.1 311.98 251.88 306.16 251.88 300.33 251.78 294.52 251.99 293.62 252.02 292.56 253.33 291.93 254.27 272.46 283.38 245.67 301.79 211.45 309.23 193.47 313.14 175.47 312.68 157.56 308.55 156.74 308.36 155.9 308.27 155.39 308.19 152.78 315.71 150.25 322.98 147.46 331 204.54 344.16 253.83 329.79 295.98 288.54 297.36 289.8 298.81 291.12 300.25 292.45 301.62 293.71 302.98 294.99 304.51 296.41 294.58 307.09 283.61 316.08 271.4 323.52 240.08 342.62 206.12 350.65 169.61 346.92 160.71 346.01 151.95 343.74 143.17 341.86 140.97 341.39 139.72 341.54 138.13 343.38 117.81 366.76 92.18 376.5 61.89 369.96 31.38 363.37 10.99 344.12 2.98 313.89-5.33 282.53 3.96 255.71 28.2 234.22 30.38 232.29 30.67 230.81 29.96 228.25 22.19 200.28 22.22 172.24 29.71 144.23 30.42 141.57 30.06 139.89 28.08 138 22.12 132.32 16.34 126.43 9.71 119.84 13.05 116.83 16.15 113.99 19.29 111.2 22.5 108.35 24.6 105.21 22.63 100.69 20.77 96.44 17.32 95.56 13.1 95.75 8.99 95.94 4.86 95.79 0.43 95.79 0.43 83.88 0.43 72.09 0.43 59.78 5.02 59.78 9.72 59.67 14.42 59.81 18.21 59.92 20.99 58.55 22.55 55.05 24.17 51.41 23.39 48.27 20.5 45.54 17.06 42.29 13.7 38.97 10.55 35.91 19.28 27.23 27.66 18.89 36.37 10.22 39.42 13.38 42.73 16.77 45.99 20.2 48.6 22.94 51.6 23.82 55.15 22.28 58.62 20.77 60.26 18.16 60.16 14.31 60.04 9.63 60.13 4.91 60.13 0 72.16 0 83.87 0 96.14 0 96.14 4.51 96.27 9.09 96.1 13.65 95.95 17.7 97.23 20.73 101.14 22.34 105.07 23.96 108.12 22.64 110.86 19.7 113.92 16.42 117.12 13.27 120.51 9.8 126.67 15.97 132.64 21.82 138.43 27.84 140.21 29.69 141.81 30.14 144.33 29.47 220.26 9.17 298.82 45.53 332.44 116.55 333.62 119.03 334.92 120.01 337.74 119.91 344.98 119.67 352.24 119.79 359.49 119.84 367.2 119.9 372.17 124.82 372.18 132.55 372.22 168.05 372.22 203.56 372.18 239.06 372.17 246.94 367.16 251.82 359.19 251.85 347.7 251.89 336.22 251.86 324.46 251.86 324.46 275.84 324.46 299.64 324.46 323.85 333.86 323.85 343.26 323.85 353.42 323.85 341.5 341.71 330.03 358.91 318.17 376.71ZM35.54 344.27C46.8 353.22 58.48 358.34 72.28 359.43 72.28 355.31 72.28 351.73 72.28 348.16 76.37 348.16 80.16 348.16 84.22 348.16 84.22 352.01 84.22 355.6 84.22 359.5 97.93 358.18 109.73 353.23 120.97 344.02 117.78 341.42 114.89 339.07 112.59 337.21 115.56 333.84 118.07 330.98 120.98 327.68 123.55 330.67 125.91 333.42 128.51 336.45 137.43 325.47 142.48 313.71 143.72 299.84 139.76 299.84 136.08 299.84 132.42 299.84 132.42 295.64 132.42 291.85 132.42 287.79 136.28 287.79 139.86 287.79 143.72 287.79 142.49 274.06 137.44 262.3 128.27 251.01 125.66 254.23 123.31 257.12 121.55 259.29 118.19 256.37 115.32 253.87 111.99 250.98 114.93 248.46 117.67 246.1 120.7 243.5 109.71 234.6 97.96 229.51 84.09 228.29 84.09 232.25 84.09 235.94 84.09 239.6 79.89 239.6 76.1 239.6 72.05 239.6 72.05 235.74 72.05 232.16 72.05 228.27 58.34 229.58 46.55 234.55 35.27 243.79 38.48 246.38 41.38 248.72 43.68 250.58 40.73 253.94 38.22 256.79 35.32 260.09 32.74 257.1 30.38 254.36 27.77 251.35 18.83 262.3 13.83 274.08 12.54 287.93 16.5 287.93 20.19 287.93 23.87 287.93 23.87 292.13 23.87 295.92 23.87 299.98 20.02 299.98 16.44 299.98 12.86 299.98 12.74 311.12 19.79 328.13 28.28 336.44 30.61 333.55 32.96 330.65 34.71 328.48 38.11 331.39 41.01 333.87 44.35 336.73 41.35 339.28 38.61 341.64 35.54 344.27ZM278.48 119.57C251.64 80.54 199.59 63.01 156.03 76.2 156.03 82.6 156.03 89.14 156.03 95.82 151.2 95.82 146.83 95.81 142.46 95.82 137.1 95.83 134.26 97.73 133.13 102.07 132.11 105.98 133.99 109.4 138.57 111.91 145.87 101.95 155.61 96.19 168.05 95.89 180.04 95.61 192.05 95.72 204.05 95.87 212.86 95.99 220.65 99.08 227.32 104.86 239.21 115.16 242.99 130.4 237.56 146.48 236.68 149.08 236.58 151.13 238.02 153.78 244.17 165.1 236.15 178.99 223.24 179.78 221.67 179.88 220.09 179.79 218.49 179.79 217.77 187.27 215.26 193.35 209.8 198 206.66 200.67 207.25 204.3 211.04 205.88 237.32 216.88 252.14 239.09 252.17 267.58 252.17 271.01 252.17 274.44 252.17 278.61 262.84 270.93 271.41 262.42 278.84 252.05 267.94 251.29 264.18 247.21 264.18 236.94 264.18 203.06 264.18 169.18 264.18 135.31 264.16 124.46 267.54 120.65 278.48 119.57ZM359.94 239.79C359.94 203.68 359.94 167.89 359.94 132.1 331.93 132.1 304.14 132.1 276.45 132.1 276.45 168.15 276.45 203.94 276.45 239.79 304.36 239.79 331.96 239.79 359.94 239.79ZM76.21 155.91C70.78 176.14 70.75 195.93 76.26 215.8 95.9 215.69 113.08 221.76 128.07 233.96 128.52 233.55 128.86 233.35 129.03 233.05 136.76 220.15 147.65 211.05 161.68 205.62 165.03 204.32 165.23 200.75 162.75 198.12 160.3 195.52 157.91 192.68 156.28 189.54 154.78 186.65 154.33 183.22 153.39 179.95 152.92 179.92 152.43 179.82 151.94 179.85 136.35 180.93 126.9 164.05 135.13 151.99 135.57 151.34 135.89 150.31 135.71 149.6 134.45 144.73 133.03 139.9 131.45 134.31 127.79 138.32 124.38 142.06 120.63 146.17 117.01 142.4 113.86 139.2 110.81 135.91 108.09 132.96 105.04 131.62 101.11 133.31 97.25 134.97 95.94 137.97 96.1 142.04 96.28 146.6 96.14 151.17 96.14 155.92 89.19 155.91 82.83 155.91 76.21 155.91ZM320.82 119.82C319.67 117.58 318.85 115.8 317.87 114.12 287.03 61.38 241 35.3 179.97 35.98 166.06 36.13 152.44 38.95 139.22 43.38 135.01 44.79 132.31 49.05 132.99 52.91 133.77 57.29 136.92 59.78 141.81 59.81 145.68 59.83 149.56 59.8 153.43 59.82 154.28 59.82 155.13 59.95 155.9 60.01 156.12 61.21 156.31 62.24 156.52 63.39 179.29 57.96 201.64 58.61 223.68 65.64 252.46 74.82 275.15 92.16 291.88 117.32 292.56 118.34 293.78 119.69 294.78 119.71 303.24 119.91 311.7 119.82 320.82 119.82ZM12.31 83.79C22.38 83.27 29.95 86.97 33.75 96.36 37.54 105.71 34.75 113.66 27.68 119.86 30.5 122.89 33.1 125.69 35.86 128.64 42.53 121 50.53 118.38 59.86 122.31 69.14 126.22 72.71 133.89 72.23 143.55 76.42 143.55 80.22 143.55 84.16 143.55 83.53 133.69 87.15 126.3 96.14 122.42 105.58 118.34 113.7 120.99 120.4 128.62 123.26 125.74 125.97 123.01 128.87 120.09 121.46 113.57 118.68 105.62 122.53 96.25 126.38 86.88 133.97 83.24 143.93 83.77 143.93 79.69 143.93 75.9 143.93 71.81 133.88 72.42 126.36 68.65 122.53 59.3 118.7 49.95 121.55 42.01 128.65 35.73 125.81 32.72 123.19 29.94 120.41 26.99 113.76 34.62 105.76 37.25 96.42 33.32 87.14 29.42 83.53 21.77 84.06 12.06 79.85 12.06 76.06 12.06 72.1 12.06 72.71 21.9 69.11 29.31 60.12 33.19 50.69 37.26 42.55 34.68 35.83 27.02 32.99 29.9 30.3 32.63 27.43 35.55 34.77 42.04 37.59 49.99 33.71 59.35 29.85 68.67 22.27 72.38 12.3 71.85 12.31 75.87 12.31 79.57 12.31 83.79ZM166.77 138.55C165.16 134.68 163.71 131.18 162.13 127.37 166.42 126.29 170.02 125.39 173.77 124.44 174.28 125.74 174.67 126.9 175.18 128.02 179.39 137.35 186.6 142.99 196.76 143.63 206.32 144.24 215.95 143.76 225.53 143.76 233.28 127.63 222.41 108.62 204.74 107.96 192.4 107.5 180.01 107.52 167.67 107.95 149.86 108.56 138.28 128.97 146.91 143.69 154.32 144.9 160.66 142.36 166.77 138.55ZM60.13 155.6C60.13 150.61 60.08 145.75 60.15 140.9 60.2 137.72 58.92 135.35 56.17 133.8 51.21 131.01 45.53 133.36 43.64 139.12 36.2 161.81 34.23 184.98 37.92 208.59 38.77 214.04 40.11 219.42 41.14 224.48 49.1 221.72 56.45 219.17 63.98 216.56 58.92 196.55 58.83 176.4 63.71 156.13 62.47 155.94 61.4 155.78 60.13 155.6ZM212.52 257.64C207.98 252.69 204.07 248.44 200.05 244.07 198.41 247.21 206.02 290.4 209.1 297.48 219.15 295.47 228.68 291.93 237.88 287.39 239.81 286.44 240.22 285.24 240.19 283.3 240.09 277.43 240.19 271.56 240.14 265.69 240.03 251.97 235.22 240.11 225.95 230.04 225.08 229.09 224.07 228.26 222.77 227.04 219.39 237.14 216.19 246.69 212.52 257.64ZM209.38 155.84C205.71 155.84 202.31 156.21 199.02 155.75 194 155.06 188.96 154.13 184.12 152.67 180.89 151.7 177.96 148.37 174.94 148.43 171.67 148.49 168.51 151.4 165.18 152.8 163.41 153.54 162.66 154.37 162.93 156.36 164.05 164.64 164.89 172.96 166.13 181.22 167.12 187.84 171.86 191.72 178.58 191.82 183.7 191.9 188.82 191.91 193.93 191.81 200.22 191.69 204.86 188.2 205.89 182.07 207.34 173.51 208.22 164.84 209.38 155.84ZM159.63 257.16C156.1 246.66 152.87 237.01 149.63 227.36 149.25 227.21 148.88 227.05 148.5 226.9 145.26 231.38 142.06 235.88 138.76 240.32 137.33 242.25 137.65 243.68 139.15 245.53 146.74 254.89 151.9 265.52 154.29 277.32 155.52 283.39 155.93 289.62 156.72 295.95 158.82 296.44 161.07 296.96 163.3 297.48 163.6 296.85 163.84 296.53 163.91 296.19 167.1 280.3 170.31 264.4 173.41 248.49 173.66 247.21 173.14 245.78 172.98 244.42 172.63 244.32 172.27 244.21 171.92 244.11 168.01 248.26 164.09 252.42 159.63 257.16ZM196.74 299.4C193.62 283.83 190.67 269.05 187.63 254.28 187.45 253.41 186.53 252.7 185.95 251.92 185.5 252.7 184.83 253.43 184.63 254.28 183.91 257.31 183.34 260.38 182.73 263.43 180.37 275.24 178.02 287.06 175.56 299.4 182.76 299.4 189.52 299.4 196.74 299.4ZM318.18 355.06C322.58 348.45 326.56 342.48 330.72 336.22 322.14 336.22 314.08 336.22 305.6 336.22 309.88 342.62 313.86 348.59 318.18 355.06ZM212.4 220.06C203.99 215.31 206.27 215.43 196.66 222.42 200.4 226.11 204.21 229.88 207.92 233.55 209.3 229.39 210.86 224.7 212.4 220.06ZM159.82 219.85C161.4 224.58 163 229.4 164.57 234.12 168.55 230.17 172.31 226.44 176.06 222.72 168.42 215.89 167.48 215.7 159.82 219.85ZM186.22 203.85C183.61 203.85 180.97 203.6 178.41 203.97 177.39 204.12 175.99 205.51 175.77 206.55 175.36 208.51 185.67 214.8 187.42 213.74 190.17 212.06 192.89 210.29 195.45 208.34 196.1 207.85 196.54 206.39 196.3 205.62 196.07 204.87 194.88 204 194.04 203.93 191.45 203.71 188.83 203.85 186.22 203.85ZM150.79 155.98C146.24 156.38 143.77 158.92 144.2 162.51 144.65 166.29 147.81 168.22 152.29 167.32 151.79 163.55 151.29 159.76 150.79 155.98ZM220 167.56C223.02 168.22 225.78 167.73 226.91 165.11 227.72 163.24 227.73 160.43 226.88 158.61 226.18 157.12 223.69 156.46 221.55 155.17 220.94 160.06 220.48 163.73 220 167.56ZM186.17 230.71C181.25 234.75 180.62 236.33 183.58 238.88 184.61 239.77 187.64 239.78 188.68 238.91 191.63 236.46 190.99 234.77 186.17 230.71Z" class="MsftOfcThm_Accent1_Fill_v2" stroke-width="5.15578" fill="#2D0F64"/><path d="M43.87 268.27C46.96 265.48 49.73 262.99 53.08 259.97 55.67 262.66 58.64 265.78 61.66 268.87 63.84 271.11 66.15 273.22 68.25 275.53 69.68 277.11 70.99 277.15 73.1 276.82 76.57 276.28 80.2 276.85 83.76 276.78 85.05 276.75 86.73 276.62 87.55 275.82 90.95 272.54 94.09 268.98 97.49 265.35 100.56 268.64 103.09 271.36 106.03 274.5 103 277.53 99.76 280.91 96.35 284.12 94.88 285.5 94.64 286.67 95.25 288.67 97.58 296.32 94.86 304.03 88.54 308.56 82.37 312.98 74.04 313 67.82 308.6 61.48 304.12 58.67 296.37 61.05 288.75 61.75 286.53 61.22 285.35 59.74 283.92 54.44 278.8 49.25 273.59 43.87 268.27ZM78.23 299.85C81.47 299.79 84.16 297.01 84.1 293.77 84.04 290.52 81.27 287.84 78.03 287.9 74.78 287.96 72.11 290.73 72.17 293.98 72.22 297.23 75 299.91 78.23 299.85Z" class="MsftOfcThm_Accent1_Fill_v2" stroke-width="5.15578" fill="#2D0F64"/><path d="M348 144.11C348 148.05 348 151.75 348 155.65 328.15 155.65 308.46 155.65 288.47 155.65 288.47 151.96 288.47 148.17 288.47 144.11 308.13 144.11 327.91 144.11 348 144.11Z" class="MsftOfcThm_Accent1_Fill_v2" stroke-width="5.15578" fill="#2D0F64"/><path d="M288.33 179.59C288.33 175.63 288.33 171.93 288.33 168.04 308.19 168.04 327.87 168.04 347.86 168.04 347.86 171.74 347.86 175.53 347.86 179.59 328.19 179.59 308.41 179.59 288.33 179.59Z" class="MsftOfcThm_Accent1_Fill_v2" stroke-width="5.15578" fill="#2D0F64"/><path d="M288.34 203.6C288.34 199.62 288.34 195.92 288.34 192.04 308.2 192.04 327.89 192.04 347.87 192.04 347.87 195.76 347.87 199.55 347.87 203.6 328.18 203.6 308.4 203.6 288.34 203.6Z" class="MsftOfcThm_Accent1_Fill_v2" stroke-width="5.15578" fill="#2D0F64"/><path d="M288.33 227.6C288.33 223.65 288.33 219.95 288.33 215.86 298.32 215.86 308.14 215.86 317.97 215.86 327.83 215.86 337.69 215.86 347.86 215.86 347.86 219.75 347.86 223.54 347.86 227.6 328.19 227.6 308.42 227.6 288.33 227.6Z" class="MsftOfcThm_Accent1_Fill_v2" stroke-width="5.15578" fill="#2D0F64"/><path d="M77.97 119.82C54.89 119.74 36.06 100.76 36.14 77.66 36.22 54.57 55.19 35.75 78.3 35.83 101.4 35.91 120.21 54.86 120.13 77.99 120.05 101.08 101.08 119.9 77.97 119.82ZM78.12 47.83C61.58 47.83 48.1 61.36 48.14 77.92 48.18 94.29 61.59 107.74 77.95 107.82 94.5 107.9 108.09 94.43 108.12 77.9 108.16 61.34 94.67 47.82 78.12 47.83Z" class="MsftOfcThm_Accent1_Fill_v2" stroke-width="5.15578" fill="#2D0F64"/><path d="M96.12 77.68C96.19 87.64 88.02 95.84 78.08 95.81 68.29 95.79 60.2 87.74 60.14 77.95 60.08 67.98 68.22 59.8 78.18 59.83 87.99 59.85 96.06 67.89 96.12 77.68ZM84.1 77.84C84.11 74.59 81.39 71.86 78.15 71.85 74.9 71.84 72.18 74.55 72.17 77.81 72.16 81.06 74.88 83.79 78.12 83.8 81.35 83.8 84.09 81.08 84.1 77.84Z" class="MsftOfcThm_Accent1_Fill_v2" stroke-width="5.15578" fill="#2D0F64"/></svg>