<svg width="359.81" height="364.99" viewBox="0 0 359.81 364.99" xmlns="http://www.w3.org/2000/svg" xmlns:xlink="http://www.w3.org/1999/xlink" xml:space="preserve" overflow="visible"><style>
.MsftOfcThm_Accent1_Fill_v2 {
 fill:#2D0F64; 
}
</style>
<defs></defs><path d="M191.72 155.96C194.27 146.04 196.83 136.53 199.06 126.95 199.48 125.15 199.12 122.72 198.18 121.13 192.88 112.08 187.29 103.19 181.79 94.26 181.22 93.34 180.57 92.46 179.67 91.15 175.6 97.75 171.72 103.96 167.92 110.22 165.14 114.8 160.92 119.2 160.15 124.12 159.4 128.89 162.22 134.22 163.5 139.3 164.87 144.73 166.28 150.15 167.78 156.01 163.95 156.99 160.26 157.93 156.21 158.97 154.44 152.2 152.73 145.63 150.79 138.19 147.53 143.45 144.67 148.05 141.59 153.02 138.19 150.94 134.95 148.95 131.41 146.79 134.32 142.02 137.08 137.49 140.28 132.24 132.87 134.01 126.24 135.6 119.15 137.29 118.21 133.55 117.29 129.88 116.25 125.73 124.02 123.81 131.38 121.35 138.94 120.29 146.78 119.2 151.51 115.35 155.07 108.49 159.07 100.79 164.04 93.59 168.99 85.51 165.25 85.51 162.2 85.51 159.14 85.51 151.01 85.51 142.89 85.65 134.77 85.44 131.78 85.36 129.58 86.11 127.57 88.34 121.04 95.59 114.38 102.7 108.09 109.52 103.98 105.87 101.12 103.34 98.26 100.8 103.19 95.71 107.83 90.91 112.94 85.63 107 85.63 101.59 85.63 95.97 85.63 95.97 81.46 95.97 77.67 95.97 73.5 101.51 73.5 106.93 73.5 112.92 73.5 107.72 68.31 103 63.61 97.93 58.54 101.06 55.76 103.91 53.23 106.96 50.53 113.94 57.33 121.21 64.52 128.64 71.55 129.76 72.61 131.62 73.41 133.14 73.43 144.14 73.59 155.14 73.52 166.14 73.51 166.85 73.51 167.56 73.43 168.9 73.35 166.38 69.24 164.12 65.56 161.87 61.88 158.28 56.02 154.83 50.07 151 44.37 149.89 42.72 147.85 41.17 145.94 40.66 136.31 38.08 126.59 35.85 116.35 33.36 117.28 29.4 118.17 25.62 119.09 21.71 126.15 23.4 132.78 24.98 140.26 26.77 137.08 21.55 134.34 17.03 131.44 12.25 134.79 10.17 137.95 8.2 141.56 5.96 144.52 10.72 147.44 15.4 150.8 20.79 152.73 13.39 154.43 6.84 156.21 0.01 160.14 1.02 163.83 1.97 167.79 2.98 165.3 12.71 162.97 22.13 160.42 31.49 159.7 34.12 160.06 36.14 161.52 38.45 167.58 48.03 173.44 57.74 179.73 67.98 181.62 64.95 183.25 62.36 184.85 59.75 189.3 52.52 193.66 45.22 198.24 38.07 199.58 35.98 199.77 34.1 199.15 31.78 196.64 22.38 194.27 12.94 191.73 3.05 195.49 2.06 199.16 1.1 203.28 0.02 205.05 6.77 206.76 13.34 208.71 20.81 212 15.5 214.91 10.82 217.94 5.94 221.4 8.07 224.56 10.01 228.08 12.18 225.22 16.9 222.47 21.43 219.24 26.76 226.7 25 233.39 23.42 240.42 21.76 241.35 25.62 242.24 29.32 243.21 33.34 233.26 35.78 223.73 38.22 214.15 40.4 211.39 41.03 209.58 42.22 208.11 44.7 202.51 54.13 196.69 63.42 190.69 73.19 192.05 73.32 192.96 73.48 193.88 73.48 204.63 73.5 215.38 73.57 226.13 73.4 227.77 73.37 229.84 72.59 230.96 71.43 237.97 64.12 244.76 56.61 251.48 49.32 255.49 53.13 258.24 55.75 260.81 58.2 256.2 62.97 251.54 67.78 246.27 73.23 252.45 73.23 257.82 73.23 263.48 73.23 263.48 77.42 263.48 81.21 263.48 85.38 258.12 85.38 252.69 85.38 247.37 85.38 252.14 90.26 256.79 95.02 261.59 99.94 258.3 102.83 255.44 105.34 252.24 108.15 247.59 103.62 241.77 98.68 236.85 92.96 231.79 87.07 226.13 84.73 218.34 85.34 209.4 86.04 200.36 85.5 190.8 85.5 191.45 86.77 191.87 87.73 192.41 88.62 197.69 97.25 203.07 105.82 208.23 114.52 209.55 116.75 211.16 117.92 213.66 118.49 223.37 120.73 233.03 123.16 243.16 125.62 242.23 129.59 241.37 133.29 240.44 137.24 233.42 135.57 226.71 133.98 219.22 132.2 222.39 137.41 225.1 141.86 228.07 146.75 224.76 148.82 221.54 150.83 217.98 153.05 214.96 148.23 212.03 143.55 208.69 138.21 206.8 145.52 205.12 151.99 203.33 158.92 199.44 157.93 195.67 156.97 191.72 155.96Z" class="MsftOfcThm_Accent1_Fill_v2" stroke-width="4.98946" fill="#2D0F64"/><path d="M131.51 247.44C133.08 216.47 156.84 200.27 178.16 199.49 200.25 198.69 226.24 214.82 228.13 247.43 236.94 247.87 244.92 250.64 251.6 256.63 262.87 266.72 266.7 282.18 261.43 296.27 256.28 310.03 243.14 319.44 228.21 319.5 195.97 319.64 163.73 319.67 131.49 319.5 112.2 319.4 96.43 303.99 95.79 285.12 95.12 265.52 109.51 249.3 129.07 247.62 129.81 247.56 130.54 247.51 131.51 247.44ZM155.89 283.37C155.8 282.46 155.75 281.72 155.65 280.99 153.95 268.83 144.52 259.99 132.8 259.56 119.43 259.07 108.16 269.47 107.77 282.65 107.37 296.18 117.85 307.45 131.38 307.51 163.62 307.64 195.87 307.59 228.11 307.48 230.8 307.47 233.6 306.87 236.15 305.96 247.66 301.84 254.01 289.48 250.99 277.49 248.2 266.43 237.15 258.5 226.25 259.89 223.75 268.12 219.89 275.62 213.89 281.14 210.84 278.28 208.12 275.75 205.41 273.21 218.18 255.77 219.15 239.61 208.27 225.53 198.46 212.84 181.34 208.14 166.51 214.07 152 219.87 142.46 234.9 144.04 249.51 160 257.6 168.75 270.19 167.43 283.38 163.72 283.37 160.01 283.37 155.89 283.37Z" class="MsftOfcThm_Accent1_Fill_v2" stroke-width="4.98946" fill="#2D0F64"/><path d="M113.73 181.81C113.51 205.08 94.47 223.72 71.13 223.52 48.14 223.32 29.53 204.22 29.74 181.02 29.94 157.83 49.1 139.24 72.5 139.51 95.3 139.78 113.96 158.92 113.73 181.81ZM71.9 151.51C55.47 151.43 41.88 164.74 41.74 181.06 41.6 197.87 55.02 211.49 71.77 211.52 88.13 211.55 101.63 198.15 101.73 181.77 101.83 165.16 88.46 151.6 71.9 151.51Z" class="MsftOfcThm_Accent1_Fill_v2" stroke-width="4.98946" fill="#2D0F64"/><path d="M324.09 133.27C329.77 133.53 335.22 133.21 340.44 134.15 352.67 136.35 360.84 147.58 359.69 159.76 358.54 171.95 348.42 181.4 336.01 181.48 315.78 181.62 295.54 181.52 275.31 181.52 260.95 181.52 246.58 181.52 232.22 181.52 230.87 181.52 229.52 181.52 227.97 181.52 227.97 177.53 227.97 173.83 227.97 169.52 229.3 169.52 230.73 169.52 232.16 169.52 266.38 169.52 300.6 169.5 334.82 169.54 339.89 169.54 343.81 167.61 346.28 163.16 348.45 159.24 348.32 155.22 346.01 151.4 343.71 147.6 340.24 145.6 335.77 145.54 331.92 145.49 328.07 145.53 324.08 145.53 324.09 141.36 324.09 137.48 324.09 133.27Z" class="MsftOfcThm_Accent1_Fill_v2" stroke-width="4.98946" fill="#2D0F64"/><path d="M245.93 205.53C245.93 201.32 245.93 197.62 245.93 193.7 246.66 193.63 247.25 193.54 247.84 193.54 269.19 193.53 290.54 193.47 311.9 193.56 322.53 193.61 331.55 200.42 334.67 210.41 337.79 220.39 334.23 231.37 325.4 237.1 322.16 239.2 318.17 240.86 314.37 241.24 307.72 241.9 300.95 241.43 294 241.43 294 237.5 294 233.71 294 229.55 299.58 229.55 305.03 229.57 310.49 229.55 318.36 229.51 323.82 224.51 323.75 217.43 323.68 210.5 318.27 205.57 310.61 205.56 290.51 205.54 270.4 205.55 250.3 205.55 248.96 205.53 247.61 205.53 245.93 205.53Z" class="MsftOfcThm_Accent1_Fill_v2" stroke-width="4.98946" fill="#2D0F64"/><path d="M110.66 357.17C120.02 347.79 129.87 337.92 139.84 327.93 142.08 330.42 144.57 333.18 146.9 335.76 137.36 345.15 127.45 354.92 117.4 364.81 115.46 362.6 112.94 359.75 110.66 357.17Z" class="MsftOfcThm_Accent1_Fill_v2" stroke-width="4.98946" fill="#2D0F64"/><path d="M159.76 364.8C157.33 362.39 154.7 359.77 152.4 357.49 162.13 347.77 171.99 337.9 181.95 327.95 184.29 330.32 186.92 332.97 189.26 335.34 179.35 345.22 169.49 355.08 159.76 364.8Z" class="MsftOfcThm_Accent1_Fill_v2" stroke-width="4.98946" fill="#2D0F64"/><path d="M194.42 357.26C204.01 347.72 213.9 337.88 223.9 327.94 226.22 330.35 228.81 333.02 231.15 335.45 221.35 345.19 211.47 355.02 201.45 364.98 199.35 362.68 196.78 359.86 194.42 357.26Z" class="MsftOfcThm_Accent1_Fill_v2" stroke-width="4.98946" fill="#2D0F64"/><path d="M65.95 109.68C69.8 109.68 73.5 109.68 77.47 109.68 77.47 115.45 77.47 121.23 77.47 127.26 73.73 127.26 69.94 127.26 65.95 127.26 65.95 121.41 65.95 115.64 65.95 109.68Z" class="MsftOfcThm_Accent1_Fill_v2" stroke-width="4.98946" fill="#2D0F64"/><path d="M197.84 181.28C197.84 177.35 197.84 173.74 197.84 169.83 203.64 169.83 209.42 169.83 215.49 169.83 215.49 173.47 215.49 177.25 215.49 181.28 209.74 181.28 203.96 181.28 197.84 181.28Z" class="MsftOfcThm_Accent1_Fill_v2" stroke-width="4.98946" fill="#2D0F64"/><path d="M17.66 175.75C17.66 179.71 17.66 183.31 17.66 187.22 11.84 187.22 6.06 187.22 0 187.22 0 183.56 0 179.77 0 175.75 5.77 175.75 11.54 175.75 17.66 175.75Z" class="MsftOfcThm_Accent1_Fill_v2" stroke-width="4.98946" fill="#2D0F64"/><path d="M125.82 187.3C125.82 183.32 125.82 179.71 125.82 175.82 131.66 175.82 137.44 175.82 143.49 175.82 143.49 179.51 143.49 183.29 143.49 187.3 137.7 187.3 131.92 187.3 125.82 187.3Z" class="MsftOfcThm_Accent1_Fill_v2" stroke-width="4.98946" fill="#2D0F64"/><path d="M77.55 253.38C73.63 253.38 69.94 253.38 65.99 253.38 65.99 247.54 65.99 241.76 65.99 235.76 69.8 235.76 73.58 235.76 77.55 235.76 77.55 241.58 77.55 247.27 77.55 253.38Z" class="MsftOfcThm_Accent1_Fill_v2" stroke-width="4.98946" fill="#2D0F64"/><path d="M27.87 130.06C31.64 133.86 35.45 137.72 39.4 141.71 36.93 143.98 34.2 146.5 31.8 148.71 28.12 145.04 24.22 141.15 20.2 137.13 22.5 135.01 25.23 132.49 27.87 130.06Z" class="MsftOfcThm_Accent1_Fill_v2" stroke-width="4.98946" fill="#2D0F64"/><path d="M27.78 233.29C25.23 230.71 22.57 228 19.99 225.39 23.9 221.57 27.78 217.78 31.78 213.88 34.2 216.34 36.85 219.05 39.33 221.58 35.51 225.45 31.7 229.32 27.78 233.29Z" class="MsftOfcThm_Accent1_Fill_v2" stroke-width="4.98946" fill="#2D0F64"/><path d="M115.56 232.94C111.78 229.14 107.95 225.29 103.99 221.3 106.47 219 109.2 216.47 111.63 214.22 115.33 217.95 119.21 221.86 123.2 225.88 120.91 227.99 118.19 230.51 115.56 232.94Z" class="MsftOfcThm_Accent1_Fill_v2" stroke-width="4.98946" fill="#2D0F64"/></svg>