<svg width="512" height="512" viewBox="0 0 512 512" xmlns="http://www.w3.org/2000/svg" xmlns:xlink="http://www.w3.org/1999/xlink" overflow="hidden"><style>
.MsftOfcThm_Accent1_Fill_v2 {
 fill:#2D0F64; 
}
</style>
<g id="OUTLINE"><path d="M376 176C371.584 175.995 368.005 172.416 368 168L352 168C352 181.255 362.745 192 376 192 389.255 192 400 181.255 400 168L384 168C383.995 172.416 380.416 175.995 376 176Z" class="MsftOfcThm_Accent1_Fill_v2" stroke-width="6.91906" fill="#2D0F64"/><rect x="352" y="128" width="16" height="16" class="MsftOfcThm_Accent1_Fill_v2" stroke-width="6.91906" fill="#2D0F64"/><rect x="384" y="128" width="16" height="16" class="MsftOfcThm_Accent1_Fill_v2" stroke-width="6.91906" fill="#2D0F64"/><path d="M144 192C139.584 191.995 136.005 188.416 136 184L120 184C120 197.255 130.745 208 144 208 157.255 208 168 197.255 168 184L152 184C151.995 188.416 148.416 191.995 144 192Z" class="MsftOfcThm_Accent1_Fill_v2" stroke-width="6.91906" fill="#2D0F64"/><path d="M454.734 270.636 408 257.89 408 223.64C430.783 210.951 443.862 185.951 441.294 160L448 160C461.255 160 472 149.255 472 136 472 122.745 461.255 112 448 112L436.255 112 434.418 94.5547 448.723 94.5547C459.607 94.5377 470.001 90.0207 477.439 82.0742 484.916 74.1203 488.713 63.3943 487.905 52.5078 486.489 33.0142 470.986 17.5112 451.492 16.0947L451.491 16.0947C436.509 14.9974 422.222 22.5751 414.728 35.5937 410.709 42.7056 403.22 47.1528 395.053 47.2773L393.815 47.2773C386.75 47.262 380.081 44.009 375.72 38.4502 356.044 13.1325 319.57 8.55856 294.252 28.234 268.935 47.9095 264.361 84.3836 284.036 109.701 285.897 112.096 287.942 114.34 290.154 116.415 279.331 124.056 276.751 139.023 284.391 149.846 288.888 156.217 296.202 160.004 304 160L310.706 160C308.138 185.951 321.217 210.951 344 223.64L344 257.89 297.265 270.636C284.178 274.205 272.832 282.402 265.334 293.706L278.666 302.552C284.022 294.477 292.127 288.621 301.475 286.071L350.768 272.628C366.415 281.516 385.585 281.516 401.232 272.628L450.525 286.071C467.91 290.844 479.97 306.634 480 324.662L480 496 496 496 496 324.662C495.958 299.423 479.073 277.317 454.734 270.636ZM448 128C452.418 128 456 131.582 456 136 456 140.418 452.418 144 448 144L439.623 144 437.939 128ZM287.873 71.9854C289.007 50.0768 306.749 32.6973 328.677 32.0166 329.08 32.0059 329.482 32.0003 329.882 32 342.882 31.9486 355.161 37.9652 363.087 48.2695 370.44 57.7768 381.797 63.3234 393.815 63.2773L395.053 63.2773C408.923 63.1434 421.68 55.6611 428.567 43.6211 435.003 32.4903 449.244 28.6844 460.375 35.1202 471.505 41.5561 475.311 55.7966 468.875 66.9274 464.715 74.1227 457.034 78.5542 448.723 78.5547L378.654 78.5547C353.292 78.4859 328.957 88.5662 311.072 106.549L307.788 109.833 307.786 109.833C294.719 101.815 287.08 87.2956 287.873 71.9854ZM312.377 144 304 144C299.582 144 296 140.418 296 136 296 131.582 299.582 128 304 128L314.062 128ZM392 259.432C381.952 264.57 370.048 264.57 360 259.432L360 229.994C370.499 232.669 381.501 232.669 392 229.994ZM376 216C348.598 216.001 326.384 193.788 326.384 166.386 326.383 164.65 326.475 162.916 326.656 161.189L332.086 109.603C345.624 99.7824 361.93 94.5132 378.654 94.5547L418.33 94.5547 425.344 161.189C428.213 188.441 408.448 212.858 381.196 215.727 379.47 215.909 377.736 216 376 216Z" class="MsftOfcThm_Accent1_Fill_v2" stroke-width="6.91906" fill="#2D0F64"/><rect x="424" y="352" width="16" height="144" class="MsftOfcThm_Accent1_Fill_v2" stroke-width="6.91906" fill="#2D0F64"/><rect x="120" y="144" width="16" height="16" class="MsftOfcThm_Accent1_Fill_v2" stroke-width="6.91906" fill="#2D0F64"/><rect x="152" y="144" width="16" height="16" class="MsftOfcThm_Accent1_Fill_v2" stroke-width="6.91906" fill="#2D0F64"/><path d="M223.482 283.662 176 266.396 176 240.055C182.583 236.538 188.546 231.966 193.651 226.521 205.638 213.869 212.257 197.066 212.118 179.639 230.065 161.716 240.103 137.363 240 112 240 58.9807 197.019 16 144 16 90.9807 16 48 58.9807 48 112 47.8966 137.363 57.935 161.716 75.8816 179.639 75.7433 197.066 82.3622 213.869 94.3486 226.521 99.4538 231.966 105.417 236.538 112 240.055L112 266.396 64.5176 283.662C40.1044 292.479 23.4681 315.209 22.4453 341.146L16.0068 495.667 31.9932 496.333 38.4316 341.812C38.9929 327.614 45.8382 314.4 57.1125 305.752L80.0566 496.953 95.9434 495.047 72.2815 297.865 116.534 281.773 121.179 289.515C130.876 305.678 135.999 324.173 136 343.022L136 344C136 348.418 139.582 352 144 352 148.418 352 152 348.418 152 344L152 343.022C152.001 324.173 157.124 305.678 166.821 289.515L171.466 281.773 215.719 297.865 192.057 495.047 207.943 496.953 230.887 305.752C242.162 314.4 249.007 327.614 249.568 341.812L256.007 496.333 271.993 495.667 265.555 341.146C264.532 315.209 247.896 292.479 223.482 283.662ZM80.0156 111.501 77.2285 156.093C68.5513 143.029 63.9474 127.683 64 112 64 67.8172 99.8172 32 144 32 188.183 32 224 67.8172 224 112 224.053 127.683 219.449 143.029 210.771 156.093L207.984 111.501C207.721 107.285 204.224 104 200 104L88 104C83.7756 104 80.2793 107.285 80.0156 111.501ZM160 269.784 153.101 281.282C149.534 287.228 146.489 293.472 144 299.943 141.511 293.472 138.466 287.228 134.899 281.282L128 269.784 128 246.114C138.518 248.629 149.482 248.629 160 246.114ZM144 232C115.213 232.001 91.8756 208.664 91.875 179.877 91.875 178.792 91.9089 177.707 91.9766 176.624L95.5156 120 192.484 120 196.023 176.624C197.82 205.355 175.984 230.102 147.253 231.898 146.17 231.966 145.085 232 144 232Z" class="MsftOfcThm_Accent1_Fill_v2" stroke-width="6.91906" fill="#2D0F64"/><rect x="312" y="352" width="16" height="144" class="MsftOfcThm_Accent1_Fill_v2" stroke-width="6.91906" fill="#2D0F64"/></g></svg>