<svg width="512" height="512" viewBox="0 0 512 512" xmlns="http://www.w3.org/2000/svg" xmlns:xlink="http://www.w3.org/1999/xlink" id="Capa_1" overflow="hidden"><style>
.MsftOfcThm_Accent1_Fill_v2 {
 fill:#2D0F64; 
}
</style>
<g><path d="M445.729 371.072C453.824 361.736 458.282 349.778 458.282 337.4 458.282 309.026 435.201 285.942 406.83 285.942 391.891 285.942 377.713 292.423 367.929 303.724 359.835 313.066 355.378 325.026 355.378 337.4 355.378 365.771 378.459 388.852 406.83 388.852 421.771 388.851 435.95 382.37 445.729 371.072ZM370.39 337.4C370.39 328.636 373.545 320.166 379.276 313.553 379.276 313.552 379.277 313.551 379.278 313.551 386.208 305.545 396.251 300.954 406.83 300.954 426.924 300.954 443.271 317.304 443.271 337.401 443.271 346.166 440.117 354.633 434.383 361.245 427.453 369.251 417.41 373.842 406.83 373.842 386.737 373.84 370.39 357.493 370.39 337.4Z" class="MsftOfcThm_Accent1_Fill_v2" fill="#2D0F64"/><path d="M476.164 268.609C458.218 250.519 434.431 240.228 409.186 239.634 382.594 239.008 357.501 248.881 338.505 267.435 319.504 285.994 309.039 310.841 309.039 337.399 309.039 350.104 311.46 362.494 316.235 374.224 317.797 378.063 322.177 379.908 326.016 378.346 329.855 376.783 331.701 372.404 330.138 368.565 326.098 358.641 324.051 348.155 324.051 337.399 324.051 314.918 332.909 293.885 348.994 278.174 365.074 262.469 386.333 254.102 408.832 254.642 430.18 255.144 450.308 263.86 465.507 279.182 480.706 294.503 489.262 314.702 489.601 336.056 489.892 354.476 484.258 371.997 473.256 386.799L432.441 443.078C425.087 453.22 420.016 464.571 417.371 476.813L414.316 490.95C413.559 494.45 410.412 496.988 406.832 496.988 403.252 496.988 400.105 494.448 399.349 490.949L396.293 476.813C393.647 464.57 388.576 453.219 381.221 443.077L345.957 394.452C343.524 391.097 338.831 390.349 335.474 392.783 332.119 395.217 331.371 399.909 333.805 403.266L369.069 451.89C375.194 460.336 379.417 469.788 381.62 479.985L384.675 494.121C386.913 504.482 396.231 512 406.83 512 417.429 512 426.747 504.48 428.985 494.121L432.041 479.984C434.244 469.789 438.466 460.337 444.591 451.89L485.353 395.682C498.295 378.273 504.952 357.572 504.608 335.817 504.21 310.565 494.108 286.697 476.164 268.609Z" class="MsftOfcThm_Accent1_Fill_v2" fill="#2D0F64"/><path d="M87.172 122.936C99.568 122.936 111.334 117.557 119.447 108.185 126.164 100.437 129.864 90.515 129.864 80.244 129.864 74.012 128.541 67.991 125.931 62.347 124.191 58.584 119.73 56.944 115.969 58.684 112.206 60.423 110.567 64.884 112.306 68.646 113.995 72.301 114.853 76.204 114.853 80.244 114.853 86.902 112.456 93.333 108.101 98.355 102.837 104.436 95.209 107.925 87.172 107.925 71.909 107.925 59.492 95.508 59.492 80.245 59.492 73.588 61.889 67.154 66.244 62.129 71.508 56.048 79.136 52.559 87.173 52.559 88.591 52.559 90.014 52.667 91.404 52.879 95.502 53.509 99.331 50.693 99.958 46.595 100.585 42.498 97.772 38.667 93.674 38.041 91.535 37.714 89.348 37.548 87.172 37.548 74.776 37.548 63.01 42.927 54.895 52.302 48.179 60.054 44.48 69.978 44.48 80.245 44.481 103.784 63.632 122.936 87.172 122.936Z" class="MsftOfcThm_Accent1_Fill_v2" fill="#2D0F64"/><path d="M55.727 172.79C60.509 179.383 63.805 186.761 65.525 194.721L67.971 206.041C69.911 215.02 77.986 221.536 87.173 221.536 96.36 221.536 104.435 215.019 106.375 206.041L108.821 194.722C110.541 186.761 113.838 179.383 118.619 172.791L151.246 127.801C161.806 113.597 167.239 96.705 166.958 78.953 166.632 58.347 158.39 38.87 143.749 24.112 129.105 9.352 109.696 0.956 89.094 0.47 67.398-0.045 46.922 8.016 31.421 23.155 15.917 38.298 7.377 58.572 7.377 80.242 7.377 97.52 12.814 113.966 23.048 127.73ZM41.91 33.893C54.118 21.969 70.132 15.458 87.162 15.458 87.685 15.458 88.214 15.464 88.739 15.477 105.443 15.87 121.194 22.691 133.09 34.683 144.986 46.675 151.683 62.48 151.947 79.19 152.175 93.606 147.766 107.318 139.146 118.916L106.467 163.976C100.457 172.264 96.312 181.541 94.149 191.549L91.703 202.868C91.245 204.987 89.34 206.524 87.174 206.524 85.008 206.524 83.102 204.987 82.645 202.869L80.199 191.55C78.036 181.543 73.892 172.266 67.88 163.977L35.149 118.845C26.803 107.618 22.391 94.269 22.391 80.242 22.388 62.649 29.322 46.188 41.91 33.893Z" class="MsftOfcThm_Accent1_Fill_v2" fill="#2D0F64"/><path d="M431.367 85.964C428.571 89.024 428.785 93.772 431.845 96.568 433.285 97.884 435.097 98.532 436.906 98.532 438.94 98.532 440.969 97.709 442.449 96.089L442.579 95.949C442.76 95.754 442.94 95.558 443.105 95.366 448.794 88.805 451.927 80.402 451.927 71.705 451.927 51.769 435.709 35.549 415.775 35.549 405.363 35.549 395.452 40.045 388.584 47.885 385.853 51.003 386.166 55.745 389.284 58.476 392.402 61.208 397.144 60.895 399.876 57.776 403.894 53.19 409.689 50.559 415.776 50.559 427.433 50.559 436.917 60.045 436.917 71.704 436.917 76.789 435.087 81.699 431.756 85.542Z" class="MsftOfcThm_Accent1_Fill_v2" fill="#2D0F64"/><path d="M359.234 40.398C362.6 42.817 367.291 42.047 369.709 38.681 380.665 23.428 398.402 14.568 417.147 15.027 431.764 15.371 445.547 21.341 455.959 31.835 466.37 42.33 472.231 56.162 472.462 70.783 472.661 83.398 468.803 95.399 461.253 105.558L453.494 116.257C451.06 119.612 451.808 124.305 455.163 126.739 456.494 127.705 458.035 128.169 459.562 128.169 461.885 128.169 464.176 127.093 465.644 125.069L473.351 114.441C482.84 101.676 487.723 86.497 487.47 70.545 487.178 52.027 479.77 34.524 466.615 21.263 453.457 8.001 436.015 0.456 417.5 0.02 393.789-0.532 371.368 10.64 357.517 29.924 356.855 30.847 354.886 35.549 358.041 39.328 358.393 39.718 358.789 40.079 359.234 40.398Z" class="MsftOfcThm_Accent1_Fill_v2" fill="#2D0F64"/><path d="M346.96 449.464C346.971 447.384 346.131 445.311 344.457 443.819 341.363 441.06 336.618 441.332 333.86 444.426 329.093 449.772 324.124 454.672 319.074 459.018 308.482 462.682 297.65 465.472 286.619 467.4 294.989 449.389 302.169 424.624 307.654 394.638 308.401 390.561 305.699 386.651 301.622 385.905 297.55 385.159 293.635 387.859 292.889 391.937 286.707 425.733 278.112 453.138 268.525 469.766 262.26 470.312 255.942 470.599 249.572 470.599 243.179 470.599 236.857 470.3 230.606 469.745 219.549 450.615 210.417 418.618 204.201 379.475 219.057 380.682 234.23 381.305 249.572 381.305 263.781 381.305 278.126 380.767 292.207 379.706 296.34 379.394 299.439 375.791 299.128 371.658 298.816 367.524 295.205 364.433 291.08 364.737 277.373 365.77 263.408 366.294 249.572 366.294 233.434 366.294 217.51 365.584 201.976 364.229 197.925 333.908 195.548 300.056 195.25 265.006L316.966 265.006C321.111 265.006 324.472 261.646 324.472 257.5 324.472 254.028 322.111 251.115 318.91 250.258 318.638 215.6 316.421 182.37 312.574 152.347 337.625 155.284 361.438 159.949 383.193 166.146 387.811 182.791 391.185 200.26 393.156 218.071 393.581 221.911 396.832 224.751 400.607 224.751 400.882 224.751 401.161 224.736 401.442 224.705 405.562 224.249 408.532 220.539 408.076 216.419 406.38 201.093 403.684 185.996 400.085 171.406 420.481 178.334 438.632 186.711 453.75 196.348 457.521 208.956 460.138 221.965 461.515 235.23 461.915 239.09 465.174 241.961 468.971 241.961 469.23 241.961 469.492 241.948 469.756 241.92 473.879 241.492 476.874 237.803 476.447 233.68 470.656 177.894 444.489 126.33 402.769 88.489 360.751 50.379 306.345 29.39 249.573 29.39 226.412 29.39 203.557 32.852 181.644 39.679 177.686 40.912 175.477 45.12 176.71 49.078 177.943 53.035 182.148 55.241 186.109 54.012 194.771 51.313 203.594 49.184 212.529 47.618 202.577 69.062 194.368 99.946 188.711 136.995 180.162 137.932 171.7 139.045 163.374 140.379 159.281 141.035 156.495 144.885 157.151 148.978 157.807 153.072 161.657 155.853 165.75 155.201 172.603 154.102 179.544 153.145 186.557 152.324 185.357 161.692 184.312 171.394 183.437 181.387 183.075 185.516 186.129 189.158 190.258 189.519 190.481 189.539 190.702 189.548 190.922 189.548 194.771 189.548 198.048 186.604 198.39 182.697 199.354 171.701 200.541 161.038 201.919 150.778 217.544 149.417 233.466 148.706 249.573 148.706 265.711 148.706 281.635 149.416 297.169 150.771 301.22 181.092 303.597 214.944 303.895 249.994L195.261 249.994C195.36 238.039 195.682 226.095 196.249 214.39 196.449 210.249 193.256 206.73 189.116 206.53 184.958 206.341 181.456 209.524 181.256 213.663 180.678 225.609 180.35 237.796 180.251 249.993L103.912 249.993C103.961 247.814 104.028 245.58 104.119 243.248 104.281 239.106 101.055 235.617 96.913 235.454 92.79 235.276 89.281 238.517 89.119 242.66 89.02 245.195 88.946 247.626 88.895 249.992L36.612 249.992C37.303 230.131 40.726 210.569 46.831 191.738 48.109 187.795 45.948 183.562 42.005 182.284 38.061 181.006 33.829 183.167 32.551 187.11 25.195 209.807 21.465 233.488 21.465 257.498 21.465 318.428 45.192 375.711 88.276 418.796 131.361 461.88 188.643 485.607 249.574 485.607 283.992 485.607 317.079 478.125 347.914 463.37 351.653 461.581 353.234 457.099 351.445 453.361 350.515 451.424 348.859 450.072 346.96 449.464ZM310.425 137.015C304.824 100.303 296.676 69.289 286.631 47.648 297.704 49.595 308.571 52.412 319.142 56.059 337.863 72.191 354.426 94.979 367.087 122.087 371.119 130.72 374.754 139.807 377.974 149.237 356.863 143.76 334.137 139.632 310.425 137.015ZM445.912 174.551C430.908 166.72 413.886 159.872 395.321 154.141 391.213 140.69 386.322 127.798 380.688 115.735 373.15 99.596 364.265 84.864 354.375 71.941 368.019 79.657 380.878 88.905 392.682 99.612 415.901 120.671 433.96 146.276 445.912 174.551ZM249.572 133.698C234.25 133.698 219.079 134.316 204.161 135.517 210.469 96.094 219.758 64.066 230.623 45.244 236.905 44.691 243.225 44.404 249.572 44.404 255.93 44.404 262.255 44.693 268.534 45.251 279.593 64.382 288.727 96.384 294.944 135.534 280.087 134.328 264.916 133.698 249.572 133.698ZM212.518 467.369C201.349 465.403 190.48 462.558 179.978 458.92 154.538 437.003 134.337 404.395 121.15 365.775 142.265 371.252 165.004 375.373 188.719 377.99 194.321 414.709 202.472 445.726 212.518 467.369ZM186.57 362.656C161.504 359.718 137.679 355.049 115.914 348.847 108.682 322.721 104.513 294.35 103.904 265.008L180.237 265.008C180.519 299.571 182.734 332.709 186.57 362.656ZM36.621 265.008 88.893 265.008C89.44 292.264 92.955 318.774 99.081 343.604 78.696 336.682 60.554 328.311 45.438 318.683 40.307 301.587 37.268 283.598 36.621 265.008ZM53.3 340.492C68.292 348.31 85.309 355.14 103.853 360.862 113.415 392.131 127.265 420.161 144.605 442.896 104.008 419.822 71.684 383.807 53.3 340.492Z" class="MsftOfcThm_Accent1_Fill_v2" fill="#2D0F64"/></g></svg>