<svg width="512" height="512" viewBox="0 0 64 64" xmlns="http://www.w3.org/2000/svg" xmlns:xlink="http://www.w3.org/1999/xlink" id="Layer_3" overflow="hidden"><style>
.MsftOfcThm_Accent1_Fill_v2 {
 fill:#2D0F64; 
}
</style>
<path d="M60 1 4 1C2.34315 1 1 2.34315 1 4L1 42C1 43.6569 2.34315 45 4 45L25 45 25 55C25.0001 55.5523 25.4479 55.9999 26.0002 55.9998 26.2653 55.9997 26.5195 55.8944 26.707 55.707L29 53.414 29 62C29.0001 62.5523 29.4479 62.9999 30.0002 62.9998 30.2653 62.9997 30.5195 62.8944 30.707 62.707L34 59.414 37.293 62.707C37.4805 62.8946 37.7348 62.9999 38 63 38.1315 63.0004 38.2617 62.9746 38.383 62.924 38.7566 62.7691 39.0001 62.4044 39 62L39 45 60 45C61.6569 45 63 43.6569 63 42L63 4C63 2.34315 61.6569 1 60 1ZM30.024 44.248C29.3753 43.6401 28.5328 43.2806 27.645 43.233 26.0762 43.1841 24.8159 41.9238 24.767 40.355 24.7194 39.4672 24.3599 38.6247 23.752 37.976 22.7493 36.8495 22.7493 35.1505 23.752 34.024 24.3601 33.375 24.7196 32.5321 24.767 31.644 24.8164 30.0756 26.0766 28.8159 27.645 28.767 28.5328 28.7194 29.3753 28.3599 30.024 27.752 31.1624 26.781 32.8376 26.781 33.976 27.752 34.6247 28.3599 35.4672 28.7194 36.355 28.767 37.9234 28.8159 39.1836 30.0756 39.233 31.644 39.2804 32.5321 39.6399 33.375 40.248 34.024 41.2507 35.1505 41.2507 36.8495 40.248 37.976 39.6401 38.6247 39.2806 39.4672 39.233 40.355 39.1841 41.9238 37.9238 43.1841 36.355 43.233 35.4672 43.2806 34.6247 43.6401 33.976 44.248 32.8376 45.219 31.1624 45.219 30.024 44.248ZM41.744 32.7C41.4503 32.3965 41.2693 32.0016 41.231 31.581 41.1474 28.9607 39.0424 26.8561 36.422 26.773 36.0017 26.7346 35.6072 26.5536 35.304 26.26 33.3992 24.6401 30.6008 24.6401 28.696 26.26 28.3928 26.5536 27.9983 26.7346 27.578 26.773 24.9576 26.8561 22.8526 28.9607 22.769 31.581 22.7307 32.0016 22.5497 32.3965 22.256 32.7 20.6723 34.4714 20.5781 37.1206 22.032 39L10.9 39C10.4962 37.0374 8.96259 35.5038 7 35.1L7 10.9C8.96259 10.4962 10.4962 8.96259 10.9 7L53.1 7C53.5038 8.96259 55.0374 10.4962 57 10.9L57 35.1C55.0374 35.5038 53.5038 37.0374 53.1 39L41.968 39C43.4219 37.1206 43.3277 34.4714 41.744 32.7ZM27 45.158C27.191 45.1939 27.384 45.2183 27.578 45.231 27.9983 45.2694 28.3928 45.4504 28.696 45.744 29.6064 46.5531 30.782 47 32 47 32.3362 46.9976 32.6713 46.9608 33 46.89L33 52.59 30.707 50.297C30.3165 49.9066 29.6835 49.9066 29.293 50.297L27 52.586ZM34.707 57.293C34.3165 56.9026 33.6835 56.9026 33.293 57.293L31 59.586 31 53.414 33.293 55.707C33.4805 55.8946 33.7348 55.9999 34 56 34.1315 56.0004 34.2617 55.9746 34.383 55.924 34.7566 55.7691 35.0001 55.4044 35 55L35 46 34.956 46C35.072 45.914 35.195 45.84 35.304 45.744 35.6072 45.4504 36.0017 45.2694 36.422 45.231 36.616 45.2183 36.809 45.1939 37 45.158L37 59.586ZM61 42C61 42.5523 60.5523 43 60 43L40.407 43C40.8002 42.3961 41.0566 41.7135 41.158 41L54 41C54.5523 41 55 40.5523 55 40 55 38.3431 56.3431 37 58 37 58.5523 37 59 36.5523 59 36L59 10C59 9.44771 58.5523 9 58 9 56.3431 9 55 7.65685 55 6 55 5.44772 54.5523 5 54 5L10 5C9.44771 5 9 5.44772 9 6 9 7.65685 7.65685 9 6 9 5.44772 9 5 9.44771 5 10L5 36C5 36.5523 5.44772 37 6 37 7.65685 37 9 38.3431 9 40 9 40.5523 9.44771 41 10 41L22.842 41C22.9434 41.7135 23.1998 42.3961 23.593 43L4 43C3.44772 43 3 42.5523 3 42L3 4C3 3.44772 3.44772 3 4 3L60 3C60.5523 3 61 3.44772 61 4Z" class="MsftOfcThm_Accent1_Fill_v2" fill="#2D0F64"/><path d="M32 30C28.6863 30 26 32.6863 26 36 26 39.3137 28.6863 42 32 42 35.3137 42 38 39.3137 38 36 37.9967 32.6877 35.3123 30.0033 32 30ZM32 40C29.7909 40 28 38.2091 28 36 28 33.7909 29.7909 32 32 32 34.2091 32 36 33.7909 36 36 36 38.2091 34.2091 40 32 40Z" class="MsftOfcThm_Accent1_Fill_v2" fill="#2D0F64"/><path d="M23 9 41 9 41 11 23 11Z" class="MsftOfcThm_Accent1_Fill_v2" fill="#2D0F64"/><path d="M17 13 47 13 47 15 17 15Z" class="MsftOfcThm_Accent1_Fill_v2" fill="#2D0F64"/><path d="M13 17 51 17 51 19 13 19Z" class="MsftOfcThm_Accent1_Fill_v2" fill="#2D0F64"/><path d="M45 35 51 35 51 37 45 37Z" class="MsftOfcThm_Accent1_Fill_v2" fill="#2D0F64"/><path d="M13 35 19 35 19 37 13 37Z" class="MsftOfcThm_Accent1_Fill_v2" fill="#2D0F64"/></svg>