<svg width="512" height="512" viewBox="0 0 512 512" xmlns="http://www.w3.org/2000/svg" xmlns:xlink="http://www.w3.org/1999/xlink" id="Layer_1" overflow="hidden"><style>
.MsftOfcThm_Accent1_Fill_v2 {
 fill:#2D0F64; 
}
</style>
<path d="M504 364.413 489.6 364.413 489.6 117.113C489.581 98.7185 474.675 83.8113 456.28 83.792L55.72 83.792C37.327 83.8113 22.4209 98.716 22.4 117.109L22.4 364.409 8 364.409C3.58172 364.409 0 367.991 1.77636e-15 372.409L2.66454e-14 399.4C0.0176356 415.302 12.9046 428.189 28.807 428.207L483.193 428.207C499.095 428.189 511.982 415.302 512 399.4L512 372.413C512 367.995 508.418 364.413 504 364.413ZM38.4 117.109C38.4105 107.548 46.1593 99.8008 55.72 99.792L456.28 99.792C465.841 99.8008 473.59 107.548 473.6 117.109L473.6 364.409 38.4 364.409ZM210.476 380.409 301.52 380.409 301.52 388.309 210.478 388.309ZM496 399.4C495.992 406.47 490.263 412.199 483.193 412.207L28.807 412.207C21.7371 412.199 16.0077 406.47 16 399.4L16 380.413 194.478 380.413 194.478 391.557C194.486 398.598 200.192 404.303 207.233 404.311L304.767 404.311C311.808 404.303 317.514 398.598 317.522 391.557L317.522 380.413 496 380.413ZM215.073 118.913C215.073 114.495 218.655 110.913 223.073 110.913L266.22 110.913C270.638 110.913 274.22 114.495 274.22 118.913 274.22 123.331 270.638 126.913 266.22 126.913L223.073 126.913C218.655 126.913 215.073 123.331 215.073 118.913ZM280.926 118.913C280.926 114.495 284.508 110.913 288.926 110.913 293.344 110.913 296.926 114.495 296.926 118.913 296.926 123.331 293.344 126.913 288.926 126.913 284.508 126.913 280.926 123.331 280.926 118.913ZM398.445 148.566 113.555 148.566C106.253 148.574 100.336 154.491 100.328 161.793L100.328 302.411C100.336 309.713 106.253 315.63 113.555 315.638L398.445 315.638C405.747 315.63 411.664 309.713 411.672 302.411L411.672 161.793C411.664 154.491 405.747 148.574 398.445 148.566ZM395.672 299.638 116.328 299.638 116.328 164.566 395.672 164.566ZM363.272 253.012C363.272 245.101 357.902 242.922 340.657 239.989 332.833 238.658 324.743 237.282 318.111 233.748 309.354 229.081 304.725 221.282 304.725 211.192 304.725 194.981 321.097 182.283 341.998 182.283 362.899 182.283 379.272 194.983 379.272 211.192 379.272 215.61 375.69 219.192 371.272 219.192 366.854 219.192 363.272 215.61 363.272 211.192 363.272 205.086 354.535 198.283 341.998 198.283 329.461 198.283 320.725 205.083 320.725 211.192 320.725 219.103 326.095 221.282 343.34 224.215 351.164 225.546 359.254 226.922 365.886 230.457 374.643 235.123 379.272 242.922 379.272 253.012 379.272 269.223 362.899 281.921 341.998 281.921 321.097 281.921 304.725 269.221 304.725 253.012 304.725 248.594 308.307 245.012 312.725 245.012 317.143 245.012 320.725 248.594 320.725 253.012 320.725 259.118 329.461 265.921 341.998 265.921 354.535 265.921 363.271 259.118 363.271 253.012ZM226.727 282.183 255.739 282.183C276.17 282.159 292.727 265.602 292.75 245.171L292.75 219.034C292.727 198.603 276.17 182.045 255.739 182.022L226.727 182.022C222.309 182.022 218.727 185.604 218.727 190.022L218.727 274.183C218.727 278.601 222.309 282.183 226.727 282.183ZM234.727 198.022 255.739 198.022C267.338 198.035 276.737 207.435 276.75 219.034L276.75 245.171C276.737 256.77 267.338 266.17 255.739 266.183L234.727 266.183ZM138.127 281.746C142.298 283.189 146.849 280.977 148.291 276.806 148.293 276.801 148.295 276.796 148.297 276.79L153.148 262.719C153.522 262.776 153.9 262.805 154.279 262.808L185.214 262.808C185.593 262.805 185.971 262.776 186.345 262.719L191.195 276.79C192.612 280.975 197.153 283.219 201.338 281.802 205.523 280.385 207.767 275.844 206.35 271.659 206.34 271.631 206.331 271.603 206.321 271.575L177.31 187.415C175.87 183.238 171.316 181.02 167.139 182.46 164.813 183.262 162.986 185.089 162.184 187.415L133.172 271.575C131.731 275.751 133.947 280.304 138.122 281.746ZM169.747 214.569 180.86 246.808 158.628 246.808Z" class="MsftOfcThm_Accent1_Fill_v2" fill="#2D0F64"/></svg>