<svg width="512" height="512" viewBox="0 0 512 512" xmlns="http://www.w3.org/2000/svg" xmlns:xlink="http://www.w3.org/1999/xlink" id="Layer_1" overflow="hidden"><style>
.MsftOfcThm_Accent1_Fill_v2 {
 fill:#2D0F64; 
}
</style>
<path d="M206.713 426.444 170.217 426.444C158.278 426.444 148.564 436.158 148.564 448.098 148.564 460.037 158.278 469.751 170.217 469.751L206.713 469.751C218.652 469.751 228.366 460.037 228.366 448.097 228.366 436.158 218.653 426.444 206.713 426.444ZM206.713 453.751 170.217 453.751C167.1 453.751 164.564 451.215 164.564 448.097 164.564 444.98 167.1 442.444 170.217 442.444L206.713 442.444C209.83 442.444 212.366 444.98 212.366 448.098 212.366 451.215 209.83 453.751 206.713 453.751ZM118.93 199.392 79.292 199.392C69.239 199.392 61.062 207.57 61.062 217.623L61.062 254.609C61.062 264.661 69.24 272.839 79.292 272.839L118.93 272.839C128.983 272.839 137.16 264.661 137.16 254.609L137.16 217.623C137.16 207.57 128.983 199.392 118.93 199.392ZM121.16 254.609C121.16 255.818 120.139 256.839 118.93 256.839L79.292 256.839C78.083 256.839 77.062 255.818 77.062 254.609L77.062 217.623C77.062 216.414 78.083 215.392 79.292 215.392L118.93 215.392C120.139 215.392 121.16 216.413 121.16 217.623ZM168.647 272.839 208.284 272.839C218.337 272.839 226.515 264.661 226.515 254.609L226.515 217.623C226.515 207.57 218.336 199.392 208.284 199.392L168.647 199.392C158.594 199.392 150.416 207.57 150.416 217.623L150.416 254.609C150.415 264.661 158.594 272.839 168.647 272.839ZM166.415 217.623C166.415 216.414 167.436 215.392 168.646 215.392L208.283 215.392C209.493 215.392 210.514 216.413 210.514 217.623L210.514 254.609C210.514 255.818 209.493 256.839 208.283 256.839L168.646 256.839C167.436 256.839 166.415 255.818 166.415 254.609ZM258 187.967 297.638 187.967C307.691 187.967 315.868 179.789 315.868 169.736L315.868 132.75C315.868 122.697 307.69 114.519 297.638 114.519L258 114.519C247.947 114.519 239.77 122.697 239.77 132.75L239.77 169.736C239.77 179.789 247.948 187.967 258 187.967ZM255.77 132.75C255.77 131.541 256.791 130.519 258 130.519L297.638 130.519C298.847 130.519 299.868 131.54 299.868 132.75L299.868 169.736C299.868 170.945 298.847 171.967 297.638 171.967L258 171.967C256.791 171.967 255.77 170.946 255.77 169.736ZM168.647 187.967 208.284 187.967C218.337 187.967 226.515 179.789 226.515 169.736L226.515 132.75C226.515 122.697 218.336 114.519 208.284 114.519L168.647 114.519C158.594 114.519 150.416 122.697 150.416 132.75L150.416 169.736C150.415 179.789 158.594 187.967 168.647 187.967ZM166.415 132.75C166.415 131.541 167.436 130.519 168.646 130.519L208.283 130.519C209.493 130.519 210.514 131.54 210.514 132.75L210.514 169.736C210.514 170.945 209.493 171.967 208.283 171.967L168.646 171.967C167.436 171.967 166.415 170.946 166.415 169.736ZM118.93 114.519 79.292 114.519C69.239 114.519 61.062 122.697 61.062 132.75L61.062 169.736C61.062 179.789 69.24 187.967 79.292 187.967L118.93 187.967C128.983 187.967 137.16 179.789 137.16 169.736L137.16 132.75C137.16 122.697 128.983 114.519 118.93 114.519ZM121.16 169.736C121.16 170.945 120.139 171.967 118.93 171.967L79.292 171.967C78.083 171.967 77.062 170.946 77.062 169.736L77.062 132.75C77.062 131.541 78.083 130.519 79.292 130.519L118.93 130.519C120.139 130.519 121.16 131.54 121.16 132.75ZM168.647 357.712 208.284 357.712C218.337 357.712 226.515 349.534 226.515 339.481L226.515 302.495C226.515 292.443 218.336 284.265 208.284 284.265L168.647 284.265C158.594 284.265 150.416 292.443 150.416 302.495L150.416 339.481C150.415 349.534 158.594 357.712 168.647 357.712ZM166.415 302.495C166.415 301.286 167.436 300.265 168.646 300.265L208.283 300.265C209.493 300.265 210.514 301.286 210.514 302.495L210.514 339.481C210.514 340.69 209.493 341.712 208.283 341.712L168.646 341.712C167.436 341.712 166.415 340.691 166.415 339.481ZM118.93 284.265 79.292 284.265C69.239 284.265 61.062 292.443 61.062 302.495L61.062 339.481C61.062 349.534 69.24 357.712 79.292 357.712L118.93 357.712C128.983 357.712 137.16 349.534 137.16 339.481L137.16 302.495C137.16 292.443 128.983 284.265 118.93 284.265ZM121.16 339.482C121.16 340.691 120.139 341.713 118.93 341.713L79.292 341.713C78.083 341.713 77.062 340.692 77.062 339.482L77.062 302.496C77.062 301.287 78.083 300.266 79.292 300.266L118.93 300.266C120.139 300.266 121.16 301.287 121.16 302.496ZM352.208 250.138C349.473 250.138 346.761 250.235 344.069 250.406L344.069 36.786C344.069 20.914 331.156 8.002 315.285 8.002L61.645 8.002C45.773 8.002 32.86 20.915 32.86 36.786L32.86 475.217C32.86 491.089 45.773 504.001 61.645 504.001L315.286 504.001C319.333 504.001 323.322 503.13 326.997 501.482 335.148 503.131 343.578 504.001 352.208 504.001 422.198 504.001 479.14 447.06 479.14 377.069 479.14 307.079 422.198 250.138 352.208 250.138ZM250.901 24.002 246.781 35.144 130.15 35.144 126.03 24.002ZM61.645 488.001C54.595 488.001 48.86 482.266 48.86 475.217L48.86 36.786C48.86 29.737 54.595 24.002 61.645 24.002L108.972 24.002 117.076 45.918C118.237 49.059 121.23 51.144 124.579 51.144L252.352 51.144C255.701 51.144 258.694 49.059 259.855 45.918L267.959 24.002 315.286 24.002C322.335 24.002 328.07 29.737 328.07 36.786L328.07 252.45C323.913 253.254 319.829 254.26 315.826 255.46 315.839 255.176 315.869 254.896 315.869 254.609L315.869 217.623C315.869 207.57 307.691 199.392 297.639 199.392L258 199.392C247.947 199.392 239.77 207.57 239.77 217.623L239.77 254.609C239.77 264.661 247.948 272.839 258 272.839L279.855 272.839C246.894 295.789 225.276 333.949 225.276 377.068 225.276 424.707 251.661 466.293 290.58 488L61.645 488ZM297.638 256.839 258 256.839C256.791 256.839 255.77 255.818 255.77 254.609L255.77 217.623C255.77 216.414 256.791 215.392 258 215.392L297.638 215.392C298.847 215.392 299.868 216.413 299.868 217.623L299.868 254.609C299.868 255.818 298.847 256.839 297.638 256.839ZM352.208 488.001C291.04 488.001 241.276 438.237 241.276 377.069 241.276 315.902 291.04 266.138 352.208 266.138 413.376 266.138 463.14 315.901 463.14 377.069 463.14 438.237 413.376 488.001 352.208 488.001ZM352.208 323.894C322.888 323.894 299.033 347.748 299.033 377.069 299.033 406.39 322.887 430.245 352.208 430.245 381.529 430.245 405.384 406.391 405.384 377.069 405.384 347.749 381.53 323.894 352.208 323.894ZM352.208 414.245C331.71 414.245 315.033 397.568 315.033 377.069 315.033 356.57 331.71 339.894 352.208 339.894 372.707 339.894 389.384 356.571 389.384 377.069 389.384 397.568 372.707 414.245 352.208 414.245ZM443.092 357.693 432.319 353.547C430.641 347.822 428.354 342.305 425.486 337.064L430.174 326.506C431.517 323.482 430.86 319.943 428.52 317.603L411.676 300.759C409.335 298.419 405.797 297.759 402.772 299.105L392.21 303.795C386.969 300.928 381.454 298.642 375.732 296.963L371.585 286.187C370.397 283.099 367.429 281.061 364.119 281.061L340.298 281.061C336.988 281.061 334.021 283.099 332.832 286.187L328.684 296.964C322.963 298.642 317.448 300.929 312.207 303.796L301.645 299.106C298.62 297.761 295.08 298.42 292.741 300.76L275.897 317.605C273.557 319.945 272.9 323.484 274.243 326.509L278.932 337.069C276.066 342.307 273.779 347.824 272.1 353.548L261.325 357.696C258.237 358.885 256.199 361.853 256.199 365.162L256.199 388.983C256.199 392.293 258.237 395.26 261.325 396.449L272.098 400.596C273.777 406.32 276.064 411.838 278.931 417.078L274.243 427.635C272.9 430.659 273.557 434.199 275.897 436.539L292.741 453.383C295.082 455.723 298.62 456.382 301.645 455.037L312.207 450.347C317.447 453.214 322.963 455.501 328.685 457.179L332.832 467.956C334.02 471.044 336.988 473.082 340.298 473.082L364.119 473.082C367.429 473.082 370.396 471.044 371.585 467.956L375.731 457.183C381.456 455.505 386.973 453.218 392.214 450.35L402.771 455.038C405.796 456.381 409.334 455.723 411.675 453.383L428.519 436.539C430.859 434.199 431.516 430.66 430.173 427.635L425.483 417.073C428.349 411.834 430.637 406.318 432.315 400.596L443.091 396.448C446.179 395.259 448.217 392.291 448.217 388.982L448.217 365.161C448.218 361.849 446.18 358.881 443.092 357.693ZM432.218 383.487 422.76 387.128C420.298 388.076 418.462 390.175 417.852 392.741 416.199 399.684 413.457 406.296 409.704 412.392 408.32 414.639 408.134 417.423 409.204 419.834L413.322 429.106 404.247 438.182 394.979 434.066C392.571 432.997 389.784 433.182 387.538 434.566 381.44 438.32 374.827 441.062 367.881 442.714 365.315 443.324 363.214 445.161 362.267 447.623L358.627 457.078 345.792 457.078 342.151 447.62C341.204 445.158 339.103 443.322 336.537 442.711 329.596 441.059 322.984 438.318 316.886 434.564 314.638 433.18 311.854 432.994 309.445 434.065L300.173 438.183 291.098 429.107 295.214 419.839C296.284 417.428 296.098 414.644 294.714 412.397 290.96 406.301 288.218 399.688 286.565 392.74 285.955 390.174 284.118 388.073 281.657 387.126L272.202 383.487 272.202 370.651 281.659 367.01C284.121 366.062 285.957 363.963 286.567 361.397 288.221 354.45 290.963 347.838 294.715 341.745 296.099 339.498 296.286 336.714 295.215 334.302L291.098 325.031 300.173 315.954 309.445 320.072C311.854 321.143 314.638 320.957 316.886 319.573 322.984 315.819 329.596 313.077 336.537 311.425 339.102 310.814 341.203 308.978 342.15 306.516L345.791 297.058 358.627 297.058 362.268 306.516C363.215 308.978 365.315 310.814 367.881 311.425 374.823 313.077 381.436 315.819 387.533 319.573 389.782 320.957 392.565 321.142 394.974 320.072L404.246 315.954 413.321 325.03 409.206 334.298C408.136 336.709 408.322 339.492 409.705 341.739 413.459 347.836 416.201 354.45 417.854 361.396 418.464 363.962 420.3 366.063 422.762 367.01L432.217 370.649 432.217 383.487Z" class="MsftOfcThm_Accent1_Fill_v2" stroke-width="0.999475" fill="#2D0F64"/></svg>