<svg viewBox="0 0 463.937 463.937" xmlns="http://www.w3.org/2000/svg" xmlns:xlink="http://www.w3.org/1999/xlink" id="Capa_1" overflow="hidden"><style>
.MsftOfcThm_Accent1_Fill_v2 {
 fill:#2D0F64; 
}
</style>
<g><g><path d="M460.414 216.518 374.814 143.418C374.914 142.918 375.014 142.418 375.114 141.818L375.114 46.218C375.014 40.518 370.514 35.918 364.814 35.718L317.014 35.718C311.514 35.718 307.014 40.618 307.014 46.218L307.014 85.818 238.514 27.418C234.814 24.218 229.314 24.218 225.514 27.418L3.614 216.418C-0.686 219.918-1.186 226.218 2.314 230.518 5.814 234.818 12.114 235.318 16.414 231.818 16.514 231.718 16.514 231.718 16.614 231.618L232.014 48.218 309.114 113.918 355.214 153.118 447.514 231.718C451.714 235.318 458.014 234.818 461.614 230.618 465.114 226.418 464.614 220.118 460.414 216.518ZM355.014 126.518 327.014 102.918 327.014 55.818 355.014 55.818 355.014 126.518Z" class="MsftOfcThm_Accent1_Fill_v2" fill="#2D0F64"/></g></g><g><g><path d="M416.314 236.718 388.214 212.718 238.514 84.818C234.814 81.618 229.314 81.618 225.514 84.818L75.814 212.718 47.714 236.718C43.514 240.318 43.014 246.618 46.614 250.818 50.114 255.018 56.314 255.518 60.414 252.018L60.514 251.918 73.014 241.118 73.014 428.618C73.114 434.218 77.714 438.818 83.314 438.918L380.614 438.918C386.214 438.818 390.814 434.318 390.914 428.618L390.914 241.118 403.414 251.918C405.214 253.418 407.414 254.318 409.814 254.318 412.714 254.318 415.514 253.018 417.414 250.818 421.114 246.518 420.514 240.218 416.314 236.718ZM272.014 418.818 192.014 418.818 192.014 310.818 272.014 310.818 272.014 418.818ZM292.014 418.818 292.014 301.118C292.014 295.618 287.914 290.818 282.414 290.818L181.614 290.818C176.114 290.818 172.014 295.618 172.014 301.118L172.014 418.818 93.014 418.818 93.014 224.018 232.014 105.618 371.014 224.018 371.014 418.818 292.014 418.818Z" class="MsftOfcThm_Accent1_Fill_v2" fill="#2D0F64"/></g></g><g></g><g></g><g></g><g></g><g></g><g></g><g></g><g></g><g></g><g></g><g></g><g></g><g></g><g></g><g></g></svg>