<svg width="512" height="512" viewBox="0 0 512.002 512.002" xmlns="http://www.w3.org/2000/svg" xmlns:xlink="http://www.w3.org/1999/xlink" id="Capa_1" overflow="hidden"><style>
.MsftOfcThm_Accent1_Fill_v2 {
 fill:#2D0F64; 
}
</style>
<g><g id="Page-1_29_"><g id="_x30_30---Forest-Route"><path d="M418.131 512.001 435.198 512.001C444.624 512.001 452.265 504.36 452.265 494.934L452.265 426.667 495.102 426.667C501.321 426.658 507.029 423.223 509.95 417.733 512.96 412.133 512.631 405.328 509.097 400.043L469.434 341.334 469.758 341.334C476.041 341.276 481.784 337.769 484.707 332.207 487.63 326.645 487.26 319.926 483.744 314.719L474.101 300.417C506.317 270.031 518.576 224.039 505.76 181.65 490.178 128.923 436.563 100.908 354.984 102.401 323.59 102.99 298.852 102.922 266.749 102.145 240.193 101.582 195.624 95.864 184.428 86.973 180.759 84.582 178.8 80.286 179.402 75.948 180.972 69.045 190.965 62.918 206.12 59.555 220.496 56.74 235.075 55.087 249.717 54.614 257.918 54.136 266.4 53.633 275.052 52.711 288.902 51.017 299.054 38.857 298.249 24.927 297.444 10.997 285.958 0.088 272.006 0.001 247.938-0.051 223.891 1.428 200.01 4.43 160.799 9.61 133.083 20.029 115.632 36.072L93.864 3.765C92.273 1.405 89.61-0.006 86.764 0.002L83.897 0.002C81.051-0.006 78.388 1.405 76.797 3.765L28.243 75.786C24.682 81.03 24.321 87.815 27.304 93.407 30.226 98.941 35.971 102.403 42.229 102.401L42.536 102.401 2.924 161.119C-0.614 166.379-0.962 173.163 2.019 178.757 4.941 184.276 10.673 187.73 16.918 187.734L59.73 187.734 59.73 256.001C59.73 265.427 67.371 273.068 76.797 273.068L93.864 273.068C103.29 273.068 110.931 265.427 110.931 256.001L110.931 187.734 153.743 187.734C159.988 187.73 165.72 184.276 168.642 178.757 171.625 173.161 171.273 166.376 167.729 161.119L167.678 161.042C201.41 171.207 236.419 176.515 271.648 176.803 288.006 177.554 305.218 176.94 321.858 176.342 330.391 176.035 338.856 175.736 347.108 175.617L351.818 175.523C365.387 174.326 379.06 175.728 392.104 179.653 402.816 182.83 409.823 193.095 408.881 204.229 405.647 222.251 384.808 223.002 357.911 222.149 353.644 222.021 349.693 221.893 346.135 221.927 335.323 222.012 324.614 222.183 313.708 222.439 294.786 222.834 275.898 224.196 257.115 226.518 217.877 230.909 179.71 242.128 144.338 259.67 128.9 267.494 114.344 276.948 100.92 287.873 46.555 332.306 10.801 401.631 0.236 483.048-0.711 490.366 1.538 497.738 6.41 503.281 11.281 508.824 18.304 512.001 25.683 512.002L127.998 512.002C141.108 512.06 152.107 502.129 153.385 489.081 156.28 452.664 168.76 417.662 189.558 387.628 205.695 365.834 231.499 349.817 266.111 339.841 268.162 340.769 270.38 341.272 272.63 341.317L272.937 341.317 233.325 400.035C229.787 405.295 229.439 412.079 232.42 417.673 235.337 423.199 241.07 426.66 247.319 426.667L290.131 426.667 290.131 494.934C290.131 504.36 297.772 512.001 307.198 512.001L324.265 512.001C333.691 512.001 341.332 504.36 341.332 494.934L341.332 426.667 401.065 426.667 401.065 494.934C401.064 504.36 408.705 512.001 418.131 512.001ZM435.197 494.935 418.13 494.935 418.13 426.668 435.197 426.668ZM453.373 324.268C450.215 324.266 447.315 326.009 445.833 328.797 444.351 331.585 444.53 334.964 446.299 337.58L495.101 409.601 400.961 409.601C400.995 406.206 400.008 402.879 398.128 400.052L381.497 375.391 407.037 337.58C408.806 334.963 408.984 331.582 407.501 328.793 406.017 326.004 403.114 324.263 399.955 324.268L383.742 324.268 426.665 260.584 455.84 303.703C455.925 303.822 455.942 303.968 456.028 304.087 456.113 304.206 456.139 304.155 456.182 304.206L469.759 324.268ZM358.525 341.335 358.832 341.335C363.561 341.326 368.067 339.321 371.24 335.814 374.395 339.3 378.869 341.303 383.571 341.335L383.895 341.335 371.197 360.108ZM93.864 256.001 76.797 256.001 76.797 187.734 93.864 187.734ZM153.734 179.201 153.734 170.668 17.064 170.668 65.704 98.638C67.472 96.016 67.645 92.631 66.153 89.843 64.661 87.055 61.75 85.32 58.587 85.335L42.374 85.335 85.331 21.659 107.006 53.676C107.074 53.804 107.177 53.906 107.245 54.034L128.433 85.334 112.075 85.334C108.92 85.335 106.023 87.076 104.542 89.861 103.061 92.646 103.237 96.022 105.001 98.638L137.214 146.237C137.308 146.365 137.385 146.502 137.479 146.63L153.761 170.668ZM346.28 239.02C349.693 239.02 353.371 239.105 357.373 239.233 380.66 239.975 419.598 241.204 425.64 207.259 428.23 188.028 416.68 169.701 398.214 163.739 383.111 158.947 367.217 157.155 351.426 158.465L346.801 158.55C338.455 158.669 329.862 158.977 321.201 159.284 304.885 159.873 288.006 160.479 272.39 159.753 229.826 157.807 185.393 154.172 149.843 134.656L128.126 102.4 128.433 102.4C134.691 102.402 140.436 98.94 143.358 93.406 146.347 87.817 145.992 81.032 142.436 75.785L125.369 50.467C139.782 35.841 164.955 26.275 202.237 21.334 225.391 18.438 248.705 17.013 272.04 17.067 275.622 17.03 278.921 19.009 280.573 22.187 281.967 24.957 281.893 28.238 280.377 30.942 278.929 33.616 276.245 35.395 273.218 35.687 264.949 36.54 256.672 37.061 248.668 37.53 233.125 38.048 217.649 39.823 202.392 42.838 172.133 49.554 164.547 64.069 162.721 72.124 160.606 82.888 164.936 93.901 173.814 100.344 194.687 116.924 265.624 119.16 266.315 119.177 298.673 119.954 323.616 120.03 355.258 119.433 397.771 118.639 471.516 126.174 489.317 186.428 499.678 221.69 490.119 259.798 464.34 285.995L435.199 242.697C433.611 240.342 430.956 238.931 428.116 238.934L425.215 238.934C422.378 238.934 419.727 240.345 418.141 242.697L371.199 312.32 324.266 242.697C323.212 241.159 321.679 240.013 319.905 239.437 328.686 239.249 337.45 239.087 346.29 239.019L346.28 239.019ZM175.827 377.482C153.21 409.981 139.607 447.892 136.403 487.357 135.984 491.677 132.338 494.964 127.998 494.935L25.683 494.935C23.194 494.944 20.825 493.865 19.198 491.982 17.571 490.155 16.829 487.706 17.167 485.283 27.16 408.167 60.738 342.776 111.742 301.082 124.226 290.921 137.764 282.127 152.122 274.851 185.752 258.232 222.026 247.614 259.309 243.474 274.797 241.477 291.369 240.265 311.038 239.643 309.493 240.263 308.166 241.326 307.224 242.698L258.644 314.719C256.607 317.802 255.636 321.468 255.879 325.155 220.337 336.3 193.363 353.819 175.827 377.482ZM296.104 337.571C297.872 334.949 298.045 331.564 296.553 328.776 295.061 325.987 292.15 324.253 288.987 324.268L272.774 324.268 315.731 260.592 358.833 324.268 342.475 324.268C339.32 324.269 336.423 326.01 334.942 328.795 333.461 331.58 333.637 334.956 335.401 337.572L363.894 379.667C364.039 379.914 364.201 380.136 364.372 380.375L384.161 409.602 247.464 409.602ZM324.264 494.935 307.197 494.935 307.197 426.668 324.264 426.668Z" id="Shape_303_" class="MsftOfcThm_Accent1_Fill_v2" fill="#2D0F64"/><path d="M202.075 290.988C189.482 295.4 177.377 301.1 165.953 307.995 163.308 309.558 161.707 312.421 161.761 315.493 161.815 318.565 163.517 321.37 166.215 322.838 168.914 324.306 172.193 324.21 174.801 322.587 185.226 316.3 196.269 311.102 207.757 307.073 210.714 306.122 212.921 303.638 213.518 300.59 214.115 297.542 213.008 294.409 210.629 292.413 208.251 290.416 204.974 289.871 202.075 290.988Z" id="Shape_302_" class="MsftOfcThm_Accent1_Fill_v2" fill="#2D0F64"/><path d="M91.04 410.139C88.918 409.35 86.57 409.436 84.512 410.379 82.454 411.322 80.855 413.043 80.066 415.165 74.537 429.572 70.6 444.54 68.324 459.803 67.778 464.477 71.118 468.71 75.791 469.266 76.125 469.309 76.461 469.332 76.798 469.334 81.118 469.33 84.753 466.097 85.263 461.808 87.413 447.897 91.031 434.252 96.058 421.104 97.696 416.691 95.451 411.784 91.04 410.139Z" id="Shape_301_" class="MsftOfcThm_Accent1_Fill_v2" fill="#2D0F64"/><path d="M130.822 335.233C119.908 345.984 110.249 357.939 102.031 370.868 99.491 374.841 100.652 380.121 104.625 382.661 108.598 385.201 113.878 384.04 116.418 380.067 123.93 368.226 132.765 357.279 142.752 347.436 144.932 345.302 145.807 342.167 145.049 339.212 144.291 336.257 142.014 333.931 139.076 333.111 136.138 332.29 132.985 333.099 130.805 335.233Z" id="Shape_300_" class="MsftOfcThm_Accent1_Fill_v2" fill="#2D0F64"/></g></g></g></svg>