<svg width="512" height="512" viewBox="0 0 64 64" xmlns="http://www.w3.org/2000/svg" xmlns:xlink="http://www.w3.org/1999/xlink" overflow="hidden"><style>
.MsftOfcThm_Accent1_Fill_v2 {
 fill:#2D0F64; 
}
</style>
<g id="stadium"><path d="M53 19.27 53 15 59 15C59.5523 14.9965 59.9971 14.5459 59.9936 13.9936 59.9915 13.6752 59.838 13.3767 59.58 13.19 52.18 7.9 52.31 7.76 51.58 8.09 50.85 8.42 51 8.44 51 18.81 46.7157 17.9274 42.3693 17.379 38 17.17L38 16 40 16C40.5523 16 41 15.5523 41 15L41 9C41 8.44771 40.5523 8 40 8L24 8C23.4477 8 23 8.44771 23 9L23 15C23 15.5523 23.4477 16 24 16L26 16 26 17.17C21.6307 17.379 17.2843 17.9274 13 18.81 13 8.5 13.21 8.5 12.46 8.11 11.71 7.72 11.73 7.96 4.46 13.19 4.10618 13.4431 3.95658 13.8959 4.09 14.31 4.39 15.23 4.72 15 11.09 15L11.09 19.27C5.06 20.79 1 23.06 1 26L1 47C1 59 63 58.83 63 47L63 26C63 23.06 58.94 20.79 53 19.27ZM53 13 53 10.94 55.88 13ZM8.12 13 11 10.94 11 13ZM61 29.37 61 37C61 42.85 27.2 47.15 8.9 41 5.2 39.82 3 38.31 3 37L3 29.37C12.72 37 51.54 36.76 61 29.37ZM49.37 31.5C37.8759 33.4953 26.1241 33.4953 14.63 31.5 26.1236 29.5 37.8764 29.5 49.37 31.5ZM25 10 39 10 39 14 25 14ZM28 16 36 16 36 17.08C33.29 16.98 30.72 16.97 28 17.08ZM32 19C51.42 19 72.32 25.12 53.76 30.46 51.3528 29.8213 48.908 29.3337 46.44 29L50.71 24.73C51.1021 24.3379 51.1021 23.7021 50.71 23.31 50.3179 22.9179 49.6821 22.9179 49.29 23.31L43.94 28.67C40.3071 28.2606 36.6557 28.037 33 28L33 22C33 21.4477 32.5523 21 32 21 31.4477 21 31 21.4477 31 22L31 28C27.3448 28.027 23.6934 28.2406 20.06 28.64L14.71 23.28C14.3179 22.8879 13.6821 22.8879 13.29 23.28 12.8979 23.6721 12.8979 24.3079 13.29 24.7L17.56 29C15.0915 29.3403 12.6468 29.8346 10.24 30.48-8.33 25.11 12.57 19 32 19ZM37 53.88C33.71 54.03 30.84 54.05 27 53.88L27 50 37 50ZM61 47C61 49.62 52.61 52.89 39 53.77L39 49C39 48.4477 38.5523 48 38 48L26 48C25.4477 48 25 48.4477 25 49L25 53.77C11.39 52.89 3 49.62 3 47L3 40.39C12.64 47.87 51.41 47.84 61 40.39Z" class="MsftOfcThm_Accent1_Fill_v2" fill="#2D0F64"/><path d="M31 38.5 31 41.5C31 42.0523 31.4477 42.5 32 42.5 32.5523 42.5 33 42.0523 33 41.5L33 38.5C33 37.9477 32.5523 37.5 32 37.5 31.4477 37.5 31 37.9477 31 38.5Z" class="MsftOfcThm_Accent1_Fill_v2" fill="#2D0F64"/><path d="M41 38 41 41C41 41.5523 41.4477 42 42 42 42.5523 42 43 41.5523 43 41L43 38C43 37.4477 42.5523 37 42 37 41.4477 37 41 37.4477 41 38Z" class="MsftOfcThm_Accent1_Fill_v2" fill="#2D0F64"/><path d="M21 38 21 41C21 41.5523 21.4477 42 22 42 22.5523 42 23 41.5523 23 41L23 38C23 37.4477 22.5523 37 22 37 21.4477 37 21 37.4477 21 38Z" class="MsftOfcThm_Accent1_Fill_v2" fill="#2D0F64"/><path d="M12 36 12 39C12 39.5523 12.4477 40 13 40 13.5523 40 14 39.5523 14 39L14 36C14 35.4477 13.5523 35 13 35 12.4477 35 12 35.4477 12 36Z" class="MsftOfcThm_Accent1_Fill_v2" fill="#2D0F64"/><path d="M5 34 5 37C5 37.5523 5.44772 38 6 38 6.55228 38 7 37.5523 7 37L7 34C7 33.4477 6.55228 33 6 33 5.44772 33 5 33.4477 5 34Z" class="MsftOfcThm_Accent1_Fill_v2" fill="#2D0F64"/><path d="M50 36 50 39C50 39.5523 50.4477 40 51 40 51.5523 40 52 39.5523 52 39L52 36C52 35.4477 51.5523 35 51 35 50.4477 35 50 35.4477 50 36Z" class="MsftOfcThm_Accent1_Fill_v2" fill="#2D0F64"/><path d="M57 34 57 37C57 37.5523 57.4477 38 58 38 58.5523 38 59 37.5523 59 37L59 34C59 33.4477 58.5523 33 58 33 57.4477 33 57 33.4477 57 34Z" class="MsftOfcThm_Accent1_Fill_v2" fill="#2D0F64"/></g></svg>