<svg width="512" height="512" viewBox="0 0 512 512" xmlns="http://www.w3.org/2000/svg" xmlns:xlink="http://www.w3.org/1999/xlink" overflow="hidden"><style>
.MsftOfcThm_Accent2_Fill_v2 {
 fill:#7850DC; 
}
</style>
<g><path d="M496 96 472 96C471.998 92.487 469.707 89.3853 466.35 88.35 396.57 66.88 325.81 66.64 256 87.64 186.19 66.64 115.43 66.88 45.65 88.35 42.293 89.3853 40.0023 92.487 40 96L16 96C11.5817 96 8 99.5817 8 104L8 456C8 460.418 11.5817 464 16 464L496 464C500.418 464 504 460.418 504 456L504 104C504 99.5817 500.418 96 496 96ZM264 101.96C327.73 83.46 392.27 83.46 456 101.96L456 413.33C393.22 395.653 326.778 395.657 264 413.34ZM56 101.96C119.73 83.46 184.27 83.46 248 101.96L248 413.34C185.223 395.65 118.779 395.647 56 413.33ZM488 448 24 448 24 112 40 112 40 424C40.0073 428.425 43.6004 432.006 48.0253 431.999 48.8131 431.997 49.5965 431.88 50.35 431.65 117.8 410.89 186.2 410.89 253.65 431.65 255.181 432.12 256.819 432.12 258.35 431.65 325.8 410.89 394.2 410.89 461.65 431.65 462.412 431.88 463.204 431.998 464 432 468.415 431.992 471.992 428.415 472 424L472 112 488 112Z" class="MsftOfcThm_Accent2_Fill_v2" fill="#7850DC"/><path d="M88 144 216 144C220.418 144 224 140.418 224 136 224 131.582 220.418 128 216 128L88 128C83.5817 128 80 131.582 80 136 80 140.418 83.5817 144 88 144Z" class="MsftOfcThm_Accent2_Fill_v2" fill="#7850DC"/><path d="M88 176 216 176C220.418 176 224 172.418 224 168 224 163.582 220.418 160 216 160L88 160C83.5817 160 80 163.582 80 168 80 172.418 83.5817 176 88 176Z" class="MsftOfcThm_Accent2_Fill_v2" fill="#7850DC"/><path d="M184 208C188.418 208 192 204.418 192 200 192 195.582 188.418 192 184 192L120 192C115.582 192 112 195.582 112 200 112 204.418 115.582 208 120 208Z" class="MsftOfcThm_Accent2_Fill_v2" fill="#7850DC"/><path d="M104 248C104 252.418 107.582 256 112 256L192 256C196.418 256 200 252.418 200 248 200 243.582 196.418 240 192 240L112 240C107.582 240 104 243.582 104 248Z" class="MsftOfcThm_Accent2_Fill_v2" fill="#7850DC"/><path d="M88 288 216 288C220.418 288 224 284.418 224 280 224 275.582 220.418 272 216 272L88 272C83.5817 272 80 275.582 80 280 80 284.418 83.5817 288 88 288Z" class="MsftOfcThm_Accent2_Fill_v2" fill="#7850DC"/><path d="M88 368 216 368C220.418 368 224 364.418 224 360 224 355.582 220.418 352 216 352L88 352C83.5817 352 80 355.582 80 360 80 364.418 83.5817 368 88 368Z" class="MsftOfcThm_Accent2_Fill_v2" fill="#7850DC"/><path d="M120 304C115.582 304 112 307.582 112 312 112 316.418 115.582 320 120 320L184 320C188.418 320 192 316.418 192 312 192 307.582 188.418 304 184 304Z" class="MsftOfcThm_Accent2_Fill_v2" fill="#7850DC"/><path d="M296 144 424 144C428.418 144 432 140.418 432 136 432 131.582 428.418 128 424 128L296 128C291.582 128 288 131.582 288 136 288 140.418 291.582 144 296 144Z" class="MsftOfcThm_Accent2_Fill_v2" fill="#7850DC"/><path d="M296 176 424 176C428.418 176 432 172.418 432 168 432 163.582 428.418 160 424 160L296 160C291.582 160 288 163.582 288 168 288 172.418 291.582 176 296 176Z" class="MsftOfcThm_Accent2_Fill_v2" fill="#7850DC"/><path d="M392 208C396.418 208 400 204.418 400 200 400 195.582 396.418 192 392 192L328 192C323.582 192 320 195.582 320 200 320 204.418 323.582 208 328 208Z" class="MsftOfcThm_Accent2_Fill_v2" fill="#7850DC"/><path d="M312 248C312 252.418 315.582 256 320 256L400 256C404.418 256 408 252.418 408 248 408 243.582 404.418 240 400 240L320 240C315.582 240 312 243.582 312 248Z" class="MsftOfcThm_Accent2_Fill_v2" fill="#7850DC"/><path d="M296 288 424 288C428.418 288 432 284.418 432 280 432 275.582 428.418 272 424 272L296 272C291.582 272 288 275.582 288 280 288 284.418 291.582 288 296 288Z" class="MsftOfcThm_Accent2_Fill_v2" fill="#7850DC"/><path d="M424 352 296 352C291.582 352 288 355.582 288 360 288 364.418 291.582 368 296 368L424 368C428.418 368 432 364.418 432 360 432 355.582 428.418 352 424 352Z" class="MsftOfcThm_Accent2_Fill_v2" fill="#7850DC"/><path d="M392 320C396.418 320 400 316.418 400 312 400 307.582 396.418 304 392 304L328 304C323.582 304 320 307.582 320 312 320 316.418 323.582 320 328 320Z" class="MsftOfcThm_Accent2_Fill_v2" fill="#7850DC"/></g></svg>