<svg width="512" height="512" viewBox="0 0 64 64" xmlns="http://www.w3.org/2000/svg" xmlns:xlink="http://www.w3.org/1999/xlink" id="Layer_1" overflow="hidden"><style>
.MsftOfcThm_Accent1_Fill_v2 {
 fill:#2D0F64; 
}
</style>
<path d="M62.493 1.13C62.1792 0.95227 61.7941 0.957238 61.485 1.143L56.723 4 41 4C40.4477 4 40 4.44772 40 5L40 28 39 28C38.4477 28 38 28.4477 38 29L38 39 28 39C27.4477 39 27 39.4477 27 40L27 48 17 48C16.4477 48 16 48.4477 16 49L16 55 13.008 55 13.008 46 15.008 46C15.5603 46 16.008 45.5523 16.008 45L16.008 37C16.008 34.7909 14.2171 33 12.008 33L11.675 33C13.3452 31.5541 13.5271 29.028 12.0812 27.3578 10.6354 25.6875 8.10925 25.5056 6.439 26.9515 4.76875 28.3974 4.58687 30.9235 6.03275 32.5938 6.15826 32.7387 6.29402 32.8745 6.439 33L5.992 33C3.78286 33 1.992 34.7909 1.992 37L1.992 45C1.992 45.5523 2.43972 46 2.992 46L5.008 46 5.008 55 2 55C1.44772 55 1 55.4477 1 56L1 62C1 62.5523 1.44772 63 2 63L63 63 63 61 3 61 3 57 17 57C17.5523 57 18 56.5523 18 56L18 50 28 50C28.5523 50 29 49.5523 29 49L29 41 39 41C39.5523 41 40 40.5523 40 40L40 30 56.723 30 61.485 32.857C61.9584 33.1414 62.5728 32.9882 62.8572 32.5148 62.9506 32.3593 63 32.1814 63 32L63 2C63 1.63986 62.8063 1.30755 62.493 1.13ZM9.057 28C10.1616 28 11.057 28.8954 11.057 30 11.057 31.1046 10.1616 32 9.057 32 7.95243 32 7.057 31.1046 7.057 30 7.057 28.8954 7.95243 28 9.057 28ZM11.008 38 11.008 55 10.008 55 10.008 44 8.008 44 8.008 55 7.008 55 7.008 38 5.008 38 5.008 44 3.992 44 3.992 37C3.992 35.8954 4.88743 35 5.992 35L12.008 35C13.1126 35 14.008 35.8954 14.008 37L14.008 44 13.008 44 13.008 38ZM56 28 42 28 42 6 56 6ZM61 30.233 58 28.433 58 5.566 61 3.766Z" class="MsftOfcThm_Accent1_Fill_v2" fill="#2D0F64"/><path d="M48 18.9 48 22 46 22 46 24 52 24 52 22 50 22 50 18.9C52.3264 18.4216 53.997 16.3751 54 14L54 11C54 10.4477 53.5523 10 53 10L45 10C44.4477 10 44 10.4477 44 11L44 14C44.003 16.3751 45.6736 18.4216 48 18.9ZM46 12 52 12 52 14C52 15.6569 50.6569 17 49 17 47.3431 17 46 15.6569 46 14Z" class="MsftOfcThm_Accent1_Fill_v2" fill="#2D0F64"/><path d="M8 21 10 21 10 24 8 24Z" class="MsftOfcThm_Accent1_Fill_v2" fill="#2D0F64"/><path d="M11.5 22.5 14.5 22.5 14.5 24.5 11.5 24.5Z" class="MsftOfcThm_Accent1_Fill_v2" fill="#2D0F64" transform="matrix(0.555 -0.832 0.832 0.555 -13.764 21.281)"/><path d="M4 22 6 22 6 25 4 25Z" class="MsftOfcThm_Accent1_Fill_v2" fill="#2D0F64" transform="matrix(0.832 -0.555 0.555 0.832 -12.196 6.72)"/></svg>