<svg width="512" height="512" viewBox="0 0 60 60" xmlns="http://www.w3.org/2000/svg" xmlns:xlink="http://www.w3.org/1999/xlink" overflow="hidden"><style>
.MsftOfcThm_Accent1_Fill_v2 {
 fill:#2D0F64; 
}
</style>
<g id="Page-1" fill="none" fill-rule="evenodd"><g id="025---Safe-at-Home" fill="#000000" fill-rule="nonzero"><path d="M58.605 16.455 51 11.639 51 4C51 2.89543 50.1046 2 49 2L45 2C43.8954 2 43 2.89543 43 4L43 6.574 34.8 1.384C31.8616-0.457076 28.1294-0.457076 25.191 1.384L1.4 16.455C0.126792 17.2776-0.332729 18.9208 0.329041 20.2845 0.99081 21.6483 2.56592 22.3041 4 21.813L4 52C4 53.6569 5.34315 55 7 55L8 55 8 58C8 59.1046 8.89543 60 10 60L50 60C51.1046 60 52 59.1046 52 58L52 55 53 55C54.6569 55 56 53.6569 56 52L56 21.814C57.4348 22.3072 59.0121 21.6515 59.6744 20.2865 60.3367 18.9214 59.8755 17.2767 58.6 16.455ZM45 4 49 4 49 10.373 45 7.84ZM19 52C18.4477 52 18 52.4477 18 53L18 58 14 58 14 53C14 52.4477 13.5523 52 13 52 12.4477 52 12 52.4477 12 53L12 58 10 58 10 53C10.0033 50.2399 12.2399 48.0033 15 48L17 48C18.58 47.9975 20.0662 48.7495 21 50.024L21 57C21.0033 57.3414 21.0656 57.6797 21.184 58L20 58 20 53C20 52.4477 19.5523 52 19 52ZM16 46C13.7909 46 12 44.2091 12 42 12 39.7909 13.7909 38 16 38 18.2091 38 20 39.7909 20 42 20 44.2091 18.2091 46 16 46ZM30 43C27.9777 43 26.1545 41.7818 25.3806 39.9134 24.6067 38.045 25.0345 35.8945 26.4645 34.4645 27.8945 33.0345 30.045 32.6067 31.9134 33.3806 33.7818 34.1545 35 35.9777 35 38 34.9967 40.7601 32.7601 42.9967 30 43ZM32 45C34.7601 45.0033 36.9967 47.2399 37 50L37 57C37 57.5523 36.5523 58 36 58 35.4477 58 35 57.5523 35 57L35 50C35 49.4477 34.5523 49 34 49 33.4477 49 33 49.4477 33 50L33 57C33.0033 57.3414 33.0656 57.6797 33.184 58L26.816 58C26.9344 57.6797 26.9967 57.3414 27 57L27 50C27 49.4477 26.5523 49 26 49 25.4477 49 25 49.4477 25 50L25 57C25 57.5523 24.5523 58 24 58 23.4477 58 23 57.5523 23 57L23 50C23.0033 47.2399 25.2399 45.0033 28 45ZM50 58 48 58 48 53C48 52.4477 47.5523 52 47 52 46.4477 52 46 52.4477 46 53L46 58 42 58 42 53C42 52.4477 41.5523 52 41 52 40.4477 52 40 52.4477 40 53L40 58 38.816 58C38.9344 57.6797 38.9967 57.3414 39 57L39 50.024C39.9338 48.7495 41.42 47.9975 43 48L45 48C47.7601 48.0033 49.9967 50.2399 50 53ZM44 46C41.7909 46 40 44.2091 40 42 40 39.7909 41.7909 38 44 38 46.2091 38 48 39.7909 48 42 48 44.2091 46.2091 46 44 46ZM53 53 52 53C51.9961 50.2343 50.3656 47.7297 47.838 46.607 49.7811 44.9911 50.5033 42.3308 49.6441 39.9541 48.785 37.5774 46.5287 35.9938 44.0015 35.9938 41.4743 35.9938 39.218 37.5774 38.3589 39.9541 37.4997 42.3308 38.2219 44.9911 40.165 46.607 39.589 46.862 39.0506 47.1947 38.565 47.596 37.8533 45.6656 36.331 44.1443 34.4 43.434 36.705 41.5683 37.5843 38.4526 36.5948 35.6571 35.6052 32.8616 32.9615 30.993 29.996 30.993 27.0305 30.993 24.3868 32.8616 23.3972 35.6571 22.4077 38.4526 23.287 41.5683 25.592 43.434 23.6629 44.1469 22.1432 45.6695 21.434 47.6 20.9484 47.1987 20.41 46.866 19.834 46.611 21.7771 44.9951 22.4993 42.3348 21.6401 39.9581 20.781 37.5814 18.5247 35.9978 15.9975 35.9978 13.4703 35.9978 11.214 37.5814 10.3549 39.9581 9.49571 42.3348 10.2179 44.9951 12.161 46.611 9.63513 47.7334 8.00527 50.236 8 53L7 53C6.44772 53 6 52.5523 6 52L6 20.642 28.406 6.454C29.3805 5.84054 30.6205 5.84054 31.595 6.454L54 20.642 54 52C54 52.5523 53.5523 53 53 53ZM57.846 19.524C57.7043 19.7486 57.4791 19.9076 57.22 19.9659 56.9609 20.0242 56.6893 19.9771 56.465 19.835L32.664 4.764C31.0357 3.73852 28.9633 3.73852 27.335 4.764L3.534 19.836C3.06677 20.1309 2.44892 19.9912 2.154 19.524 1.85908 19.0568 1.99877 18.4389 2.466 18.144L26.266 3.076C28.5505 1.64394 31.4525 1.64394 33.737 3.076L57.537 18.145C58.0028 18.4407 58.141 19.0578 57.846 19.524Z" id="Shape" class="MsftOfcThm_Accent1_Fill_v2" fill="#2D0F64"/><path d="M37.995 13.9C37.9507 13.4627 37.6261 13.1057 37.195 13.02 32.707 12.12 30.902 9.549 30.831 9.445 30.6457 9.16722 30.3339 9.00028 30 9 29.6627 8.98062 29.3422 9.14911 29.167 9.438 29.093 9.547 27.288 12.12 22.8 13.018 22.3689 13.1037 22.0443 13.4607 22 13.898L21.549 18.413C21.1918 22.1258 23.1492 25.6773 26.479 27.358L29.553 28.9C29.8344 29.0406 30.1656 29.0406 30.447 28.9L33.516 27.365C36.8458 25.6843 38.8032 22.1328 38.446 18.42ZM32.622 25.571 30 26.882 27.378 25.571C24.7878 24.2644 23.2653 21.5017 23.544 18.614L23.923 14.814C26.2094 14.289 28.3101 13.1521 30 11.525 31.6896 13.1532 33.7902 14.2912 36.077 14.817L36.456 18.617C36.7334 21.5037 35.2111 24.2648 32.622 25.571Z" id="Shape" class="MsftOfcThm_Accent1_Fill_v2" fill="#2D0F64"/><path d="M32.219 16.375 28.919 20.503 27.709 19.293C27.3166 18.914 26.6929 18.9194 26.3072 19.3052 25.9214 19.6909 25.916 20.3146 26.295 20.707L28.295 22.707C28.482 22.8941 28.7355 22.9994 29 23L29.055 23C29.3392 22.9843 29.6033 22.8483 29.781 22.626L33.781 17.626C34.0043 17.347 34.0618 16.97 33.9318 16.6371 33.8018 16.3042 33.5041 16.066 33.1508 16.0121 32.7975 15.9583 32.4423 16.097 32.219 16.376Z" id="Shape" class="MsftOfcThm_Accent1_Fill_v2" fill="#2D0F64"/></g></g></svg>