<svg width="512" height="512" viewBox="0 0 96 96" xmlns="http://www.w3.org/2000/svg" xmlns:xlink="http://www.w3.org/1999/xlink" overflow="hidden"><style>
.MsftOfcThm_Accent1_Fill_v2 {
 fill:#2D0F64; 
}
.MsftOfcThm_Accent1_Stroke_v2 {
 stroke:#2D0F64; 
}
</style>
<g id="Clipboard"><path d="M37.68 5.62 45.49 5.62C46.0423 5.62 46.49 5.17228 46.49 4.62 46.49 4.06772 46.0423 3.62 45.49 3.62L37.68 3.62C37.1277 3.62 36.68 4.06772 36.68 4.62 36.68 5.17228 37.1277 5.62 37.68 5.62Z" class="MsftOfcThm_Accent1_Fill_v2 MsftOfcThm_Accent1_Stroke_v2" stroke="#2D0F64" fill="#2D0F64"/><path d="M20.92 20.75C20.92 21.3023 21.3677 21.75 21.92 21.75L61.25 21.75C61.8023 21.75 62.25 21.3023 62.25 20.75 62.25 20.1977 61.8023 19.75 61.25 19.75L21.92 19.75C21.3677 19.75 20.92 20.1977 20.92 20.75Z" class="MsftOfcThm_Accent1_Fill_v2 MsftOfcThm_Accent1_Stroke_v2" stroke="#2D0F64" fill="#2D0F64"/><path d="M61.25 26.25 21.92 26.25C21.3677 26.25 20.92 26.6977 20.92 27.25 20.92 27.8023 21.3677 28.25 21.92 28.25L61.25 28.25C61.8023 28.25 62.25 27.8023 62.25 27.25 62.25 26.6977 61.8023 26.25 61.25 26.25Z" class="MsftOfcThm_Accent1_Fill_v2 MsftOfcThm_Accent1_Stroke_v2" stroke="#2D0F64" fill="#2D0F64"/><path d="M61.25 32.75 21.92 32.75C21.3677 32.75 20.92 33.1977 20.92 33.75 20.92 34.3023 21.3677 34.75 21.92 34.75L61.25 34.75C61.8023 34.75 62.25 34.3023 62.25 33.75 62.25 33.1977 61.8023 32.75 61.25 32.75Z" class="MsftOfcThm_Accent1_Fill_v2 MsftOfcThm_Accent1_Stroke_v2" stroke="#2D0F64" fill="#2D0F64"/><path d="M89.56 41.47C89.5313 41.1909 89.3666 40.9439 89.12 40.81 88.92 40.68 89.85 40.97 76.74 37.2L76.74 4.46C76.74 2.00071 74.7493 0.00551414 72.29 3.8147e-08L10.88 0C8.41519-6.16793e-06 6.41551 1.99519 6.41 4.46L6.41 91.54C6.41551 94.0048 8.41519 96 10.88 96L72.29 96C74.7493 95.9945 76.74 93.9993 76.74 91.54L76.74 86.54C83.04 82.17 89.59 75.09 89.59 62.54 89.59 39.89 89.6 41.7 89.56 41.47ZM86.38 42.05 83.11 44.51 68.24 40.24 68.24 36.83C76.59 39.29 54 32.71 86.38 42.05ZM46.9 62.49 46.9 43.64 50.17 46.11 50.17 62.49C49.9047 69.8619 53.3518 76.8762 59.35 81.17 61.5282 82.7674 63.8324 84.1854 66.24 85.41L66.24 89.12C54.51 83.24 46.9 75.86 46.9 62.49ZM29.66 13.25 53.51 13.25C55.623 13.2445 57.3345 11.533 57.34 9.42L57.34 8.25 68.51 8.25 68.51 34.82 67.64 34.58C67.19 34.39 68.64 34.07 50.64 39.25L21.91 39.25C21.3577 39.25 20.91 39.6977 20.91 40.25 20.91 40.8023 21.3577 41.25 21.91 41.25L45 41.25C44.88 41.49 44.93 41.56 44.93 45.75L21.93 45.75C21.3777 45.75 20.93 46.1977 20.93 46.75 20.93 47.3023 21.3777 47.75 21.93 47.75L44.93 47.75 44.93 52.25 21.93 52.25C21.3777 52.25 20.93 52.6977 20.93 53.25 20.93 53.8023 21.3777 54.25 21.93 54.25L44.93 54.25 44.93 58.75 21.93 58.75C21.3777 58.75 20.93 59.1977 20.93 59.75 20.93 60.3023 21.3777 60.75 21.93 60.75L44.93 60.75 44.93 62.49C44.93 74.66 50.93 81.58 57.11 86L14.66 86 14.66 8.25 25.84 8.25 25.84 9.42C25.84 11.5314 27.5487 13.2445 29.66 13.25ZM51.36 44.51 48.09 42.05 66.24 36.83 66.24 40.24ZM67.26 83.69C63.76 81.82 60.05 79.69 57.35 76.62 53.865 72.7547 52.009 67.6919 52.17 62.49L52.17 46.37 67.24 42 82.3 46.37 82.3 62.49C82.4622 67.8757 80.4597 73.1018 76.74 77 73.9821 79.7513 70.7764 82.0135 67.26 83.69ZM74.74 4.46 74.74 36.62 70.51 35.4 70.51 7.25C70.51 6.69772 70.0623 6.25 69.51 6.25L57.34 6.25 57.34 2 72.34 2C73.6774 2.02729 74.7457 3.1223 74.74 4.46ZM51.34 2 51.34 7.25 31.84 7.25 31.84 2ZM29.84 2 29.84 8.25C29.84 8.80229 30.2877 9.25 30.84 9.25L52.34 9.25C52.8923 9.25 53.34 8.80229 53.34 8.25L53.34 2 55.34 2 55.34 9.42C55.34 10.4307 54.5207 11.25 53.51 11.25L29.66 11.25C28.6532 11.2445 27.84 10.4268 27.84 9.42L27.84 2ZM74.74 91.54C74.7455 92.8931 73.6531 93.9945 72.3 94 72.2967 94 72.2933 94 72.29 94L10.88 94C9.51975 94 8.41551 92.9002 8.41 91.54L8.41 4.46C8.41551 3.09976 9.51975 1.99999 10.88 2L25.88 2 25.88 6.25 13.66 6.25C13.1077 6.25 12.66 6.69772 12.66 7.25L12.66 87C12.66 87.5523 13.1077 88 13.66 88L58.35 88C58.722 87.9822 59.065 87.7941 59.28 87.49 61.79 89.07 66.78 91.69 66.88 91.73 67.066 91.7853 67.264 91.7853 67.45 91.73 67.7 91.73 72.54 89.11 74.74 87.73ZM68.24 89.13 68.24 85.43C78 80.37 84.3 73.86 84.3 62.49L84.3 46.11 87.59 43.64 87.59 62.49C87.59 75.81 80 83.26 68.24 89.13Z" class="MsftOfcThm_Accent1_Fill_v2 MsftOfcThm_Accent1_Stroke_v2" stroke="#2D0F64" fill="#2D0F64"/><path d="M78.72 55.19C79.8802 53.8568 79.74 51.8356 78.4069 50.6754 77.3805 49.7822 75.9017 49.6356 74.72 50.31 74.02 50.67 74.72 50.04 64.2 62.2L60.16 59C58.8922 57.7687 56.8663 57.7983 55.635 59.0661 54.4037 60.3339 54.4333 62.3598 55.7011 63.5911 55.8595 63.745 56.0334 63.882 56.22 64L62.7 69.05C64.0442 70.0992 65.975 69.9101 67.09 68.62 70.57 64.64 74.68 59.88 78.72 55.19ZM65.57 67.38C65.1439 67.8516 64.4287 67.921 63.92 67.54L57.46 62.54C56.9353 62.1351 56.8382 61.3815 57.2431 60.8569 57.4718 60.5605 57.8257 60.3879 58.2 60.39 58.75 60.39 58.45 60.27 63.74 64.39 64.1603 64.7242 64.7695 64.6668 65.12 64.26 76.35 51.26 75.52 51.98 76.21 51.94 76.8629 51.8652 77.4529 52.3338 77.5277 52.9868 77.5677 53.3359 77.4514 53.6847 77.21 53.94 74.83 56.61 74.48 57 65.57 67.38Z" class="MsftOfcThm_Accent1_Fill_v2 MsftOfcThm_Accent1_Stroke_v2" stroke="#2D0F64" fill="#2D0F64"/></g></svg>