<svg viewBox="0 0 96 96" xmlns="http://www.w3.org/2000/svg" xmlns:xlink="http://www.w3.org/1999/xlink" id="Icons_ProfessorFemale_M" overflow="hidden"><g id="Icons"><path d="M60.8793 53.1343C66.5117 55.228 70.5051 57.345 73.3564 59.7656 74.0987 60.3909 74.7186 61.1485 75.1845 62L77.3771 62C76.7875 60.5442 75.8519 59.254 74.6513 58.2412 71.5946 55.646 67.37 53.4031 61.44 51.209L58.248 49.8984C57.6678 49.6592 57.2354 49.159 57.0825 48.5504 59.1979 47.8733 64.7106 45.6804 67.0283 40.6577 68.916 36.5677 68.3535 24.8955 63.2041 16.6226 59.6611 10.9312 54.5126 7.8413 48.291 7.6865L47.7353 7.687C41.538 7.8413 36.3896 10.9316 32.8466 16.6245 27.6972 24.8979 27.1357 36.5688 29.0234 40.6577 31.34 45.6777 36.821 47.8708 38.9272 48.5493 38.7741 49.1587 38.3414 49.6595 37.7607 49.8993L34.647 51.1821C28.677 53.3853 24.4317 55.6361 21.3632 58.2412 19.3302 59.9124 18.1099 62.374 18.0107 65.0039L18.0145 73.1713C17.7011 73.0441 17.3782 72.9418 17.0488 72.8652L16.8076 72.812C16.0382 72.6456 15.2463 72.6103 14.4652 72.7076L5.9609 44.8306C5.81365 44.2983 5.26277 43.9862 4.73048 44.1334 4.19819 44.2807 3.88605 44.8315 4.03329 45.3638 4.03801 45.3809 4.04318 45.3978 4.0488 45.4146L12.5153 73.1678C9.489 74.0723 7.8862 75.3933 9.2587 80.7017 10.0029 83.5817 10.9087 85.0742 12.2887 85.6929 12.7716 85.9038 13.2943 86.0086 13.8212 86 14.8084 85.9463 15.7853 85.7717 16.73 85.48 18.1357 85.1701 19.403 84.4125 20.3415 83.321 24.4537 85.111 31.7493 86.3652 40.9624 86.8218L42.0747 86.877 40.2387 55.0447C45.3396 56.3233 50.6773 56.323 55.7781 55.0436L55.3811 62 57.3839 62 57.9584 51.9421ZM48.0087 54.0034C45.3405 54.0252 42.683 53.6644 40.1173 52.932L39.989 50.7087C40.6424 49.9769 41.0031 49.0298 41.0019 48.0487L41.0019 46.2562C45.3799 48.5842 50.6283 48.5859 55.0078 46.2607L55.0078 48.0483C55.0062 49.0329 55.3688 49.9833 56.0258 50.7166L55.8994 52.9314C53.3339 53.664 50.6767 54.025 48.0087 54.0034ZM48.0087 46.0034C40.8324 45.9952 35.0169 40.1797 35.0087 33.0034L35.0087 31.1816C35.9628 28.7949 39.8359 27.8345 43.583 26.9053 46.973 26.0645 50.4521 25.2021 51.9794 23.1108 53.2139 24.3723 54.611 25.4638 56.1337 26.3564 58.29 27.7632 60.5195 29.2164 61.0097 31.1216L61.0097 33.0034C61.0015 40.1801 55.1854 45.9957 48.0087 46.0034ZM30.84 39.82C29.3664 36.6291 29.6632 25.5251 34.5451 17.6814 37.7599 12.5153 42.2151 9.8254 47.7609 9.6867L48.2658 9.6862C53.8358 9.8254 58.2912 12.5144 61.5058 17.6799 66.3876 25.5231 66.6845 36.6286 65.2119 39.8199 63.4119 43.721 59.1291 45.691 57.0078 46.4565L57.0078 44.9765C60.7819 42.1529 63.0057 37.7168 63.01 33.0034L63.01 31.0034C63.0102 30.93 63.002 30.8568 62.9856 30.7852 62.3713 28.0371 59.7556 26.3311 57.2256 24.6812 55.1963 23.3574 53.2784 22.1069 52.709 20.5412 52.5201 20.0222 51.9462 19.7547 51.4272 19.9437 51.0594 20.0776 50.8036 20.4137 50.7725 20.8039 50.5899 23.1076 46.9525 24.0095 43.1025 24.9639 38.7587 26.0405 34.2685 27.1539 33.0625 30.6797 33.0271 30.784 33.009 30.8933 33.0087 31.0034L33.0087 33.0034C33.0129 37.7129 35.2331 42.1459 39.0019 44.97L39.0019 46.4541C36.8894 45.686 32.638 43.7162 30.84 39.82ZM16.2646 83.5352C14.8828 83.8931 13.791 84.1738 13.1074 83.8682 12.373 83.5382 11.7474 82.3394 11.1943 80.2007 10.0732 75.8623 10.8994 75.6318 13.9804 74.8354L14.1204 74.7979C14.8611 74.6125 15.6347 74.6014 16.3804 74.7656L16.6148 74.8174C18.1945 75.167 19.4547 76.3556 19.8961 77.9121 20.4453 80.4675 18.8197 82.9846 16.2646 83.5352ZM38.0572 51.9392 39.95 84.7646C31.76 84.2917 25.1363 83.1516 21.42 81.6128 21.9986 80.2995 22.1444 78.8362 21.8364 77.4346 21.5206 76.2838 20.8897 75.244 20.0148 74.4324L20.0102 65.0244C20.0904 62.971 21.056 61.053 22.6577 59.7656 25.6508 57.2241 29.8745 54.9956 35.9662 52.7974Z" fill="#3A1A79"/><path d="M84.0039 64 46.0058 64 46.0058 91 60.5166 91C60.9849 91.6273 61.7211 91.9978 62.5039 92L67.5039 92C68.2867 91.9977 69.0229 91.6273 69.4912 91L84.0039 91ZM48.0058 66 64.0039 66 64.0039 89 48.0058 89ZM82.0039 89 66.0039 89 66.0039 66 82.0039 66Z" fill="#3A1A79"/><rect x="70.0039" y="72" width="8" height="2" fill="#3A1A79"/><rect x="70.0039" y="76" width="8" height="2" fill="#3A1A79"/><rect x="70.0039" y="80" width="6" height="2" fill="#3A1A79"/></g></svg>