<svg width="853.333" height="853.333" viewBox="0 0 640 640" xmlns="http://www.w3.org/2000/svg" xmlns:xlink="http://www.w3.org/1999/xlink" overflow="hidden"><style>
.MsftOfcThm_Accent1_Fill_v2 {
 fill:#2D0F64; 
}
</style>
<g id="surface1"><path d="M629.328 373.336 596.613 373.336 575.996 73.9453C575.609 68.3398 570.949 63.9961 565.328 64.0039L501.328 64.0039C495.707 63.9961 491.047 68.3398 490.66 73.9453L470.043 373.336 448 373.336 448 309.336C448 303.449 443.223 298.668 437.336 298.668 434.906 298.664 432.555 299.492 430.664 301.008L341.332 372.473 341.332 309.336C341.332 303.449 336.559 298.668 330.668 298.668 328.242 298.664 325.891 299.492 324 301.008L234.668 372.473 234.668 309.336C234.668 303.449 229.895 298.668 224.004 298.668 221.578 298.664 219.223 299.492 217.336 301.008L128.004 372.473 128.004 309.336C128 303.449 123.223 298.672 117.336 298.672 115.395 298.672 113.5 299.199 111.84 300.195L5.17188 364.195C1.96484 366.125 0 369.59 0 373.336L0 629.336C0 635.227 4.77734 640 10.668 640L629.328 640C635.219 640 639.996 635.227 639.996 629.336L639.996 384.004C639.996 378.109 635.219 373.336 629.328 373.336ZM511.289 85.3359 555.367 85.3359 575.234 373.336 491.422 373.336ZM362.66 618.668 362.66 490.668 426.66 490.668 426.66 618.668ZM618.664 618.668 448 618.668 448 480C448 474.113 443.219 469.336 437.328 469.336L351.996 469.336C346.105 469.336 341.328 474.113 341.328 480L341.328 618.668 21.332 618.668 21.332 379.375 106.664 328.176 106.664 394.668C106.664 400.562 111.438 405.336 117.328 405.344 119.75 405.344 122.105 404.516 124 403L213.332 331.535 213.332 394.668C213.332 400.562 218.102 405.336 223.996 405.344 226.418 405.344 228.77 404.516 230.664 403.004L319.996 331.539 319.996 394.672C319.996 400.562 324.766 405.344 330.66 405.344 333.082 405.344 335.434 404.516 337.328 403.004L426.66 331.539 426.66 384.004C426.66 389.898 431.438 394.672 437.328 394.672L618.656 394.672 618.656 618.668Z" class="MsftOfcThm_Accent1_Fill_v2" fill="#2D0F64"/><path d="M362.59 21.3398C366.469 23.418 369.973 26.1289 372.961 29.3594 378.941 36.6523 387.457 41.4023 396.797 42.6719 406.637 41.418 415.621 36.4609 421.93 28.8047 424.629 25.9727 427.648 23.4688 430.934 21.3398 433.129 21.4375 438.879 26.8203 441.973 29.7109 447.727 36.832 455.992 41.4688 465.062 42.6719 475.539 41.3438 485.113 36.0898 491.859 27.9727 494.473 25.5195 498.43 21.7969 499.195 21.3398 504.922 21.3398 506.234 23.2383 509.758 28.3164 514.387 37.0625 523.434 42.5742 533.332 42.6719 539.219 42.6719 543.996 37.8945 543.996 32.0078 543.996 26.1133 539.219 21.3398 533.332 21.3398 531.195 21.3398 530.781 21.1914 527.316 16.1875 521.652 6.01172 510.836-0.210938 499.195 0.00390625 490.566 1.20312 482.715 5.64062 477.246 12.4219 473.703 15.7617 467.766 21.3398 465.512 21.3906 462.207 19.3906 459.191 16.9531 456.527 14.1523 450.113 6.33984 440.957 1.28125 430.93 0.00390625 421.684 1.26562 413.262 5.97656 407.344 13.1875 404.352 16.3984 400.895 19.1445 397.094 21.3398 393.539 19.3008 390.305 16.7539 387.496 13.7656 381.262 6.19531 372.387 1.28125 362.66 0.00390625 356.773-0.015625 351.977 4.74219 351.957 10.6367 351.938 16.5234 356.699 21.3203 362.59 21.3398Z" class="MsftOfcThm_Accent1_Fill_v2" fill="#2D0F64"/><path d="M117.336 490.668 74.6641 490.668C68.7734 490.668 64 495.445 64 501.332L64 565.332C64 571.227 68.7734 576 74.6641 576L117.336 576C123.223 576 128 571.227 128 565.332L128 501.332C128 495.445 123.223 490.668 117.336 490.668ZM106.664 554.668 85.332 554.668 85.332 512.004 106.664 512.004Z" class="MsftOfcThm_Accent1_Fill_v2" fill="#2D0F64"/><path d="M202.668 490.668 160 490.668C154.105 490.668 149.332 495.445 149.332 501.332L149.332 565.332C149.332 571.227 154.105 576 160 576L202.668 576C208.555 576 213.332 571.227 213.332 565.332L213.332 501.332C213.332 495.445 208.555 490.668 202.668 490.668ZM191.996 554.668 170.664 554.668 170.664 512.004 191.996 512.004Z" class="MsftOfcThm_Accent1_Fill_v2" fill="#2D0F64"/><path d="M288 490.668 245.332 490.668C239.438 490.668 234.664 495.445 234.664 501.332L234.664 565.332C234.664 571.227 239.438 576 245.332 576L288 576C293.887 576 298.664 571.227 298.664 565.332L298.664 501.332C298.664 495.445 293.887 490.668 288 490.668ZM277.328 554.668 255.996 554.668 255.996 512.004 277.328 512.004Z" class="MsftOfcThm_Accent1_Fill_v2" fill="#2D0F64"/></g></svg>