<svg width="336.08" height="336.01" viewBox="0 0 336.08 336.01" xmlns="http://www.w3.org/2000/svg" xmlns:xlink="http://www.w3.org/1999/xlink" xml:space="preserve" overflow="visible"><style>
.MsftOfcThm_Accent1_Fill_v2 {
 fill:#2D0F64; 
}
</style>
<defs></defs><path d="M78.04 299.83C138.27 299.83 197.97 299.83 258.04 299.83 258.04 298.32 258.04 296.99 258.04 295.65 258.04 272.03 258.04 248.41 258.04 224.79 258.04 223.67 257.94 222.52 258.11 221.42 258.63 218.17 260.57 216.27 263.88 216.06 266.97 215.86 269.57 218.22 269.97 221.48 270.09 222.47 270.03 223.48 270.03 224.48 270.03 250.98 270.04 277.47 270.03 303.97 270.02 323.45 257.4 336.01 237.84 336.01 191.22 336.02 144.61 336.02 97.99 336.01 78.71 336 66.05 323.36 66.03 304.12 66.01 277.62 66.03 251.13 66.03 224.63 66.03 223.51 65.92 222.35 66.12 221.26 66.72 218.03 68.71 216.08 72.03 216.09 75.35 216.09 77.34 218.05 77.93 221.28 78.15 222.49 78.03 223.77 78.03 225.02 78.03 248.52 78.03 272.01 78.03 295.51 78.04 296.85 78.04 298.2 78.04 299.83ZM256.41 312.23C197.35 312.23 138.55 312.23 79.68 312.23 81.85 319.6 88.5 324 97.36 324 142.86 324.01 188.35 324.01 233.85 324 236.1 324 238.35 324.06 240.6 323.97 248.01 323.7 254.4 318.99 256.41 312.23Z" class="MsftOfcThm_Accent1_Fill_v2" stroke-width="4.54041" fill="#2D0F64"/><path d="M216.03 12.01C216.03 14.39 216.08 16.36 216.02 18.33 215.73 28.02 208.25 35.86 198.62 35.94 178.25 36.11 157.88 36.11 137.52 35.94 127.89 35.86 120.35 28.03 120.06 18.39 120 16.41 120.05 14.44 120.05 12.26 110.83 12.26 101.82 11.59 92.96 12.45 83.93 13.32 78.06 21.22 78.05 30.71 78.01 57.33 78.04 83.94 78.04 110.56 78.04 111.68 78.09 112.81 78.01 113.93 77.76 117.5 75.36 119.94 72.11 119.98 68.84 120.02 66.36 117.62 66.07 114.08 66 113.21 66.04 112.33 66.04 111.46 66.04 84.84 66.02 58.23 66.05 31.61 66.07 12.81 78.79 0.03 97.53 0.02 144.51 -4.26742e-16 191.5 -4.26742e-16 238.48 0.02 257.26 0.03 270.01 12.77 270.03 31.55 270.06 58.29 270.04 85.03 270.04 111.77 270.04 112.77 270.13 113.79 269.95 114.76 269.33 117.98 267.35 119.94 264.04 119.93 260.73 119.92 258.73 117.97 258.15 114.74 257.93 113.53 258.06 112.25 258.06 111 258.06 84.76 258.06 58.52 258.06 32.28 258.06 19.08 250.92 12.02 237.62 12.01 230.61 12.01 223.62 12.01 216.03 12.01ZM132.05 12.16C132.05 14.14 131.99 15.86 132.06 17.58 132.23 21.57 134.4 23.95 138.36 23.96 158.2 24.03 178.04 24.03 197.88 23.95 201.62 23.94 203.81 21.55 204.01 17.79 204.11 15.97 204.03 14.13 204.03 12.16 179.96 12.16 156.29 12.16 132.05 12.16Z" class="MsftOfcThm_Accent1_Fill_v2" stroke-width="4.54041" fill="#2D0F64"/><path d="M102.06 167.87C102.01 131.56 131.69 102.04 168.28 102.02 204.26 101.99 233.96 131.59 234.04 167.57 234.13 204.15 204.67 233.94 168.38 233.99 131.64 234.03 102.11 204.6 102.06 167.87ZM114.06 167.84C113.94 197.66 138.16 221.94 168.07 222.01 197.53 222.08 221.9 197.95 222.04 168.57 222.19 138.73 198.26 114.22 168.78 114.02 138.58 113.81 114.17 137.82 114.06 167.84Z" class="MsftOfcThm_Accent1_Fill_v2" stroke-width="4.54041" fill="#2D0F64"/><path d="M282.04 132.01C282.04 122.27 282.02 113.04 282.05 103.81 282.06 97.98 284.06 96.04 289.99 96.01 290.86 96.01 291.75 95.94 292.61 96.02 297.59 96.51 301.15 95.65 304.5 90.7 310.46 81.91 323.36 81.78 330.83 89.31 338.22 96.76 337.74 108.8 329.78 115.64 321.73 122.56 309.12 121.28 303.56 112.24 301.11 108.26 298.53 107.42 294.04 108.3 294.04 109.33 294.04 110.53 294.04 111.73 294.04 120.23 294.09 128.72 294.02 137.22 293.98 141.66 291.73 143.96 287.31 143.98 273.82 144.04 260.32 144.03 246.82 143.98 242.7 143.96 240.09 141.56 240.07 138.04 240.05 134.38 242.71 132.04 247.12 132.02 258.61 131.98 270.08 132.01 282.04 132.01ZM324.02 101.92C323.97 98.69 321.28 96.03 318.05 96.04 314.67 96.04 311.92 98.92 312.07 102.29 312.22 105.51 315 108.09 318.22 107.99 321.44 107.88 324.07 105.14 324.02 101.92Z" class="MsftOfcThm_Accent1_Fill_v2" stroke-width="4.54041" fill="#2D0F64"/><path d="M42.04 227.69C42.04 218.52 42.03 209.42 42.04 200.33 42.05 193.9 43.89 192.02 50.21 192.02 62.7 192.01 75.2 192.01 87.69 192.02 93.15 192.02 95.94 194.02 96 197.93 96.06 201.86 93.2 204.01 87.86 204.02 76.75 204.03 65.65 204.02 54.03 204.02 54.03 209.04 54.03 213.86 54.03 218.68 54.03 223.55 54.09 228.43 54.01 233.3 53.93 237.71 51.68 239.87 47.24 240.01 45.99 240.05 44.73 240.11 43.49 240 38.52 239.55 34.94 240.34 31.58 245.29 25.61 254.1 12.82 254.24 5.26 246.7-2.26 239.19-1.68 227 6.54 220.14 14.51 213.48 27.05 214.86 32.49 223.74 34.95 227.73 37.51 228.62 42.04 227.69ZM17.87 239.98C21.08 240.07 23.87 237.48 24.02 234.26 24.18 230.91 21.4 228.01 18.03 228.02 14.82 228.03 12.12 230.7 12.07 233.92 12.02 237.15 14.65 239.89 17.87 239.98Z" class="MsftOfcThm_Accent1_Fill_v2" stroke-width="4.54041" fill="#2D0F64"/><path d="M54.04 132.01C65.84 132.01 77.18 131.96 88.53 132.06 90.2 132.07 92.51 132.25 93.38 133.3 94.72 134.93 95.89 137.47 95.66 139.45 95.28 142.64 92.57 144.01 89.3 144.01 78.56 143.99 67.81 144 57.07 144 54.45 144 51.82 144.03 49.2 143.99 44.28 143.91 42.09 141.78 42.06 136.9 42.01 127.42 42.05 117.95 42.05 108.25 38.12 107.77 35.16 107.37 32.76 111.85 29.02 118.85 20.18 121.53 12.53 119.12 4.97 116.74-0.13 109.53 0.05 101.44 0.22 93.5 5.68 86.72 13.6 84.61 21.18 82.59 29.39 85.72 33.2 92.71 34.73 95.52 36.43 96.3 39.32 96.04 41.8 95.82 44.31 95.97 46.81 96 51.89 96.07 54.01 98.2 54.03 103.38 54.07 112.76 54.04 122.11 54.04 132.01ZM18.02 107.98C21.24 107.99 23.95 105.35 24.02 102.12 24.09 98.9 21.48 96.14 18.26 96.03 14.89 95.91 12.04 98.69 12.08 102.07 12.11 105.3 14.79 107.97 18.02 107.98Z" class="MsftOfcThm_Accent1_Fill_v2" stroke-width="4.54041" fill="#2D0F64"/><path d="M282.05 204.01C275.05 204.01 268.46 204.01 261.87 204.01 257 204.01 252.13 204.04 247.25 204 242.8 203.96 240.13 201.72 240.07 198.09 240.01 194.44 242.69 192.11 247.07 192.01 247.44 192 247.82 192.01 248.19 192.01 260.81 192.01 273.43 192 286.04 192.01 292.11 192.02 294.01 193.97 294.02 200.14 294.04 209.01 294.04 217.88 294.06 226.75 294.06 226.99 294.16 227.23 294.27 227.72 297.9 228.26 300.85 228.64 303.25 224.21 307.06 217.18 315.76 214.48 323.46 216.85 331.03 219.19 336.18 226.41 336.02 234.47 335.87 242.44 330.33 249.38 322.56 251.36 314.73 253.35 306.54 250.13 302.68 243.05 301.33 240.57 299.89 239.7 297.2 239.95 294.47 240.2 291.71 240.05 288.96 239.99 284.3 239.9 282.07 237.73 282.05 233.06 282.01 223.58 282.05 214.09 282.05 204.01ZM324.02 233.86C323.94 230.64 321.21 228 317.99 228.03 314.77 228.06 312.09 230.75 312.07 233.97 312.05 237.34 314.93 240.13 318.28 239.99 321.49 239.84 324.09 237.07 324.02 233.86Z" class="MsftOfcThm_Accent1_Fill_v2" stroke-width="4.54041" fill="#2D0F64"/><path d="M60.43 174.01C52.81 174.01 45.2 173.91 37.59 174.11 36.35 174.14 34.65 175.2 34.01 176.29 29.49 183.97 21.63 187.53 13.39 185.34 5.48 183.25 0.04 176.17 0.05 167.99 0.06 159.66 5.55 152.71 13.8 150.59 21.77 148.54 29.75 152.08 33.89 159.85 34.93 161.79 36.15 162.05 38.01 162.04 52.99 162 67.97 161.99 82.95 162.03 87.45 162.04 90.27 164.66 90.01 168.4 89.78 171.75 87.24 173.96 83.29 173.99 75.67 174.05 68.05 174.01 60.43 174.01ZM24.02 167.89C23.95 164.66 21.25 162.01 18.03 162.03 14.65 162.05 11.91 164.94 12.08 168.3 12.24 171.52 15.05 174.09 18.26 173.97 21.47 173.87 24.08 171.11 24.02 167.89Z" class="MsftOfcThm_Accent1_Fill_v2" stroke-width="4.54041" fill="#2D0F64"/><path d="M276.06 162.01C283.3 162.01 290.54 161.94 297.78 162.05 299.98 162.08 301.26 161.63 302.41 159.45 306.37 151.94 314.65 148.52 322.72 150.68 330.62 152.79 336.05 159.88 336.04 168.06 336.02 176.23 330.52 183.33 322.63 185.36 314.48 187.45 306.36 184.04 302.36 176.48 301.29 174.45 300.12 173.97 298.05 173.98 283.82 174.05 269.59 174.02 255.35 174.02 254.35 174.02 253.35 174.06 252.35 174 248.54 173.79 246.03 171.36 246.07 167.96 246.1 164.56 248.61 162.09 252.46 162.05 260.33 161.95 268.19 162.02 276.06 162.01ZM324.01 168.3C324.18 165.1 321.64 162.26 318.42 162.04 315.23 161.82 312.34 164.32 312.07 167.53 311.79 170.88 314.46 173.87 317.82 173.99 321.04 174.09 323.84 171.51 324.01 168.3Z" class="MsftOfcThm_Accent1_Fill_v2" stroke-width="4.54041" fill="#2D0F64"/><path d="M161.89 197.99C159.46 197.99 157.47 198.08 155.48 197.97 150.56 197.71 146.36 194.52 144.76 189.93 143.19 185.44 144.41 181.82 147.97 180.44 151.51 179.07 154.45 180.93 156.32 185.84 164.06 185.84 171.86 185.84 179.86 185.84 179.86 181.97 179.86 178.27 179.86 174.01 177.08 174.01 174.27 174.01 171.45 174.01 166.45 174.01 161.46 174.07 156.46 173.99 149.23 173.88 144.21 168.91 144.07 161.75 143.99 158 144.01 154.25 144.06 150.51 144.17 143.04 149.09 138.14 156.56 138.01 158.27 137.98 159.99 138.01 161.91 138.01 162.42 132.94 160.5 126.56 168.3 126.11 172.36 125.88 173.6 128.57 174.26 138.02 176.28 138.02 178.35 137.93 180.41 138.04 185.35 138.29 188.9 140.76 190.98 145.2 193.13 149.76 191.99 153.91 188.31 155.48 184.69 157.03 181.71 155.2 179.7 150.11 172.02 150.11 164.3 150.11 156.31 150.11 156.31 153.99 156.31 157.78 156.31 162.01 163.53 162.01 170.74 162 177.94 162.01 187.39 162.02 192.03 166.59 192.05 175.93 192.06 179.05 192.08 182.18 192.04 185.3 191.94 193 187.04 197.89 179.34 198 177.73 198.02 176.13 198 174.3 198 173.53 202.82 175.68 209.84 167.97 209.77 160.51 209.72 162.43 203 161.89 197.99Z" class="MsftOfcThm_Accent1_Fill_v2" stroke-width="4.54041" fill="#2D0F64"/></svg>