<svg width="512" height="512" viewBox="0 0 124 124" xmlns="http://www.w3.org/2000/svg" xmlns:xlink="http://www.w3.org/1999/xlink" id="Layer_1" overflow="hidden"><style>
.MsftOfcThm_Accent1_Fill_v2 {
 fill:#2D0F64; 
}
</style>
<path d="M118.052 26.953 29.239 11.111C25.347 10.411 21.566 13.134 20.891 17.005L15.171 49.819 7 49.819C3.14 49.819 7.10543e-15 52.96 7.10543e-15 56.819L7.10543e-15 105.999C7.10543e-15 109.858 3.14 112.999 7 112.999L97.587 112.999C101.447 112.999 104.587 109.858 104.587 105.999L104.587 88.706C107.182 89.169 109.687 89.715 112.086 88.28 113.886 87.203 115.177 85.346 115.538 83.277L123.89 35.361C124.577 31.42 121.958 27.648 118.052 26.953ZM24.832 17.692C25.132 15.973 26.8 14.738 28.537 15.048L117.35 30.89C119.093 31.201 120.259 32.898 119.95 34.673L118.572 42.583 23.45 25.617ZM100.587 105.999C100.587 107.653 99.241 108.999 97.587 108.999L7 108.999C5.346 108.999 4 107.653 4 105.999L4 56.819C4 55.165 5.346 53.819 7 53.819L97.587 53.819C99.241 53.819 100.587 55.165 100.587 56.819ZM111.598 82.59C110.976 86.147 107.026 85.078 104.587 84.643L104.587 56.819C104.587 52.96 101.447 49.819 97.587 49.819L19.232 49.819 22.763 29.557 28.557 30.59 117.884 46.523Z" class="MsftOfcThm_Accent1_Fill_v2" fill="#2D0F64"/><path d="M47.119 101.003 35.619 101.003C34.515 101.003 33.619 100.107 33.619 99.003 33.619 97.899 34.515 97.003 35.619 97.003L47.119 97.003C48.223 97.003 49.119 97.899 49.119 99.003 49.119 100.107 48.224 101.003 47.119 101.003Z" class="MsftOfcThm_Accent1_Fill_v2" fill="#2D0F64"/><path d="M25.271 101.003 13.771 101.003C12.667 101.003 11.771 100.107 11.771 99.003 11.771 97.899 12.667 97.003 13.771 97.003L25.271 97.003C26.375 97.003 27.271 97.899 27.271 99.003 27.271 100.107 26.375 101.003 25.271 101.003Z" class="MsftOfcThm_Accent1_Fill_v2" fill="#2D0F64"/><path d="M68.967 101.003 57.467 101.003C56.363 101.003 55.467 100.107 55.467 99.003 55.467 97.899 56.363 97.003 57.467 97.003L68.967 97.003C70.071 97.003 70.967 97.899 70.967 99.003 70.967 100.107 70.072 101.003 68.967 101.003Z" class="MsftOfcThm_Accent1_Fill_v2" fill="#2D0F64"/><path d="M90.816 101.003 79.316 101.003C78.212 101.003 77.316 100.107 77.316 99.003 77.316 97.899 78.212 97.003 79.316 97.003L90.816 97.003C91.92 97.003 92.816 97.899 92.816 99.003 92.816 100.107 91.92 101.003 90.816 101.003Z" class="MsftOfcThm_Accent1_Fill_v2" fill="#2D0F64"/><path d="M30.438 90.627 15.952 90.627C13.195 90.627 10.952 88.384 10.952 85.627L10.952 79.883C10.952 77.126 13.195 74.883 15.952 74.883L30.438 74.883C33.195 74.883 35.438 77.126 35.438 79.883L35.438 85.627C35.438 88.383 33.194 90.627 30.438 90.627ZM15.952 78.882C15.401 78.882 14.952 79.33 14.952 79.882L14.952 85.626C14.952 86.178 15.401 86.626 15.952 86.626L30.438 86.626C30.989 86.626 31.438 86.178 31.438 85.626L31.438 79.882C31.438 79.33 30.989 78.882 30.438 78.882Z" class="MsftOfcThm_Accent1_Fill_v2" fill="#2D0F64"/></svg>