<svg viewBox="0 0 480.07 480.07" xmlns="http://www.w3.org/2000/svg" xmlns:xlink="http://www.w3.org/1999/xlink" id="Capa_1" xml:space="preserve" overflow="hidden"><style>
.MsftOfcThm_Accent1_Fill_v2 {
 fill:#2D0F64; 
}
</style>
<g><g><path d="M184.034 328.032 152.034 328.032 152.034 296.032C152.034 291.614 148.452 288.032 144.034 288.032L112.034 288.032C107.616 288.032 104.034 291.614 104.034 296.032L104.034 328.032 72.034 328.032C67.616 328.032 64.034 331.614 64.034 336.032L64.034 368.032C64.034 372.45 67.616 376.032 72.034 376.032L104.034 376.032 104.034 408.032C104.034 412.45 107.616 416.032 112.034 416.032L144.034 416.032C148.452 416.032 152.034 412.45 152.034 408.032L152.034 376.032 184.034 376.032C188.452 376.032 192.034 372.45 192.034 368.032L192.034 336.032C192.034 331.614 188.452 328.032 184.034 328.032ZM176.034 360.032 144.034 360.032C139.616 360.032 136.034 363.614 136.034 368.032L136.034 400.032 120.034 400.032 120.034 368.032C120.034 363.614 116.452 360.032 112.034 360.032L80.034 360.032 80.034 344.032 112.034 344.032C116.452 344.032 120.034 340.45 120.034 336.032L120.034 304.032 136.034 304.032 136.034 336.032C136.034 340.45 139.616 344.032 144.034 344.032L176.034 344.032 176.034 360.032Z" class="MsftOfcThm_Accent1_Fill_v2" fill="#2D0F64"/></g></g><g><g><path d="M479.234 337.416C473.098 282.288 421.322 230.712 366.146 224.832 361.46 224.315 356.749 224.048 352.034 224.032L264.034 224.032 264.034 192.032 248.034 192.032 248.034 176.032C248.034 158.359 233.707 144.032 216.034 144.032L176.034 144.032C167.197 144.032 160.034 136.869 160.034 128.032 160.034 119.195 167.197 112.032 176.034 112.032L304.034 112.032C321.707 112.032 336.034 97.705 336.034 80.032 336.034 62.359 321.707 48.032 304.034 48.032L264.034 48.032C255.197 48.032 248.034 40.869 248.034 32.032L248.034 0.032 232.034 0.032 232.034 32.032C232.034 49.705 246.361 64.032 264.034 64.032L304.034 64.032C312.871 64.032 320.034 71.195 320.034 80.032 320.034 88.869 312.871 96.032 304.034 96.032L176.034 96.032C158.361 96.032 144.034 110.359 144.034 128.032 144.034 145.705 158.361 160.032 176.034 160.032L216.034 160.032C224.871 160.032 232.034 167.195 232.034 176.032L232.034 192.032 216.034 192.032 216.034 224.032 128.034 224.032C123.314 224.043 118.597 224.31 113.906 224.832 58.706 230.752 6.962 282.328 0.842 337.456-7.195 407.69 43.225 471.142 113.46 479.179 142.06 482.452 170.928 475.988 195.402 460.833 205.939 453.935 217.983 449.679 230.514 448.425 236.704 447.936 242.921 447.914 249.114 448.361 261.843 449.592 274.081 453.897 284.778 460.905 344.913 498.069 423.79 479.448 460.954 419.312 476.076 394.843 482.516 365.993 479.234 337.416ZM232.034 208.032 248.034 208.032 248.034 224.032 232.034 224.032 232.034 208.032ZM435.514 426.704C399.345 467.16 339.366 475.842 293.21 447.304 280.321 438.911 265.576 433.795 250.258 432.4 246.882 432.155 243.474 432.032 240.034 432.032 236.394 432.032 232.834 432.184 229.25 432.464 214.165 433.909 199.653 438.975 186.946 447.232 134.344 479.777 65.319 463.519 32.773 410.917 19.524 389.503 13.878 364.249 16.746 339.232 22.01 291.856 68.202 245.84 115.626 240.744 119.746 240.283 123.888 240.046 128.034 240.032L352.034 240.032C356.179 240.035 360.321 240.256 364.442 240.696 411.858 245.792 458.042 291.808 463.322 339.184 467.094 371.001 456.959 402.899 435.514 426.704Z" class="MsftOfcThm_Accent1_Fill_v2" fill="#2D0F64"/></g></g><g><g><path d="M352.034 272.032C334.361 272.032 320.034 286.359 320.034 304.032 320.034 321.705 334.361 336.032 352.034 336.032 369.707 336.032 384.034 321.705 384.034 304.032 384.034 286.359 369.707 272.032 352.034 272.032ZM352.034 320.032C343.197 320.032 336.034 312.869 336.034 304.032 336.034 295.195 343.197 288.032 352.034 288.032 360.871 288.032 368.034 295.195 368.034 304.032 368.034 312.869 360.87 320.032 352.034 320.032Z" class="MsftOfcThm_Accent1_Fill_v2" fill="#2D0F64"/></g></g><g><g><path d="M352.034 368.032C334.361 368.032 320.034 382.359 320.034 400.032 320.034 417.705 334.361 432.032 352.034 432.032 369.707 432.032 384.034 417.705 384.034 400.032 384.034 382.359 369.707 368.032 352.034 368.032ZM352.034 416.032C343.197 416.032 336.034 408.869 336.034 400.032 336.034 391.195 343.197 384.032 352.034 384.032 360.871 384.032 368.034 391.195 368.034 400.032 368.034 408.869 360.87 416.032 352.034 416.032Z" class="MsftOfcThm_Accent1_Fill_v2" fill="#2D0F64"/></g></g><g><g><path d="M296.034 320.032C278.361 320.032 264.034 334.359 264.034 352.032 264.034 369.705 278.361 384.032 296.034 384.032 313.707 384.032 328.034 369.705 328.034 352.032 328.034 334.359 313.707 320.032 296.034 320.032ZM296.034 368.032C287.197 368.032 280.034 360.869 280.034 352.032 280.034 343.195 287.197 336.032 296.034 336.032 304.871 336.032 312.034 343.195 312.034 352.032 312.034 360.869 304.87 368.032 296.034 368.032Z" class="MsftOfcThm_Accent1_Fill_v2" fill="#2D0F64"/></g></g><g><g><path d="M408.034 320.032C390.361 320.032 376.034 334.359 376.034 352.032 376.034 369.705 390.361 384.032 408.034 384.032 425.707 384.032 440.034 369.705 440.034 352.032 440.034 334.359 425.707 320.032 408.034 320.032ZM408.034 368.032C399.197 368.032 392.034 360.869 392.034 352.032 392.034 343.195 399.197 336.032 408.034 336.032 416.871 336.032 424.034 343.195 424.034 352.032 424.034 360.869 416.87 368.032 408.034 368.032Z" class="MsftOfcThm_Accent1_Fill_v2" fill="#2D0F64"/></g></g><g></g><g></g><g></g><g></g><g></g><g></g><g></g><g></g><g></g><g></g><g></g><g></g><g></g><g></g><g></g></svg>