<svg viewBox="0 0 96 96" xmlns="http://www.w3.org/2000/svg" xmlns:xlink="http://www.w3.org/1999/xlink" id="Icons_HighVoltage_M" overflow="hidden"><style>
.MsftOfcThm_Accent1_Fill_v2 {
 fill:#2D0F64; 
}
</style>
<g id="Icons"><path d="M51.5 12C50.4365 10.0946 48.0298 9.41212 46.1244 10.4756 45.4848 10.8326 44.957 11.3604 44.6 12L5.4 80C4.30371 81.9275 4.9775 84.3787 6.90497 85.475 7.5129 85.8208 8.20061 86.0017 8.9 86L87.1 86C89.3174 86.0055 91.1195 84.2124 91.125 81.995 91.1268 81.2956 90.9458 80.6079 90.6 80ZM88.839 83.019C88.4799 83.637 87.8146 84.0123 87.1 84L8.9 84C8.18539 84.0123 7.52006 83.637 7.161 83.019 6.78915 82.4 6.77846 81.629 7.133 81L46.348 12.971C46.8768 12.0316 48.0671 11.6987 49.0065 12.2276 49.3275 12.4082 49.5908 12.676 49.766 13L88.852 80.971C89.2186 81.6057 89.2137 82.389 88.839 83.019Z" class="MsftOfcThm_Accent1_Fill_v2" fill="#2D0F64"/><path d="M54.9 30 42.9 30 38.9 55 47.1 55 41.434 77.961C41.4321 77.9662 41.4347 77.9721 41.44 77.974 41.4452 77.9759 41.4511 77.9732 41.453 77.968L58 49 49.6 49ZM54.557 51 46.821 64.56C46.802 64.595 46.793 64.591 46.803 64.553L49.042 55.479 49.654 53 41.245 53 44.605 32 52.266 32 47.674 48.463 46.966 51 54.557 51Z" class="MsftOfcThm_Accent1_Fill_v2" fill="#2D0F64"/></g></svg>