<svg viewBox="0 0 96 96" xmlns="http://www.w3.org/2000/svg" xmlns:xlink="http://www.w3.org/1999/xlink" id="Icons_Train_M" overflow="hidden"><style>
.MsftOfcThm_Accent1_Fill_v2 {
 fill:#2D0F64; 
}
.MsftOfcThm_Accent1_Stroke_v2 {
 stroke:#2D0F64; 
}
</style>
<g id="Icons"><path d="M32 4C27.5874 4.01373 24.0137 7.58742 24 12L24 58C24.0104 61.3094 26.6906 63.9896 30 64L66 64C69.3092 63.989 71.989 61.3092 72 58L72 12C71.9863 7.58742 68.4126 4.01373 64 4ZM70 14 70 37 26 37 26 14 44 14 44 13C44 12.4477 44.4477 12 45 12L51 12C51.5523 12 52 12.4477 52 13L52 14ZM66 62 30 62C27.7922 61.9967 26.0033 60.2078 26 58L26 39 70 39 70 58C69.9967 60.2078 68.2078 61.9967 66 62ZM70 12 53.831 12C53.4054 10.8016 52.2717 10.0007 51 10L45 10C43.729 10.0016 42.5964 10.8023 42.171 12L26 12C26.0044 8.68812 28.6881 6.00441 32 6L64 6C67.3121 6.00386 69.9961 8.68789 70 12Z" class="MsftOfcThm_Accent1_Fill_v2 MsftOfcThm_Accent1_Stroke_v2" stroke="#2D0F64" stroke-width="0.901408" fill="#2D0F64"/><path d="M33 51C30.7909 51 29 52.7909 29 55 29 57.2091 30.7909 59 33 59 35.2091 59 37 57.2091 37 55 37.0233 52.8142 35.2703 51.0233 33.0844 51 33.0563 50.9997 33.0281 50.9997 33 51ZM33 57C31.8954 57 31 56.1046 31 55 31 53.8954 31.8954 53 33 53 34.1046 53 35 53.8954 35 55 35.0246 56.08 34.169 56.9754 33.089 57 33.0593 57.0007 33.0297 57.0007 33 57Z" class="MsftOfcThm_Accent1_Fill_v2 MsftOfcThm_Accent1_Stroke_v2" stroke="#2D0F64" stroke-width="0.901408" fill="#2D0F64"/><path d="M63 51C60.7909 51 59 52.7909 59 55 59 57.2091 60.7909 59 63 59 65.2091 59 67 57.2091 67 55 67.0233 52.8142 65.2703 51.0233 63.0844 51 63.0563 50.9997 63.0281 50.9997 63 51ZM63 57C61.8954 57 61 56.1046 61 55 61 53.8954 61.8954 53 63 53 64.1046 53 65 53.8954 65 55 65.0246 56.08 64.169 56.9754 63.089 57 63.0593 57.0007 63.0297 57.0007 63 57Z" class="MsftOfcThm_Accent1_Fill_v2 MsftOfcThm_Accent1_Stroke_v2" stroke="#2D0F64" stroke-width="0.901408" fill="#2D0F64"/><path d="M62.709 67 64.064 70 31.936 70 33.291 67 31.1 67 19.355 93 21.549 93 23.807 88 72.193 88 74.451 93 76.645 93 64.9 67ZM71.29 86 24.71 86 27.42 80 68.58 80ZM67.677 78 28.323 78 31.033 72 64.968 72Z" class="MsftOfcThm_Accent1_Fill_v2 MsftOfcThm_Accent1_Stroke_v2" stroke="#2D0F64" stroke-width="0.901408" fill="#2D0F64"/></g></svg>