<svg width="512" height="512" viewBox="0 0 64 64" xmlns="http://www.w3.org/2000/svg" xmlns:xlink="http://www.w3.org/1999/xlink" id="Layer_5" overflow="hidden"><style>
.MsftOfcThm_Accent1_Fill_v2 {
 fill:#2D0F64; 
}
</style>
<g><path d="M58 28.88C60.833 28.242 63 24.956 63 21 63 16.589 60.309 13 57 13 56.286 13 55.598 13.187 54.95 13.502 54.891 12.913 54.739 12.356 54.493 11.846 56.038 10.73 57 8.933 57 7 57 3.691 54.309 1 51 1 48.47 1 46.3 2.58 45.43 4.828 43.91 3.678 42.026 3 40 3 36.149 3 32.765 5.44 31.514 9.023 28.984 9.269 27 11.407 27 14 27 16.757 29.243 19 32 19L41.685 19C41.25 19.911 41 20.925 41 22 41 25.519 43.613 28.432 47 28.92L47 31 33 31 33 20.219 25 18.219 25 7 11 7 11 18.219 3 20.219 3 31 1 31 1 32C1 49.093 14.907 63 32 63 49.093 63 63 49.093 63 32L63 31 58 31ZM61 21C61 23.736 59.702 26.108 58 26.794L58 23 56 23 56 26.796C55.328 26.528 54.707 25.999 54.199 25.241 54.708 24.271 55 23.17 55 22 55 20.445 54.484 19.012 53.624 17.849 54.357 16.107 55.64 15 57 15 59.168 15 61 17.748 61 21ZM51 3C53.206 3 55 4.794 55 7 55 8.304 54.341 9.518 53.283 10.259 52.403 9.485 51.262 9 50 9 49.496 9 49.018 9.097 48.559 9.237 48.228 8.208 47.723 7.267 47.077 6.445 47.351 4.49 49 3 51 3ZM29 14C29 12.348 30.342 11.004 32.004 11.004L32.012 11.004C32.07 11.012 32.129 11.019 32.188 11.023L33.02 11.08 33.226 10.272C34.014 7.168 36.8 5 40 5 43.209 5 45.952 7.178 46.748 10.234 45.687 11.151 45 12.491 45 14L47 14C47 12.346 48.346 11 50 11 51.654 11 53 12.346 53 14L53 15.044C52.673 15.433 52.385 15.878 52.127 16.359 50.968 15.509 49.544 15 48 15 46.098 15 44.373 15.765 43.11 17L32 17C30.346 17 29 15.654 29 14ZM43 22C43 19.243 45.243 17 48 17 50.757 17 53 19.243 53 22 53 24.414 51.279 26.434 49 26.899L49 21.414 50.707 19.707 49.293 18.293 47 20.586 47 23.132 45.555 22.168 44.446 23.832 47 25.535 47 26.899C44.721 26.434 43 24.414 43 22ZM49 28.92C50.541 28.698 51.922 27.98 52.969 26.924 53.816 27.956 54.859 28.629 56 28.879L56 31 49 31ZM31 21.781 31 31 30 31 25 31 25 20.281ZM13 13 23 13 23 31 13 31ZM23 9 23 11 13 11 13 9ZM5 21.781 11 20.281 11 31 5 31ZM30 33 32 33C32.551 33 33 33.449 33 34 33 34.551 32.551 35 32 35L14 35C12.346 35 11 36.346 11 38 11 39.654 12.346 41 14 41L24 41C24.551 41 25 41.449 25 42 25 42.551 24.551 43 24 43L5.174 43C3.897 39.897 3.137 36.529 3.017 33ZM10.114 51 36 51C36.551 51 37 51.449 37 52 37 52.551 36.551 53 36 53L29 53C27.346 53 26 54.346 26 56 26 57.654 27.346 59 29 59L39 59C39.508 59 39.912 59.386 39.975 59.877 37.44 60.604 34.766 61 32 61 23.272 61 15.435 57.121 10.114 51ZM48 39 41 39C40.449 39 40 38.551 40 38 40 37.449 40.449 37 41 37L60.563 37C59.934 40.605 58.635 43.981 56.802 47L44 47C43.449 47 43 46.551 43 46 43 45.449 43.449 45 44 45L48 45C49.654 45 51 43.654 51 42 51 40.346 49.654 39 48 39ZM60.837 35 41 35C39.346 35 38 36.346 38 38 38 39.654 39.346 41 41 41L48 41C48.551 41 49 41.449 49 42 49 42.551 48.551 43 48 43L44 43C42.346 43 41 44.346 41 46 41 47.654 42.346 49 44 49L55.474 49C52.099 53.647 47.384 57.259 41.896 59.258 41.563 57.964 40.397 57 39 57L29 57C28.449 57 28 56.551 28 56 28 55.449 28.449 55 29 55L36 55C37.654 55 39 53.654 39 52 39 50.346 37.654 49 36 49L8.526 49C7.61 47.739 6.791 46.403 6.084 45L24 45C25.654 45 27 43.654 27 42 27 40.346 25.654 39 24 39L14 39C13.449 39 13 38.551 13 38 13 37.449 13.449 37 14 37L32 37C33.654 37 35 35.654 35 34 35 33.648 34.928 33.314 34.816 33L60.983 33C60.96 33.673 60.906 34.339 60.837 35Z" class="MsftOfcThm_Accent1_Fill_v2" fill="#2D0F64"/><path d="M40 7C37.717 7 35.726 8.542 35.158 10.751L37.095 11.249C37.435 9.925 38.63 9 40 9 40.527 9 41.046 9.139 41.5 9.401L42.5 7.669C41.744 7.231 40.879 7 40 7Z" class="MsftOfcThm_Accent1_Fill_v2" fill="#2D0F64"/><path d="M7 27 9 27 9 29 7 29Z" class="MsftOfcThm_Accent1_Fill_v2" fill="#2D0F64"/><path d="M7 23 9 23 9 25 7 25Z" class="MsftOfcThm_Accent1_Fill_v2" fill="#2D0F64"/><path d="M27 23 29 23 29 25 27 25Z" class="MsftOfcThm_Accent1_Fill_v2" fill="#2D0F64"/><path d="M27 27 29 27 29 29 27 29Z" class="MsftOfcThm_Accent1_Fill_v2" fill="#2D0F64"/><path d="M15 15 17 15 17 17 15 17Z" class="MsftOfcThm_Accent1_Fill_v2" fill="#2D0F64"/><path d="M19 15 21 15 21 17 19 17Z" class="MsftOfcThm_Accent1_Fill_v2" fill="#2D0F64"/><path d="M19 19 21 19 21 21 19 21Z" class="MsftOfcThm_Accent1_Fill_v2" fill="#2D0F64"/><path d="M15 19 17 19 17 21 15 21Z" class="MsftOfcThm_Accent1_Fill_v2" fill="#2D0F64"/><path d="M15 23 17 23 17 25 15 25Z" class="MsftOfcThm_Accent1_Fill_v2" fill="#2D0F64"/><path d="M19 23 21 23 21 25 19 25Z" class="MsftOfcThm_Accent1_Fill_v2" fill="#2D0F64"/><path d="M15 27 17 27 17 29 15 29Z" class="MsftOfcThm_Accent1_Fill_v2" fill="#2D0F64"/><path d="M19 27 21 27 21 29 19 29Z" class="MsftOfcThm_Accent1_Fill_v2" fill="#2D0F64"/></g></svg>