<svg width="512" height="512" viewBox="0 0 64 64" xmlns="http://www.w3.org/2000/svg" xmlns:xlink="http://www.w3.org/1999/xlink" id="Layer_1" overflow="hidden"><style>
.MsftOfcThm_Accent1_Fill_v2 {
 fill:#2D0F64; 
}
</style>
<path d="M60.501 26.72 56.749 23.718C56.734 23.706 56.719 23.691 56.704 23.679L60.197 22.98C60.664 22.887 61 22.477 61 22L61 19C61 18.448 60.552 18 60 18L55 18C54.448 18 54 18.448 54 19L54 20.752C53.977 20.721 53.954 20.69 53.931 20.659 53.868 20.485 53.756 20.343 53.614 20.23 53.051 19.433 52.569 18.635 52.255 17.945L50.565 14.228C49.488 11.857 46.604 10 44 10L20 10C17.396 10 14.512 11.857 13.435 14.228L11.746 17.944C11.432 18.634 10.95 19.433 10.387 20.23 10.245 20.343 10.134 20.485 10.07 20.659 10.047 20.69 10.025 20.72 10.001 20.752L10.001 19C10.001 18.448 9.553 18 9.001 18L4 18C3.448 18 3 18.448 3 19L3 22C3 22.477 3.336 22.887 3.804 22.98L7.297 23.679C7.282 23.691 7.267 23.706 7.252 23.718L3.499 26.72C1.537 28.29-1.02141e-14 31.488-1.02141e-14 34L-1.02141e-14 51C-1.02141e-14 52.654 1.346 54 3 54L11 54C12.654 54 14 52.654 14 51L14 49 50 49 50 51C50 52.654 51.346 54 53 54L61 54C62.654 54 64 52.654 64 51L64 34C64 31.488 62.463 28.29 60.501 26.72ZM51.414 47 49.121 44.707C48.148 43.734 46.376 43 45 43L18.5 43C17.124 43 15.352 43.734 14.379 44.707L12.086 47 5 47C3.346 47 2 45.654 2 44L2 39 3 39 3 40C3 42.206 4.794 44 7 44L10 44C10.552 44 11 43.552 11 43 11 42.448 10.552 42 10 42L7 42C5.897 42 5 41.103 5 40L5 39 7 39C7.83 39 9.12 39.534 9.707 40.121 9.902 40.316 10.158 40.414 10.414 40.414 10.67 40.414 10.926 40.316 11.121 40.121 11.512 39.73 11.512 39.098 11.121 38.707 10.148 37.734 8.377 37 7 37L2 37 2 34C2 33.647 2.056 33.266 2.135 32.877 2.775 33.545 3.706 34 5 34L13 34C13.265 34 13.519 33.895 13.707 33.707L15 32.414 16.293 33.707C16.48 33.895 16.735 34 17 34L28.586 34 31.293 36.707C31.488 36.902 31.744 37 32 37 32.256 37 32.512 36.902 32.707 36.707L35.414 34 47 34C47.265 34 47.52 33.895 47.707 33.707L49 32.414 50.293 33.707C50.48 33.895 50.735 34 51 34L59 34C60.294 34 61.225 33.545 61.865 32.877 61.944 33.266 62 33.647 62 34L62 37 57 37C55.624 37 53.852 37.734 52.879 38.707 52.488 39.098 52.488 39.73 52.879 40.121 53.074 40.316 53.33 40.414 53.586 40.414 53.842 40.414 54.098 40.316 54.293 40.121 54.88 39.534 56.17 39 57 39L59 39 59 40C59 41.103 58.103 42 57 42L54 42C53.448 42 53 42.448 53 43 53 43.552 53.448 44 54 44L57 44C59.206 44 61 42.206 61 40L61 39 62 39 62 44C62 45.654 60.654 47 59 47ZM48.586 47 14.914 47 15.793 46.121C16.38 45.534 17.67 45 18.5 45L45 45C45.83 45 47.12 45.534 47.707 46.121ZM11.56 22 52.44 22C53.409 23.281 54.516 24.493 55.499 25.28L56.702 26.242 49.629 29.071C49.628 29.071 49.628 29.072 49.627 29.072 49.506 29.121 49.392 29.194 49.294 29.292L48.294 30.292 46.586 32 35 32C34.735 32 34.48 32.105 34.293 32.293L32 34.586 29.707 32.293C29.52 32.105 29.265 32 29 32L17.414 32 15.707 30.293 14.707 29.293C14.609 29.195 14.495 29.122 14.374 29.073 14.373 29.073 14.373 29.072 14.372 29.072L7.299 26.243 8.502 25.281C9.484 24.493 10.591 23.281 11.56 22ZM60.941 30.419C60.74 31.464 60.092 32 59 32L51.414 32 50.414 31 50.562 30.852 58.497 27.678 59.251 28.282C59.885 28.789 60.47 29.56 60.941 30.419ZM56 20 59 20 59 21.18 56 21.78ZM13.565 18.772 15.254 15.056C16.008 13.399 18.181 12 20 12L44 12C45.819 12 47.992 13.399 48.745 15.055L50.435 18.772C50.611 19.158 50.84 19.575 51.091 20L12.909 20C13.16 19.575 13.39 19.158 13.565 18.772ZM5 20 8 20 8 21.78 5 21.18ZM4.748 28.282 5.502 27.678 13.438 30.852 13.586 31 12.586 32 5 32C3.908 32 3.26 31.464 3.059 30.419 3.53 29.56 4.114 28.789 4.748 28.282ZM11 52 3 52C2.449 52 2 51.551 2 51L2 47.975C2.838 48.609 3.87 49 5 49L12 49 12 51C12 51.551 11.551 52 11 52ZM61 52 53 52C52.449 52 52 51.551 52 51L52 49 59 49C60.13 49 61.162 48.609 62 47.975L62 51C62 51.551 61.551 52 61 52Z" class="MsftOfcThm_Accent1_Fill_v2" fill="#2D0F64"/></svg>