<svg width="512" height="512" viewBox="0 0 64 64" xmlns="http://www.w3.org/2000/svg" xmlns:xlink="http://www.w3.org/1999/xlink" id="Layer_1" overflow="hidden"><style>
.MsftOfcThm_Accent1_Fill_v2 {
 fill:#2D0F64; 
}
</style>
<path d="M30 23 34 23C35.6569 23 37 21.6569 37 20 37 18.3431 35.6569 17 34 17L30 17C28.3431 17 27 18.3431 27 20 27 21.6569 28.3431 23 30 23ZM30 19 34 19C34.5523 19 35 19.4477 35 20 35 20.5523 34.5523 21 34 21L30 21C29.4477 21 29 20.5523 29 20 29 19.4477 29.4477 19 30 19Z" class="MsftOfcThm_Accent1_Fill_v2" fill="#2D0F64"/><path d="M6 23 11.56 23C10.4327 24.8999 11.059 27.3539 12.9588 28.4812 14.8587 29.6085 17.3127 28.9822 18.44 27.0824 19.1867 25.824 19.1867 24.2584 18.44 23L21.36 23C19.36 31.79 25.64 33.23 32 33 38.36 33.24 44.65 31.79 42.64 23L45.56 23C44.4327 24.8999 45.059 27.3539 46.9588 28.4812 48.8587 29.6085 51.3127 28.9822 52.44 27.0824 53.1867 25.824 53.1867 24.2584 52.44 23L58 23C59.6569 23 61 21.6569 61 20 61 18.3431 59.6569 17 58 17L40.28 17C39.0676 14.7664 37.2336 12.9324 35 11.72L35 6C35 4.34315 33.6569 3 32 3 30.3431 3 29 4.34315 29 6L29 11.72C26.7664 12.9324 24.9324 14.7664 23.72 17L6 17C4.34315 17 3 18.3431 3 20 3 21.6569 4.34315 23 6 23ZM17 25C17 26.1046 16.1046 27 15 27 13.8954 27 13 26.1046 13 25 13 23.8954 13.8954 23 15 23 16.1046 23 17 23.8954 17 25ZM51 25C51 26.1046 50.1046 27 49 27 47.8954 27 47 26.1046 47 25 47 23.8954 47.8954 23 49 23 50.1046 23 51 23.8954 51 25ZM41.32 19 58 19C58.5523 19 59 19.4477 59 20 59 20.5523 58.5523 21 58 21L42.1 21C41.8766 20.3196 41.6162 19.652 41.32 19ZM31 11.08 31 6C31 5.44772 31.4477 5 32 5 32.5523 5 33 5.44772 33 6L33 11.08C32.3379 10.97 31.6621 10.97 31 11.08ZM30.57 13.25C36.63 11.63 40.91 20.89 41 26 41 30.25 38.1 31 32 31 25.9 31 23 30.25 23 26 23.11 21.33 26.15 14.78 30.57 13.25ZM6 19 22.68 19C22.3838 19.652 22.1234 20.3196 21.9 21L6 21C5.44772 21 5 20.5523 5 20 5 19.4477 5.44772 19 6 19Z" class="MsftOfcThm_Accent1_Fill_v2" fill="#2D0F64"/><path d="M60 35 4 35C3.44772 35 3 35.4477 3 36 3 36.5523 3.44772 37 4 37L20.5 37 11.08 59.62C10.8701 60.1309 11.1141 60.7151 11.625 60.925 11.744 60.9739 11.8713 60.9994 12 61L52 61C52.5523 60.9972 52.9978 60.5473 52.995 59.995 52.9944 59.8664 52.9689 59.739 52.92 59.62L43.5 37 60 37C60.5523 37 61 36.5523 61 36 61 35.4477 60.5523 35 60 35ZM37.33 37 46.5 59 17.5 59 26.67 37ZM22.67 37 24.5 37 15.33 59 13.5 59ZM50.5 59 48.67 59 39.5 37 41.33 37Z" class="MsftOfcThm_Accent1_Fill_v2" fill="#2D0F64"/></svg>