<svg width="512" height="512" viewBox="0 0 512 512" xmlns="http://www.w3.org/2000/svg" xmlns:xlink="http://www.w3.org/1999/xlink" overflow="hidden"><style>
.MsftOfcThm_Accent1_Fill_v2 {
 fill:#2D0F64; 
}
</style>
<g id="_OUTLINE"><path d="M144 448 168 448 168 464 144 464Z" class="MsftOfcThm_Accent1_Fill_v2" fill="#2D0F64"/><path d="M192 448 216 448 216 464 192 464Z" class="MsftOfcThm_Accent1_Fill_v2" fill="#2D0F64"/><path d="M240 448 264 448 264 464 240 464Z" class="MsftOfcThm_Accent1_Fill_v2" fill="#2D0F64"/><path d="M288 448 312 448 312 464 288 464Z" class="MsftOfcThm_Accent1_Fill_v2" fill="#2D0F64"/><path d="M336 448 360 448 360 464 336 464Z" class="MsftOfcThm_Accent1_Fill_v2" fill="#2D0F64"/><path d="M384 448 408 448 408 464 384 464Z" class="MsftOfcThm_Accent1_Fill_v2" fill="#2D0F64"/><path d="M432 448 456 448 456 464 432 464Z" class="MsftOfcThm_Accent1_Fill_v2" fill="#2D0F64"/><path d="M480 448 496 448 496 464 480 464Z" class="MsftOfcThm_Accent1_Fill_v2" fill="#2D0F64"/><path d="M16 392 160 392 160 416 117.287 416C81.9267 415.903 47.9973 429.957 23.0625 455.029 13.6894 464.401 13.6882 479.596 23.0597 488.969 27.5608 493.471 33.6662 496 40.0322 496L496 496 496 480 40.0322 480C35.6142 480 32.0323 476.419 32.0318 472.001 32.0316 469.879 32.8749 467.843 34.376 466.343 35.1709 465.548 35.9761 464.767 36.7915 464L96 464C109.249 463.985 119.985 453.249 120 440L120 432 496 432 496 416 440 416 440 392 496 392 496 376 16 376ZM104 440C103.995 444.416 100.416 447.995 96 448L58.0776 448C72.1434 439.746 87.7909 434.549 104 432.748ZM352 392 424 392 424 416 352 416ZM264 392 336 392 336 416 264 416ZM176 392 248 392 248 416 176 416Z" class="MsftOfcThm_Accent1_Fill_v2" fill="#2D0F64"/><path d="M80 272 96 272 96 288 80 288Z" class="MsftOfcThm_Accent1_Fill_v2" fill="#2D0F64"/><path d="M176 272 192 272 192 288 176 288Z" class="MsftOfcThm_Accent1_Fill_v2" fill="#2D0F64"/><path d="M256 232 256 208C255.99 199.168 248.832 192.01 240 192L224 192 224 168C223.985 154.751 213.249 144.015 200 144L72 144C58.7514 144.015 48.0152 154.751 48 168L48 192 32 192C23.1676 192.01 16.0101 199.168 16 208L16 232 32 232 32 208 48 208 48 296C48.013 306.166 54.4194 315.224 64 318.624L64 336C64 349.255 74.7452 360 88 360 101.255 360 112 349.255 112 336L112 320 160 320 160 336C160 349.255 170.745 360 184 360 197.255 360 208 349.255 208 336L208 318.624C217.581 315.224 223.987 306.166 224 296L224 208 240 208 240 232ZM96 160 176 160 176 176 96 176ZM96 336C96 340.418 92.4183 344 88 344 83.5817 344 80 340.418 80 336L80 320 96 320ZM192 336C192 340.418 188.418 344 184 344 179.582 344 176 340.418 176 336L176 320 192 320ZM208 296C207.995 300.416 204.416 303.995 200 304L72 304C67.5838 303.995 64.0051 300.416 64 296L64 256 208 256ZM208 240 64 240 64 168C64.0051 163.584 67.5838 160.005 72 160L80 160 80 178C80.0087 185.728 86.2716 191.991 94 192L178 192C185.728 191.991 191.991 185.728 192 178L192 160 200 160C204.416 160.005 207.995 163.584 208 168Z" class="MsftOfcThm_Accent1_Fill_v2" fill="#2D0F64"/><path d="M447.062 176 430.559 176 422.559 136 392 136 392 104 376 104 376 136 345.441 136 337.441 176 320.938 176 312.913 240.194 272 249.636 272 256C272.061 288.364 290.87 317.76 320.229 331.378L384 360.811 447.771 331.378C477.13 317.76 495.939 288.364 496 256L496 249.636 455.087 240.194ZM358.559 152 409.441 152 414.241 176 353.759 176ZM335.062 192 432.938 192 438.483 236.363 384 223.79 329.517 236.363ZM441.065 316.851 384 343.189 326.935 316.851C305.289 306.808 290.586 286.047 288.299 262.295L376 242.057 376 312 392 312 392 242.057 479.701 262.295C477.414 286.047 462.711 306.808 441.065 316.851Z" class="MsftOfcThm_Accent1_Fill_v2" fill="#2D0F64"/><path d="M43.8467 128 322.47 128C332.875 128.019 342.102 121.315 345.297 111.412L376.275 16 327.875 16 297.347 72 181.455 72 220.625 16 153.545 16 106.375 72 44.375 72C38.64 71.9906 33.0438 73.7634 28.3603 77.0732L27.833 77.4448C15.2742 86.2919 12.2653 103.645 21.1124 116.204 26.3217 123.598 34.8013 127.998 43.8467 128ZM37.0498 90.5234 37.5742 90.1538C39.5632 88.7485 41.9397 87.9959 44.375 88L113.818 88 160.988 32 189.908 32 150.738 88 306.847 88 337.375 32 354.258 32 330.078 106.471C329.013 109.772 325.938 112.007 322.47 112L43.8467 112C37.3211 111.997 32.0336 106.704 32.0368 100.179 32.0387 96.3366 33.9085 92.7354 37.0498 90.5234Z" class="MsftOfcThm_Accent1_Fill_v2" fill="#2D0F64"/><path d="M400 32 496 32 496 48 400 48Z" class="MsftOfcThm_Accent1_Fill_v2" fill="#2D0F64"/><path d="M376 72 464 72 464 88 376 88Z" class="MsftOfcThm_Accent1_Fill_v2" fill="#2D0F64"/></g></svg>