<svg width="512" height="512" viewBox="0 0 512 512" xmlns="http://www.w3.org/2000/svg" xmlns:xlink="http://www.w3.org/1999/xlink" overflow="hidden"><style>
.MsftOfcThm_Accent1_Fill_v2 {
 fill:#2D0F64; 
}
</style>
<g id="Outline"><g id="Hosting-server-cloud"><path d="M176 160 272 160 272 176 176 176Z" class="MsftOfcThm_Accent1_Fill_v2" fill="#2D0F64"/><path d="M288 160 304 160 304 176 288 176Z" class="MsftOfcThm_Accent1_Fill_v2" fill="#2D0F64"/><path d="M320 160 336 160 336 176 320 176Z" class="MsftOfcThm_Accent1_Fill_v2" fill="#2D0F64"/><path d="M176 224 272 224 272 240 176 240Z" class="MsftOfcThm_Accent1_Fill_v2" fill="#2D0F64"/><path d="M288 224 304 224 304 240 288 240Z" class="MsftOfcThm_Accent1_Fill_v2" fill="#2D0F64"/><path d="M320 224 336 224 336 240 320 240Z" class="MsftOfcThm_Accent1_Fill_v2" fill="#2D0F64"/><path d="M176 288 272 288 272 304 176 304Z" class="MsftOfcThm_Accent1_Fill_v2" fill="#2D0F64"/><path d="M288 288 304 288 304 304 288 304Z" class="MsftOfcThm_Accent1_Fill_v2" fill="#2D0F64"/><path d="M320 288 336 288 336 304 320 304Z" class="MsftOfcThm_Accent1_Fill_v2" fill="#2D0F64"/><path d="M464 344C449.414 344.019 436.679 353.882 433.013 368L344 368 344 336C357.248 335.985 367.985 325.248 368 312L368 288 416 288C460.183 287.968 495.974 252.125 495.942 207.942 495.91 163.759 460.066 127.968 415.884 128 411.553 128.003 407.229 128.358 402.956 129.061 381.441 47.8998 298.206-0.453369 217.045 21.0612 176.207 31.8868 141.715 59.2177 121.841 96.5 118.571 96.1672 115.287 96.0003 112 96 58.9807 96 16 138.981 16 192 16 245.019 58.9807 288 112 288L144 288 144 312C144.015 325.248 154.752 335.985 168 336L168 368 78.987 368C74.5687 350.888 57.1151 340.598 40.0031 345.016 22.8912 349.434 12.601 366.888 17.0193 384 21.4375 401.112 38.8912 411.402 56.0031 406.984 67.2747 404.074 76.0767 395.272 78.987 384L176 384C180.418 384 184 380.418 184 376L184 336 200 336 200 400 136 400C131.582 400 128 403.582 128 408L128 433.013C110.888 437.431 100.598 454.885 105.016 471.997 109.434 489.109 126.888 499.399 144 494.981 161.112 490.562 171.402 473.109 166.984 455.997 164.074 444.725 155.272 435.923 144 433.013L144 416 208 416C212.418 416 216 412.418 216 408L216 336 248 336 248 417.013C230.888 421.431 220.598 438.885 225.016 455.997 229.434 473.109 246.888 483.399 264 478.981 281.112 474.562 291.402 457.109 286.984 439.997 284.074 428.725 275.272 419.923 264 417.013L264 336 296 336 296 408C296 412.418 299.582 416 304 416L368 416 368 433.013C350.888 437.431 340.598 454.885 345.016 471.997 349.434 489.109 366.888 499.399 384 494.981 401.112 490.562 411.402 473.109 406.984 455.997 404.074 444.725 395.272 435.923 384 433.013L384 408C384 403.582 380.418 400 376 400L312 400 312 336 328 336 328 376C328 380.418 331.582 384 336 384L433.013 384C437.431 401.112 454.885 411.402 471.997 406.984 489.109 402.566 499.399 385.112 494.981 368 491.333 353.873 478.591 344.001 464 344ZM48 392C39.1634 392 32 384.837 32 376 32 367.163 39.1634 360 48 360 56.8366 360 64 367.163 64 376 63.9895 384.832 56.8322 391.99 48 392ZM152 464C152 472.837 144.837 480 136 480 127.163 480 120 472.837 120 464 120 455.163 127.163 448 136 448 144.832 448.01 151.99 455.168 152 464ZM272 448C272 456.837 264.837 464 256 464 247.163 464 240 456.837 240 448 240 439.163 247.163 432 256 432 264.832 432.01 271.99 439.168 272 448ZM392 464C392 472.837 384.837 480 376 480 367.163 480 360 472.837 360 464 360 455.163 367.163 448 376 448 384.832 448.01 391.99 455.168 392 464ZM160 184 160 152C160.005 147.584 163.584 144.005 168 144L344 144C348.416 144.005 351.995 147.584 352 152L352 184C351.995 188.416 348.416 191.995 344 192L168 192C163.584 191.995 160.005 188.416 160 184ZM160 248 160 216C160.005 211.584 163.584 208.005 168 208L344 208C348.416 208.005 351.995 211.584 352 216L352 248C351.995 252.416 348.416 255.995 344 256L168 256C163.584 255.995 160.005 252.416 160 248ZM32 192C32.0501 147.838 67.838 112.05 112 112 116.388 111.999 120.769 112.355 125.1 113.064 128.595 113.643 132.055 111.852 133.6 108.664 166.389 41.0662 247.769 12.8484 315.367 45.6378 353.274 64.0253 380.523 98.9393 389.15 140.178 390.049 144.504 394.284 147.282 398.61 146.383 398.778 146.349 398.944 146.309 399.109 146.263 433.205 136.947 468.398 157.035 477.714 191.132 487.031 225.228 466.942 260.421 432.846 269.737 427.356 271.237 421.691 271.998 416 272L366.624 272C365.576 269.049 363.96 266.331 361.869 264 365.82 259.608 368.004 253.908 368 248L368 216C368.004 210.092 365.82 204.392 361.869 200 365.82 195.608 368.004 189.908 368 184L368 152C367.985 138.752 357.248 128.015 344 128L168 128C154.752 128.015 144.015 138.752 144 152L144 184C143.996 189.908 146.18 195.608 150.131 200 146.18 204.392 143.996 210.092 144 216L144 248C143.996 253.908 146.18 259.608 150.131 264 148.04 266.331 146.424 269.049 145.376 272L112 272C67.838 271.95 32.0501 236.162 32 192ZM160 312 160 280C160.005 275.584 163.584 272.005 168 272L344 272C348.416 272.005 351.995 275.584 352 280L352 312C351.995 316.416 348.416 319.995 344 320L168 320C163.584 319.995 160.005 316.416 160 312ZM464 392C455.163 392 448 384.837 448 376 448 367.163 455.163 360 464 360 472.837 360 480 367.163 480 376 479.99 384.832 472.832 391.99 464 392Z" class="MsftOfcThm_Accent1_Fill_v2" fill="#2D0F64"/></g></g></svg>