<svg width="512" height="512" viewBox="0 0 64 64" xmlns="http://www.w3.org/2000/svg" xmlns:xlink="http://www.w3.org/1999/xlink" overflow="hidden"><style>
.MsftOfcThm_Accent1_Fill_v2 {
 fill:#2D0F64; 
}
</style>
<g id="Internet_of_things"><path d="M32 35C30.3431 35 29 36.3431 29 38 29 39.6569 30.3431 41 32 41 33.6569 41 35 39.6569 35 38 35 36.3431 33.6569 35 32 35ZM32 39C31.4477 39 31 38.5523 31 38 31 37.4477 31.4477 37 32 37 32.5523 37 33 37.4477 33 38 33 38.5523 32.5523 39 32 39Z" class="MsftOfcThm_Accent1_Fill_v2" fill="#2D0F64"/><path d="M32 31C29.5552 30.9892 27.2853 32.2661 26.025 34.361 25.7384 34.8332 25.8888 35.4484 26.361 35.735 26.8332 36.0216 27.4484 35.8712 27.735 35.399 29.1667 33.0435 32.2368 32.2946 34.5923 33.7263 35.2758 34.1417 35.8495 34.7154 36.265 35.399 36.5516 35.8712 37.1668 36.0216 37.639 35.735 38.1112 35.4484 38.2616 34.8332 37.975 34.361 36.7147 32.2661 34.4448 30.9892 32 31Z" class="MsftOfcThm_Accent1_Fill_v2" fill="#2D0F64"/><path d="M32 27C28.535 26.9887 25.27 28.6213 23.2 31.4 22.8686 31.8418 22.9582 32.4686 23.4 32.8 23.8418 33.1314 24.4686 33.0418 24.8 32.6 27.7823 28.6235 33.4235 27.8177 37.4 30.8 38.0823 31.3117 38.6883 31.9177 39.2 32.6 39.5314 33.0418 40.1582 33.1314 40.6 32.8 41.0418 32.4686 41.1314 31.8418 40.8 31.4 38.73 28.6213 35.465 26.9887 32 27Z" class="MsftOfcThm_Accent1_Fill_v2" fill="#2D0F64"/><path d="M32 25C35.9066 24.9928 39.6065 26.7542 42.064 29.791 42.4125 30.2196 43.0424 30.2845 43.471 29.936 43.8996 29.5875 43.9645 28.9576 43.616 28.529 38.4034 22.1137 28.9771 21.1386 22.5618 26.3512 21.7629 27.0003 21.0331 27.7301 20.384 28.529 20.0355 28.9576 20.1004 29.5875 20.529 29.936 20.9576 30.2845 21.5875 30.2196 21.936 29.791 24.3935 26.7542 28.0934 24.9928 32 25Z" class="MsftOfcThm_Accent1_Fill_v2" fill="#2D0F64"/><path d="M48.949 33 54.1 33C54.6523 35.7056 57.2933 37.4513 59.999 36.899 62.7046 36.3467 64.4502 33.7056 63.898 31 63.3457 28.2944 60.7046 26.5487 57.999 27.101 56.0354 27.5018 54.5008 29.0364 54.1 31L48.949 31C48.7291 27.1924 47.2277 23.5712 44.689 20.725L51.1 14.312C54.5999 17.0321 59.6422 16.3999 62.3623 12.9 65.0824 9.40009 64.4502 4.35778 60.9503 1.63769 57.4504-1.0824 52.4081-0.450222 49.688 3.04969 47.4362 5.94706 47.4362 10.0026 49.688 12.9L43.275 19.313C40.4291 16.7735 36.8078 15.2715 33 15.051L33 9.9C35.7056 9.34771 37.4513 6.70665 36.899 4.00102 36.3467 1.29539 33.7056-0.450244 31 0.10204 28.2944 0.654325 26.5487 3.29539 27.101 6.00102 27.5018 7.96462 29.0364 9.49918 31 9.9L31 15.052C27.1924 15.2719 23.5712 16.7733 20.725 19.312L14.312 12.9C17.0321 9.40009 16.3999 4.35778 12.9 1.63769 9.40009-1.0824 4.35778-0.450223 1.63769 3.04969-1.0824 6.5496-0.450222 11.5919 3.04969 14.312 5.94706 16.5638 10.0026 16.5638 12.9 14.312L19.313 20.725C16.7735 23.5709 15.2715 27.1922 15.051 31L9.9 31C9.34771 28.2944 6.70665 26.5487 4.00102 27.101 1.29539 27.6533-0.450244 30.2944 0.10204 33 0.654325 35.7056 3.29539 37.4513 6.00102 36.899 7.96462 36.4982 9.49918 34.9636 9.9 33L15.052 33C15.2719 36.8076 16.7733 40.4288 19.312 43.275L12.9 49.688C9.40009 46.9679 4.35778 47.6001 1.63769 51.1-1.0824 54.5999-0.450223 59.6422 3.04969 62.3623 6.5496 65.0824 11.5919 64.4502 14.312 60.9503 16.5638 58.0529 16.5638 53.9974 14.312 51.1L20.725 44.687C23.5709 47.2265 27.1922 48.7285 31 48.949L31 54.1C28.2944 54.6523 26.5487 57.2933 27.101 59.999 27.6533 62.7046 30.2944 64.4502 33 63.898 35.7056 63.3457 37.4513 60.7046 36.899 57.999 36.4982 56.0354 34.9636 54.5008 33 54.1L33 48.949C36.8076 48.7291 40.4288 47.2277 43.275 44.689L49.688 51.1C46.9679 54.5999 47.6001 59.6422 51.1 62.3623 54.5999 65.0824 59.6422 64.4502 62.3623 60.9503 65.0824 57.4504 64.4502 52.4081 60.9503 49.688 58.0529 47.4362 53.9974 47.4362 51.1 49.688L44.687 43.275C47.2265 40.4291 48.7285 36.8078 48.949 33ZM59 29C60.6569 29 62 30.3431 62 32 62 33.6569 60.6569 35 59 35 57.3431 35 56 33.6569 56 32 56 30.3431 57.3431 29 59 29ZM56 2C59.3137 2 62 4.68629 62 8 62 11.3137 59.3137 14 56 14 52.6863 14 50 11.3137 50 8 50.0033 4.68766 52.6877 2.00331 56 2ZM29 5C29 3.34315 30.3431 2 32 2 33.6569 2 35 3.34315 35 5 35 6.65685 33.6569 8 32 8 30.3431 8 29 6.65685 29 5ZM2 8C2 4.68629 4.68629 2 8 2 11.3137 2 14 4.68629 14 8 14 11.3137 11.3137 14 8 14 4.68766 13.9967 2.00331 11.3123 2 8ZM5 35C3.34315 35 2 33.6569 2 32 2 30.3431 3.34315 29 5 29 6.65685 29 8 30.3431 8 32 8 33.6569 6.65685 35 5 35ZM32 17C40.2843 17 47 23.7157 47 32 47 40.2843 40.2843 47 32 47 23.7157 47 17 40.2843 17 32 17.0094 23.7196 23.7196 17.0094 32 17ZM8 62C4.68629 62 2 59.3137 2 56 2 52.6863 4.68629 50 8 50 11.3137 50 14 52.6863 14 56 13.9967 59.3123 11.3123 61.9967 8 62ZM35 59C35 60.6569 33.6569 62 32 62 30.3431 62 29 60.6569 29 59 29 57.3431 30.3431 56 32 56 33.6569 56 35 57.3431 35 59ZM62 56C62 59.3137 59.3137 62 56 62 52.6863 62 50 59.3137 50 56 50 52.6863 52.6863 50 56 50 59.3123 50.0033 61.9967 52.6877 62 56Z" class="MsftOfcThm_Accent1_Fill_v2" fill="#2D0F64"/></g></svg>