<svg width="512" height="512" viewBox="0 0 512 512" xmlns="http://www.w3.org/2000/svg" xmlns:xlink="http://www.w3.org/1999/xlink" overflow="hidden"><style>
.MsftOfcResponsive_Fill_c83654 {
 fill:#C83654; 
}
</style>
<g><path d="M496 464 488 464 488 200C488 195.582 484.418 192 480 192L392 192 392 16C392 11.5817 388.418 8 384 8L128 8C123.582 8 120 11.5817 120 16L120 112 32 112C27.5817 112 24 115.582 24 120L24 464 16 464C11.5817 464 8 467.582 8 472L8 496C8 500.418 11.5817 504 16 504L496 504C500.418 504 504 500.418 504 496L504 472C504 467.582 500.418 464 496 464ZM392 208 472 208 472 464 392 464ZM136 24 376 24 376 464 320 464 320 344C320 339.582 316.418 336 312 336L200 336C195.582 336 192 339.582 192 344L192 464 136 464ZM304 352 304 464 264 464 264 352ZM248 352 248 464 208 464 208 352ZM40 128 120 128 120 464 40 464ZM488 488 24 488 24 480 488 480Z" class="MsftOfcResponsive_Fill_c83654" fill="#C83654"/><path d="M104 136 56 136C51.5817 136 48 139.582 48 144L48 192C48 196.418 51.5817 200 56 200L104 200C108.418 200 112 196.418 112 192L112 144C112 139.582 108.418 136 104 136ZM96 184 64 184 64 152 96 152Z" class="MsftOfcResponsive_Fill_c83654" fill="#C83654"/><path d="M104 216 56 216C51.5817 216 48 219.582 48 224L48 272C48 276.418 51.5817 280 56 280L104 280C108.418 280 112 276.418 112 272L112 224C112 219.582 108.418 216 104 216ZM96 264 64 264 64 232 96 232Z" class="MsftOfcResponsive_Fill_c83654" fill="#C83654"/><path d="M104 296 56 296C51.5817 296 48 299.582 48 304L48 352C48 356.418 51.5817 360 56 360L104 360C108.418 360 112 356.418 112 352L112 304C112 299.582 108.418 296 104 296ZM96 344 64 344 64 312 96 312Z" class="MsftOfcResponsive_Fill_c83654" fill="#C83654"/><path d="M408 280 456 280C460.418 280 464 276.418 464 272L464 224C464 219.582 460.418 216 456 216L408 216C403.582 216 400 219.582 400 224L400 272C400 276.418 403.582 280 408 280ZM416 232 448 232 448 264 416 264Z" class="MsftOfcResponsive_Fill_c83654" fill="#C83654"/><path d="M408 360 456 360C460.418 360 464 356.418 464 352L464 304C464 299.582 460.418 296 456 296L408 296C403.582 296 400 299.582 400 304L400 352C400 356.418 403.582 360 408 360ZM416 312 448 312 448 344 416 344Z" class="MsftOfcResponsive_Fill_c83654" fill="#C83654"/><path d="M160 312 352 312C356.418 312 360 308.418 360 304L360 240C360 235.582 356.418 232 352 232L160 232C155.582 232 152 235.582 152 240L152 304C152 308.418 155.582 312 160 312ZM248 296 216 296 216 248 248 248ZM264 248 296 248 296 296 264 296ZM344 296 312 296 312 248 344 248ZM168 248 200 248 200 296 168 296Z" class="MsftOfcResponsive_Fill_c83654" fill="#C83654"/><path d="M160 216 352 216C356.418 216 360 212.418 360 208L360 144C360 139.582 356.418 136 352 136L160 136C155.582 136 152 139.582 152 144L152 208C152 212.418 155.582 216 160 216ZM248 200 216 200 216 152 248 152ZM264 152 296 152 296 200 264 200ZM344 200 312 200 312 152 344 152ZM168 152 200 152 200 200 168 200Z" class="MsftOfcResponsive_Fill_c83654" fill="#C83654"/><path d="M160 120 352 120C356.418 120 360 116.418 360 112L360 48C360 43.5817 356.418 40 352 40L160 40C155.582 40 152 43.5817 152 48L152 112C152 116.418 155.582 120 160 120ZM248 104 216 104 216 56 248 56ZM264 56 296 56 296 104 264 104ZM344 104 312 104 312 56 344 56ZM168 56 200 56 200 104 168 104Z" class="MsftOfcResponsive_Fill_c83654" fill="#C83654"/></g></svg>