<svg width="512" height="512" viewBox="0 0 100 100" xmlns="http://www.w3.org/2000/svg" xmlns:xlink="http://www.w3.org/1999/xlink" overflow="hidden"><style>
.MsftOfcThm_Accent1_Fill_v2 {
 fill:#2D0F64; 
}
</style>
<g id="Layer_35"><g><g><path d="M93 45.9 71.2 45.9 71.2 33.4C72.4 32 73.1 30.3 73.1 28.4L73.1 23C73.1 19.1 69.9 15.9 66 15.9L57.3 15.9 57.3 12.2C57.3 8.3 54.1 5.1 50.2 5.1L28.3 5.1C24.4 5.1 21.2 8.3 21.2 12.2L21.2 15.9 12.5 15.9C8.6 15.9 5.4 19.1 5.4 23L5.4 28.4C5.4 30.3 6.1 32 7.3 33.4L7.3 62.3C7.3 64.9 9.4 66.9 12 66.9L54.4 66.9 54.4 93.2C54.4 94 55.1 94.7 55.9 94.7L93 94.7C93.8 94.7 94.5 94 94.5 93.2L94.5 47.4C94.5 46.6 93.8 45.9 93 45.9ZM24.3 12.2C24.3 10 26.1 8.1 28.4 8.1L50.3 8.1C52.5 8.1 54.4 9.9 54.4 12.2L54.4 15.9 24.4 15.9 24.4 12.2ZM8.5 23C8.5 20.7 10.3 18.9 12.6 18.9L66 18.9C68.3 18.9 70.1 20.7 70.1 23L70.1 28.4C70.1 33.6 60.6 37.7 46.2 38.7L46.2 37.8C46.2 36 44.7 34.5 42.9 34.5L35.2 34.5C33.4 34.5 31.9 36 31.9 37.8L31.9 38.6C17.9 37.5 8.6 33.4 8.6 28.3L8.6 23ZM43.1 37.9 43.1 45.6C43.1 45.8 42.9 45.9 42.8 45.9L35.1 45.9C34.9 45.9 34.8 45.8 34.8 45.6L34.8 37.9C34.8 37.7 34.9 37.6 35.1 37.6L42.8 37.6C43 37.6 43.1 37.7 43.1 37.9ZM12 64.1C11.1 64.1 10.3 63.4 10.3 62.5L10.3 36.1C16.3 40 26.5 41.3 31.7 41.7L31.7 45.6C31.7 47.4 33.2 48.9 35 48.9L42.7 48.9C44.5 48.9 46 47.4 46 45.6L46 41.7C54.4 41.1 62.9 39.3 68 35.9L68 45.8 55.9 45.8C55.1 45.8 54.4 46.5 54.4 47.3L54.4 64 12 64ZM91.5 91.8 57.4 91.8 57.4 48.9 91.5 48.9Z" class="MsftOfcThm_Accent1_Fill_v2" fill="#2D0F64"/><path d="M16 28.2 20.4 28.2C21.2 28.2 21.9 27.5 21.9 26.7 21.9 25.9 21.2 25.2 20.4 25.2L16 25.2C15.2 25.2 14.5 25.9 14.5 26.7 14.5 27.5 15.2 28.2 16 28.2Z" class="MsftOfcThm_Accent1_Fill_v2" fill="#2D0F64"/><path d="M58.2 28.2 62.6 28.2C63.4 28.2 64.1 27.5 64.1 26.7 64.1 25.9 63.4 25.2 62.6 25.2L58.2 25.2C57.4 25.2 56.7 25.9 56.7 26.7 56.7 27.5 57.3 28.2 58.2 28.2Z" class="MsftOfcThm_Accent1_Fill_v2" fill="#2D0F64"/><path d="M76.3 58.1 85.3 58.1C86.1 58.1 86.8 57.4 86.8 56.6 86.8 55.8 86.1 55.1 85.3 55.1L76.3 55.1C75.5 55.1 74.8 55.8 74.8 56.6 74.8 57.4 75.5 58.1 76.3 58.1Z" class="MsftOfcThm_Accent1_Fill_v2" fill="#2D0F64"/><path d="M63.6 58.1 67.2 58.1C68 58.1 68.7 57.4 68.7 56.6 68.7 55.8 68 55.1 67.2 55.1L63.6 55.1C62.8 55.1 62.1 55.8 62.1 56.6 62.1 57.4 62.8 58.1 63.6 58.1Z" class="MsftOfcThm_Accent1_Fill_v2" fill="#2D0F64"/><path d="M85.3 64.7 63.6 64.7C62.8 64.7 62.1 65.4 62.1 66.2 62.1 67 62.8 67.7 63.6 67.7L85.3 67.7C86.1 67.7 86.8 67 86.8 66.2 86.8 65.4 86.1 64.7 85.3 64.7Z" class="MsftOfcThm_Accent1_Fill_v2" fill="#2D0F64"/><path d="M85.3 82.6 63.6 82.6C62.8 82.6 62.1 83.3 62.1 84.1 62.1 84.9 62.8 85.6 63.6 85.6L85.3 85.6C86.1 85.6 86.8 84.9 86.8 84.1 86.8 83.3 86.1 82.6 85.3 82.6Z" class="MsftOfcThm_Accent1_Fill_v2" fill="#2D0F64"/><path d="M85.3 73.1 81.7 73.1C80.9 73.1 80.2 73.8 80.2 74.6 80.2 75.4 80.9 76.1 81.7 76.1L85.3 76.1C86.1 76.1 86.8 75.4 86.8 74.6 86.8 73.8 86.1 73.1 85.3 73.1Z" class="MsftOfcThm_Accent1_Fill_v2" fill="#2D0F64"/><path d="M63.6 76.1 72.6 76.1C73.4 76.1 74.1 75.4 74.1 74.6 74.1 73.8 73.4 73.1 72.6 73.1L63.6 73.1C62.8 73.1 62.1 73.8 62.1 74.6 62.1 75.4 62.8 76.1 63.6 76.1Z" class="MsftOfcThm_Accent1_Fill_v2" fill="#2D0F64"/></g></g></g></svg>